<?xml version="1.0" encoding="utf-8" standalone="no"?>
<!DOCTYPE svg PUBLIC "-//W3C//DTD SVG 1.1//EN"
  "http://www.w3.org/Graphics/SVG/1.1/DTD/svg11.dtd">
<svg xmlns:xlink="http://www.w3.org/1999/xlink" width="720pt" height="216pt" viewBox="0 0 720 216" xmlns="http://www.w3.org/2000/svg" version="1.1">
 <metadata>
  <rdf:RDF xmlns:dc="http://purl.org/dc/elements/1.1/" xmlns:cc="http://creativecommons.org/ns#" xmlns:rdf="http://www.w3.org/1999/02/22-rdf-syntax-ns#">
   <cc:Work>
    <dc:type rdf:resource="http://purl.org/dc/dcmitype/StillImage"/>
    <dc:date>2023-04-17T17:42:04.375448</dc:date>
    <dc:format>image/svg+xml</dc:format>
    <dc:creator>
     <cc:Agent>
      <dc:title>Matplotlib v3.7.1, https://matplotlib.org/</dc:title>
     </cc:Agent>
    </dc:creator>
   </cc:Work>
  </rdf:RDF>
 </metadata>
 <defs>
  <style type="text/css">*{stroke-linejoin: round; stroke-linecap: butt}</style>
 </defs>
 <g id="figure_1">
  <g id="patch_1">
   <path d="M 0 216 
L 720 216 
L 720 0 
L 0 0 
z
" style="fill: #ffffff"/>
  </g>
  <g id="axes_1">
   <g id="patch_2">
    <path d="M 90 192.24 
L 648 192.24 
L 648 25.92 
L 90 25.92 
z
" style="fill: #ffffff"/>
   </g>
   <g id="PolyCollection_1">
    <path d="M 90 189.714706 
L 90 192.24 
L 119.368421 192.24 
L 148.736842 192.24 
L 178.105263 192.24 
L 207.473684 192.24 
L 236.842105 192.24 
L 266.210526 192.24 
L 295.578947 192.24 
L 324.947368 192.24 
L 354.315789 192.24 
L 383.684211 192.24 
L 413.052632 192.24 
L 442.421053 192.24 
L 471.789474 192.24 
L 501.157895 192.24 
L 530.526316 192.24 
L 559.894737 192.24 
L 589.263158 192.24 
L 618.631579 192.24 
L 648 192.24 
L 677.368421 192.24 
L 706.736842 192.24 
L 736.105263 192.24 
L 765.473684 192.24 
L 794.842105 192.24 
L 824.210526 192.24 
L 853.578947 192.24 
L 882.947368 192.24 
L 912.315789 192.24 
L 941.684211 192.24 
L 971.052632 192.24 
L 1000.421053 192.24 
L 1029.789474 192.24 
L 1059.157895 192.24 
L 1088.526316 192.24 
L 1117.894737 192.24 
L 1147.263158 192.24 
L 1176.631579 192.24 
L 1206 192.24 
L 1235.368421 192.24 
L 1264.736842 192.24 
L 1294.105263 192.24 
L 1323.473684 192.24 
L 1352.842105 192.24 
L 1382.210526 192.24 
L 1411.578947 192.24 
L 1440.947368 192.24 
L 1470.315789 192.24 
L 1499.684211 192.24 
L 1529.052632 192.24 
L 1558.421053 192.24 
L 1587.789474 192.24 
L 1617.157895 192.24 
L 1646.526316 192.24 
L 1675.894737 192.24 
L 1705.263158 192.24 
L 1734.631579 192.24 
L 1764 192.24 
L 1793.368421 192.24 
L 1822.736842 192.24 
L 1852.105263 192.24 
L 1881.473684 192.24 
L 1910.842105 192.24 
L 1940.210526 192.24 
L 1969.578947 192.24 
L 1998.947368 192.24 
L 2028.315789 192.24 
L 2057.684211 192.24 
L 2087.052632 192.24 
L 2116.421053 192.24 
L 2145.789474 192.24 
L 2175.157895 192.24 
L 2204.526316 192.24 
L 2233.894737 192.24 
L 2263.263158 192.24 
L 2292.631579 192.24 
L 2322 192.24 
L 2351.368421 192.24 
L 2380.736842 192.24 
L 2410.105263 192.24 
L 2410.105263 192.24 
L 2410.105263 192.24 
L 2380.736842 192.24 
L 2351.368421 192.24 
L 2322 192.24 
L 2292.631579 192.24 
L 2263.263158 192.24 
L 2233.894737 192.24 
L 2204.526316 192.24 
L 2175.157895 192.24 
L 2145.789474 192.24 
L 2116.421053 192.24 
L 2087.052632 192.24 
L 2057.684211 192.24 
L 2028.315789 192.24 
L 1998.947368 192.24 
L 1969.578947 192.24 
L 1940.210526 192.24 
L 1910.842105 192.24 
L 1881.473684 192.24 
L 1852.105263 192.24 
L 1822.736842 192.24 
L 1793.368421 192.24 
L 1764 192.24 
L 1734.631579 192.24 
L 1705.263158 192.24 
L 1675.894737 192.24 
L 1646.526316 192.24 
L 1617.157895 192.24 
L 1587.789474 192.24 
L 1558.421053 192.24 
L 1529.052632 192.24 
L 1499.684211 192.24 
L 1470.315789 192.24 
L 1440.947368 192.24 
L 1411.578947 192.24 
L 1382.210526 192.24 
L 1352.842105 192.24 
L 1323.473684 192.24 
L 1294.105263 192.24 
L 1264.736842 192.225972 
L 1235.368421 192.207723 
L 1206 192.169193 
L 1176.631579 192.132531 
L 1147.263158 192.087378 
L 1117.894737 192.025364 
L 1088.526316 191.919066 
L 1059.157895 191.796683 
L 1029.789474 191.644167 
L 1000.421053 191.544606 
L 971.052632 191.404445 
L 941.684211 191.299452 
L 912.315789 191.227323 
L 882.947368 191.185056 
L 853.578947 191.122777 
L 824.210526 191.072637 
L 794.842105 191.013214 
L 765.473684 190.951303 
L 736.105263 190.902981 
L 706.736842 190.85361 
L 677.368421 190.825892 
L 648 190.787529 
L 618.631579 190.656447 
L 589.263158 190.622494 
L 559.894737 190.56675 
L 530.526316 190.524919 
L 501.157895 190.475643 
L 471.789474 190.429071 
L 442.421053 190.367339 
L 413.052632 190.270869 
L 383.684211 190.170052 
L 354.315789 190.004488 
L 324.947368 189.834427 
L 295.578947 189.68303 
L 266.210526 189.40771 
L 236.842105 189.067739 
L 207.473684 188.757252 
L 178.105263 188.237422 
L 148.736842 187.778413 
L 119.368421 187.15075 
L 90 189.714706 
z
" clip-path="url(#pef777dcb33)" style="fill: #708090"/>
   </g>
   <g id="PolyCollection_2">
    <path d="M 90 187.525963 
L 90 189.714706 
L 119.368421 187.15075 
L 148.736842 187.778413 
L 178.105263 188.237422 
L 207.473684 188.757252 
L 236.842105 189.067739 
L 266.210526 189.40771 
L 295.578947 189.68303 
L 324.947368 189.834427 
L 354.315789 190.004488 
L 383.684211 190.170052 
L 413.052632 190.270869 
L 442.421053 190.367339 
L 471.789474 190.429071 
L 501.157895 190.475643 
L 530.526316 190.524919 
L 559.894737 190.56675 
L 589.263158 190.622494 
L 618.631579 190.656447 
L 648 190.787529 
L 677.368421 190.825892 
L 706.736842 190.85361 
L 736.105263 190.902981 
L 765.473684 190.951303 
L 794.842105 191.013214 
L 824.210526 191.072637 
L 853.578947 191.122777 
L 882.947368 191.185056 
L 912.315789 191.227323 
L 941.684211 191.299452 
L 971.052632 191.404445 
L 1000.421053 191.544606 
L 1029.789474 191.644167 
L 1059.157895 191.796683 
L 1088.526316 191.919066 
L 1117.894737 192.025364 
L 1147.263158 192.087378 
L 1176.631579 192.132531 
L 1206 192.169193 
L 1235.368421 192.207723 
L 1264.736842 192.225972 
L 1294.105263 192.24 
L 1323.473684 192.24 
L 1352.842105 192.24 
L 1382.210526 192.24 
L 1411.578947 192.24 
L 1440.947368 192.24 
L 1470.315789 192.24 
L 1499.684211 192.24 
L 1529.052632 192.24 
L 1558.421053 192.24 
L 1587.789474 192.24 
L 1617.157895 192.24 
L 1646.526316 192.24 
L 1675.894737 192.24 
L 1705.263158 192.24 
L 1734.631579 192.24 
L 1764 192.24 
L 1793.368421 192.24 
L 1822.736842 192.24 
L 1852.105263 192.24 
L 1881.473684 192.24 
L 1910.842105 192.24 
L 1940.210526 192.24 
L 1969.578947 192.24 
L 1998.947368 192.24 
L 2028.315789 192.24 
L 2057.684211 192.24 
L 2087.052632 192.24 
L 2116.421053 192.24 
L 2145.789474 192.24 
L 2175.157895 192.24 
L 2204.526316 192.24 
L 2233.894737 192.24 
L 2263.263158 192.24 
L 2292.631579 192.24 
L 2322 192.24 
L 2351.368421 192.24 
L 2380.736842 192.24 
L 2410.105263 192.24 
L 2410.105263 192.24 
L 2410.105263 192.24 
L 2380.736842 192.24 
L 2351.368421 192.24 
L 2322 192.24 
L 2292.631579 192.24 
L 2263.263158 192.24 
L 2233.894737 192.24 
L 2204.526316 192.24 
L 2175.157895 192.24 
L 2145.789474 192.24 
L 2116.421053 192.24 
L 2087.052632 192.24 
L 2057.684211 192.24 
L 2028.315789 192.24 
L 1998.947368 192.24 
L 1969.578947 192.24 
L 1940.210526 192.24 
L 1910.842105 192.24 
L 1881.473684 192.24 
L 1852.105263 192.24 
L 1822.736842 192.24 
L 1793.368421 192.24 
L 1764 192.24 
L 1734.631579 192.24 
L 1705.263158 192.24 
L 1675.894737 192.24 
L 1646.526316 192.24 
L 1617.157895 192.24 
L 1587.789474 192.24 
L 1558.421053 192.24 
L 1529.052632 192.24 
L 1499.684211 192.24 
L 1470.315789 192.24 
L 1440.947368 192.24 
L 1411.578947 192.24 
L 1382.210526 192.24 
L 1352.842105 192.24 
L 1323.473684 192.24 
L 1294.105263 192.24 
L 1264.736842 192.203121 
L 1235.368421 192.149182 
L 1206 192.088532 
L 1176.631579 192.004886 
L 1147.263158 191.917209 
L 1117.894737 191.757856 
L 1088.526316 191.537131 
L 1059.157895 191.319251 
L 1029.789474 191.044676 
L 1000.421053 190.81069 
L 971.052632 190.598611 
L 941.684211 190.38159 
L 912.315789 190.163806 
L 882.947368 190.005084 
L 853.578947 189.874423 
L 824.210526 189.766837 
L 794.842105 189.616115 
L 765.473684 189.481018 
L 736.105263 189.344738 
L 706.736842 189.128299 
L 677.368421 188.981091 
L 648 188.861371 
L 618.631579 188.640195 
L 589.263158 188.490474 
L 559.894737 188.357574 
L 530.526316 188.246325 
L 501.157895 188.124044 
L 471.789474 187.989777 
L 442.421053 187.812614 
L 413.052632 187.593329 
L 383.684211 187.312573 
L 354.315789 186.946014 
L 324.947368 186.519834 
L 295.578947 186.043239 
L 266.210526 185.46202 
L 236.842105 184.796396 
L 207.473684 184.129659 
L 178.105263 183.216721 
L 148.736842 182.223919 
L 119.368421 180.921211 
L 90 187.525963 
z
" clip-path="url(#pef777dcb33)" style="fill: #1e90ff"/>
   </g>
   <g id="PolyCollection_3">
    <path d="M 90 181.728092 
L 90 187.525963 
L 119.368421 180.921211 
L 148.736842 182.223919 
L 178.105263 183.216721 
L 207.473684 184.129659 
L 236.842105 184.796396 
L 266.210526 185.46202 
L 295.578947 186.043239 
L 324.947368 186.519834 
L 354.315789 186.946014 
L 383.684211 187.312573 
L 413.052632 187.593329 
L 442.421053 187.812614 
L 471.789474 187.989777 
L 501.157895 188.124044 
L 530.526316 188.246325 
L 559.894737 188.357574 
L 589.263158 188.490474 
L 618.631579 188.640195 
L 648 188.861371 
L 677.368421 188.981091 
L 706.736842 189.128299 
L 736.105263 189.344738 
L 765.473684 189.481018 
L 794.842105 189.616115 
L 824.210526 189.766837 
L 853.578947 189.874423 
L 882.947368 190.005084 
L 912.315789 190.163806 
L 941.684211 190.38159 
L 971.052632 190.598611 
L 1000.421053 190.81069 
L 1029.789474 191.044676 
L 1059.157895 191.319251 
L 1088.526316 191.537131 
L 1117.894737 191.757856 
L 1147.263158 191.917209 
L 1176.631579 192.004886 
L 1206 192.088532 
L 1235.368421 192.149182 
L 1264.736842 192.203121 
L 1294.105263 192.24 
L 1323.473684 192.24 
L 1352.842105 192.24 
L 1382.210526 192.24 
L 1411.578947 192.24 
L 1440.947368 192.24 
L 1470.315789 192.24 
L 1499.684211 192.24 
L 1529.052632 192.24 
L 1558.421053 192.24 
L 1587.789474 192.24 
L 1617.157895 192.24 
L 1646.526316 192.24 
L 1675.894737 192.24 
L 1705.263158 192.24 
L 1734.631579 192.24 
L 1764 192.24 
L 1793.368421 192.24 
L 1822.736842 192.24 
L 1852.105263 192.24 
L 1881.473684 192.24 
L 1910.842105 192.24 
L 1940.210526 192.24 
L 1969.578947 192.24 
L 1998.947368 192.24 
L 2028.315789 192.24 
L 2057.684211 192.24 
L 2087.052632 192.24 
L 2116.421053 192.24 
L 2145.789474 192.24 
L 2175.157895 192.24 
L 2204.526316 192.24 
L 2233.894737 192.24 
L 2263.263158 192.24 
L 2292.631579 192.24 
L 2322 192.24 
L 2351.368421 192.24 
L 2380.736842 192.24 
L 2410.105263 192.24 
L 2410.105263 192.24 
L 2410.105263 192.24 
L 2380.736842 192.24 
L 2351.368421 192.24 
L 2322 192.24 
L 2292.631579 192.24 
L 2263.263158 192.24 
L 2233.894737 192.24 
L 2204.526316 192.24 
L 2175.157895 192.24 
L 2145.789474 192.24 
L 2116.421053 192.24 
L 2087.052632 192.24 
L 2057.684211 192.24 
L 2028.315789 192.24 
L 1998.947368 192.24 
L 1969.578947 192.24 
L 1940.210526 192.24 
L 1910.842105 192.24 
L 1881.473684 192.24 
L 1852.105263 192.24 
L 1822.736842 192.24 
L 1793.368421 192.24 
L 1764 192.24 
L 1734.631579 192.24 
L 1705.263158 192.24 
L 1675.894737 192.24 
L 1646.526316 192.24 
L 1617.157895 192.24 
L 1587.789474 192.24 
L 1558.421053 192.24 
L 1529.052632 192.24 
L 1499.684211 192.24 
L 1470.315789 192.24 
L 1440.947368 192.24 
L 1411.578947 192.24 
L 1382.210526 192.24 
L 1352.842105 192.24 
L 1323.473684 192.24 
L 1294.105263 192.24 
L 1264.736842 192.130235 
L 1235.368421 191.921861 
L 1206 191.615274 
L 1176.631579 191.218179 
L 1147.263158 190.674132 
L 1117.894737 190.30641 
L 1088.526316 189.854713 
L 1059.157895 189.371511 
L 1029.789474 188.790455 
L 1000.421053 188.096506 
L 971.052632 187.490235 
L 941.684211 187.043061 
L 912.315789 186.416801 
L 882.947368 185.980055 
L 853.578947 185.624079 
L 824.210526 185.235639 
L 794.842105 184.893276 
L 765.473684 184.558047 
L 736.105263 184.306224 
L 706.736842 183.942707 
L 677.368421 183.60604 
L 648 183.287087 
L 618.631579 182.865205 
L 589.263158 182.583563 
L 559.894737 182.305531 
L 530.526316 182.057477 
L 501.157895 181.815327 
L 471.789474 181.541902 
L 442.421053 181.185333 
L 413.052632 180.821298 
L 383.684211 180.376102 
L 354.315789 179.81663 
L 324.947368 179.199718 
L 295.578947 178.419665 
L 266.210526 177.528635 
L 236.842105 176.546104 
L 207.473684 175.538838 
L 178.105263 174.260861 
L 148.736842 172.74857 
L 119.368421 170.771216 
L 90 181.728092 
z
" clip-path="url(#pef777dcb33)" style="fill: #4682b4"/>
   </g>
   <g id="PolyCollection_4">
    <path d="M 90 179.80092 
L 90 181.728092 
L 119.368421 170.771216 
L 148.736842 172.74857 
L 178.105263 174.260861 
L 207.473684 175.538838 
L 236.842105 176.546104 
L 266.210526 177.528635 
L 295.578947 178.419665 
L 324.947368 179.199718 
L 354.315789 179.81663 
L 383.684211 180.376102 
L 413.052632 180.821298 
L 442.421053 181.185333 
L 471.789474 181.541902 
L 501.157895 181.815327 
L 530.526316 182.057477 
L 559.894737 182.305531 
L 589.263158 182.583563 
L 618.631579 182.865205 
L 648 183.287087 
L 677.368421 183.60604 
L 706.736842 183.942707 
L 736.105263 184.306224 
L 765.473684 184.558047 
L 794.842105 184.893276 
L 824.210526 185.235639 
L 853.578947 185.624079 
L 882.947368 185.980055 
L 912.315789 186.416801 
L 941.684211 187.043061 
L 971.052632 187.490235 
L 1000.421053 188.096506 
L 1029.789474 188.790455 
L 1059.157895 189.371511 
L 1088.526316 189.854713 
L 1117.894737 190.30641 
L 1147.263158 190.674132 
L 1176.631579 191.218179 
L 1206 191.615274 
L 1235.368421 191.921861 
L 1264.736842 192.130235 
L 1294.105263 192.24 
L 1323.473684 192.24 
L 1352.842105 192.24 
L 1382.210526 192.24 
L 1411.578947 192.24 
L 1440.947368 192.24 
L 1470.315789 192.24 
L 1499.684211 192.24 
L 1529.052632 192.24 
L 1558.421053 192.24 
L 1587.789474 192.24 
L 1617.157895 192.24 
L 1646.526316 192.24 
L 1675.894737 192.24 
L 1705.263158 192.24 
L 1734.631579 192.24 
L 1764 192.24 
L 1793.368421 192.24 
L 1822.736842 192.24 
L 1852.105263 192.24 
L 1881.473684 192.24 
L 1910.842105 192.24 
L 1940.210526 192.24 
L 1969.578947 192.24 
L 1998.947368 192.24 
L 2028.315789 192.24 
L 2057.684211 192.24 
L 2087.052632 192.24 
L 2116.421053 192.24 
L 2145.789474 192.24 
L 2175.157895 192.24 
L 2204.526316 192.24 
L 2233.894737 192.24 
L 2263.263158 192.24 
L 2292.631579 192.24 
L 2322 192.24 
L 2351.368421 192.24 
L 2380.736842 192.24 
L 2410.105263 192.24 
L 2410.105263 192.24 
L 2410.105263 192.24 
L 2380.736842 192.24 
L 2351.368421 192.24 
L 2322 192.24 
L 2292.631579 192.24 
L 2263.263158 192.24 
L 2233.894737 192.24 
L 2204.526316 192.24 
L 2175.157895 192.24 
L 2145.789474 192.24 
L 2116.421053 192.24 
L 2087.052632 192.24 
L 2057.684211 192.24 
L 2028.315789 192.24 
L 1998.947368 192.24 
L 1969.578947 192.24 
L 1940.210526 192.24 
L 1910.842105 192.24 
L 1881.473684 192.24 
L 1852.105263 192.24 
L 1822.736842 192.24 
L 1793.368421 192.24 
L 1764 192.24 
L 1734.631579 192.24 
L 1705.263158 192.24 
L 1675.894737 192.24 
L 1646.526316 192.24 
L 1617.157895 192.24 
L 1587.789474 192.24 
L 1558.421053 192.24 
L 1529.052632 192.194298 
L 1499.684211 192.171446 
L 1470.315789 192.125744 
L 1440.947368 192.102893 
L 1411.578947 192.05719 
L 1382.210526 192.05719 
L 1352.842105 192.034339 
L 1323.473684 192.034339 
L 1294.105263 192.034339 
L 1264.736842 191.896185 
L 1235.368421 191.674251 
L 1206 191.362967 
L 1176.631579 190.954934 
L 1147.263158 190.393111 
L 1117.894737 190.00242 
L 1088.526316 189.522167 
L 1059.157895 188.977713 
L 1029.789474 188.365561 
L 1000.421053 187.619652 
L 971.052632 186.975993 
L 941.684211 186.461916 
L 912.315789 185.779426 
L 882.947368 185.29455 
L 853.578947 184.883099 
L 824.210526 184.439844 
L 794.842105 184.052592 
L 765.473684 183.686666 
L 736.105263 183.412079 
L 706.736842 183.006733 
L 677.368421 182.623579 
L 648 182.235094 
L 618.631579 181.674453 
L 589.263158 181.298852 
L 559.894737 180.928598 
L 530.526316 180.534858 
L 501.157895 180.225441 
L 471.789474 179.859807 
L 442.421053 179.430245 
L 413.052632 178.973297 
L 383.684211 178.471723 
L 354.315789 177.769183 
L 324.947368 177.064884 
L 295.578947 176.161358 
L 266.210526 175.187242 
L 236.842105 174.092904 
L 207.473684 172.918028 
L 178.105263 171.367834 
L 148.736842 169.731881 
L 119.368421 167.613691 
L 90 179.80092 
z
" clip-path="url(#pef777dcb33)" style="fill: #ffa500"/>
   </g>
   <g id="PolyCollection_5">
    <path d="M 90 177.528076 
L 90 179.80092 
L 119.368421 167.613691 
L 148.736842 169.731881 
L 178.105263 171.367834 
L 207.473684 172.918028 
L 236.842105 174.092904 
L 266.210526 175.187242 
L 295.578947 176.161358 
L 324.947368 177.064884 
L 354.315789 177.769183 
L 383.684211 178.471723 
L 413.052632 178.973297 
L 442.421053 179.430245 
L 471.789474 179.859807 
L 501.157895 180.225441 
L 530.526316 180.534858 
L 559.894737 180.928598 
L 589.263158 181.298852 
L 618.631579 181.674453 
L 648 182.235094 
L 677.368421 182.623579 
L 706.736842 183.006733 
L 736.105263 183.412079 
L 765.473684 183.686666 
L 794.842105 184.052592 
L 824.210526 184.439844 
L 853.578947 184.883099 
L 882.947368 185.29455 
L 912.315789 185.779426 
L 941.684211 186.461916 
L 971.052632 186.975993 
L 1000.421053 187.619652 
L 1029.789474 188.365561 
L 1059.157895 188.977713 
L 1088.526316 189.522167 
L 1117.894737 190.00242 
L 1147.263158 190.393111 
L 1176.631579 190.954934 
L 1206 191.362967 
L 1235.368421 191.674251 
L 1264.736842 191.896185 
L 1294.105263 192.034339 
L 1323.473684 192.034339 
L 1352.842105 192.034339 
L 1382.210526 192.05719 
L 1411.578947 192.05719 
L 1440.947368 192.102893 
L 1470.315789 192.125744 
L 1499.684211 192.171446 
L 1529.052632 192.194298 
L 1558.421053 192.24 
L 1587.789474 192.24 
L 1617.157895 192.24 
L 1646.526316 192.24 
L 1675.894737 192.24 
L 1705.263158 192.24 
L 1734.631579 192.24 
L 1764 192.24 
L 1793.368421 192.24 
L 1822.736842 192.24 
L 1852.105263 192.24 
L 1881.473684 192.24 
L 1910.842105 192.24 
L 1940.210526 192.24 
L 1969.578947 192.24 
L 1998.947368 192.24 
L 2028.315789 192.24 
L 2057.684211 192.24 
L 2087.052632 192.24 
L 2116.421053 192.24 
L 2145.789474 192.24 
L 2175.157895 192.24 
L 2204.526316 192.24 
L 2233.894737 192.24 
L 2263.263158 192.24 
L 2292.631579 192.24 
L 2322 192.24 
L 2351.368421 192.24 
L 2380.736842 192.24 
L 2410.105263 192.24 
L 2410.105263 192.24 
L 2410.105263 192.24 
L 2380.736842 192.24 
L 2351.368421 192.24 
L 2322 192.24 
L 2292.631579 192.24 
L 2263.263158 192.24 
L 2233.894737 192.24 
L 2204.526316 192.24 
L 2175.157895 192.24 
L 2145.789474 192.24 
L 2116.421053 192.24 
L 2087.052632 192.24 
L 2057.684211 192.24 
L 2028.315789 192.24 
L 1998.947368 192.24 
L 1969.578947 192.24 
L 1940.210526 192.24 
L 1910.842105 192.24 
L 1881.473684 192.24 
L 1852.105263 192.24 
L 1822.736842 192.24 
L 1793.368421 192.24 
L 1764 192.24 
L 1734.631579 192.24 
L 1705.263158 192.24 
L 1675.894737 192.24 
L 1646.526316 192.24 
L 1617.157895 192.24 
L 1587.789474 192.24 
L 1558.421053 192.24 
L 1529.052632 192.194298 
L 1499.684211 192.171446 
L 1470.315789 192.125744 
L 1440.947368 192.102893 
L 1411.578947 192.05719 
L 1382.210526 192.05719 
L 1352.842105 192.034339 
L 1323.473684 192.034339 
L 1294.105263 192.034339 
L 1264.736842 191.887568 
L 1235.368421 191.625597 
L 1206 191.184394 
L 1176.631579 190.656231 
L 1147.263158 190.005978 
L 1117.894737 189.523107 
L 1088.526316 188.944664 
L 1059.157895 188.291595 
L 1029.789474 187.586191 
L 1000.421053 186.68088 
L 971.052632 185.888475 
L 941.684211 185.261377 
L 912.315789 184.441468 
L 882.947368 183.860014 
L 853.578947 183.368997 
L 824.210526 182.799083 
L 794.842105 182.304213 
L 765.473684 181.836748 
L 736.105263 181.417734 
L 706.736842 180.824367 
L 677.368421 180.306623 
L 648 179.76592 
L 618.631579 178.993782 
L 589.263158 178.506615 
L 559.894737 178.011971 
L 530.526316 177.530368 
L 501.157895 177.130096 
L 471.789474 176.67685 
L 442.421053 176.136922 
L 413.052632 175.431515 
L 383.684211 174.797215 
L 354.315789 173.95279 
L 324.947368 173.080747 
L 295.578947 171.927338 
L 266.210526 170.713232 
L 236.842105 169.373275 
L 207.473684 167.928781 
L 178.105263 166.002131 
L 148.736842 163.927438 
L 119.368421 161.265981 
L 90 177.528076 
z
" clip-path="url(#pef777dcb33)" style="fill: #87ceeb"/>
   </g>
   <g id="PolyCollection_6">
    <path d="M 90 170.647635 
L 90 177.528076 
L 119.368421 161.265981 
L 148.736842 163.927438 
L 178.105263 166.002131 
L 207.473684 167.928781 
L 236.842105 169.373275 
L 266.210526 170.713232 
L 295.578947 171.927338 
L 324.947368 173.080747 
L 354.315789 173.95279 
L 383.684211 174.797215 
L 413.052632 175.431515 
L 442.421053 176.136922 
L 471.789474 176.67685 
L 501.157895 177.130096 
L 530.526316 177.530368 
L 559.894737 178.011971 
L 589.263158 178.506615 
L 618.631579 178.993782 
L 648 179.76592 
L 677.368421 180.306623 
L 706.736842 180.824367 
L 736.105263 181.417734 
L 765.473684 181.836748 
L 794.842105 182.304213 
L 824.210526 182.799083 
L 853.578947 183.368997 
L 882.947368 183.860014 
L 912.315789 184.441468 
L 941.684211 185.261377 
L 971.052632 185.888475 
L 1000.421053 186.68088 
L 1029.789474 187.586191 
L 1059.157895 188.291595 
L 1088.526316 188.944664 
L 1117.894737 189.523107 
L 1147.263158 190.005978 
L 1176.631579 190.656231 
L 1206 191.184394 
L 1235.368421 191.625597 
L 1264.736842 191.887568 
L 1294.105263 192.034339 
L 1323.473684 192.034339 
L 1352.842105 192.034339 
L 1382.210526 192.05719 
L 1411.578947 192.05719 
L 1440.947368 192.102893 
L 1470.315789 192.125744 
L 1499.684211 192.171446 
L 1529.052632 192.194298 
L 1558.421053 192.24 
L 1587.789474 192.24 
L 1617.157895 192.24 
L 1646.526316 192.24 
L 1675.894737 192.24 
L 1705.263158 192.24 
L 1734.631579 192.24 
L 1764 192.24 
L 1793.368421 192.24 
L 1822.736842 192.24 
L 1852.105263 192.24 
L 1881.473684 192.24 
L 1910.842105 192.24 
L 1940.210526 192.24 
L 1969.578947 192.24 
L 1998.947368 192.24 
L 2028.315789 192.24 
L 2057.684211 192.24 
L 2087.052632 192.24 
L 2116.421053 192.24 
L 2145.789474 192.24 
L 2175.157895 192.24 
L 2204.526316 192.24 
L 2233.894737 192.24 
L 2263.263158 192.24 
L 2292.631579 192.24 
L 2322 192.24 
L 2351.368421 192.24 
L 2380.736842 192.24 
L 2410.105263 192.24 
L 2410.105263 192.24 
L 2410.105263 192.24 
L 2380.736842 192.24 
L 2351.368421 192.24 
L 2322 192.24 
L 2292.631579 192.24 
L 2263.263158 192.24 
L 2233.894737 192.24 
L 2204.526316 192.24 
L 2175.157895 192.24 
L 2145.789474 192.24 
L 2116.421053 192.24 
L 2087.052632 192.24 
L 2057.684211 192.24 
L 2028.315789 192.24 
L 1998.947368 192.24 
L 1969.578947 192.24 
L 1940.210526 192.24 
L 1910.842105 192.24 
L 1881.473684 192.24 
L 1852.105263 192.24 
L 1822.736842 192.24 
L 1793.368421 192.24 
L 1764 192.24 
L 1734.631579 192.24 
L 1705.263158 192.24 
L 1675.894737 192.24 
L 1646.526316 192.24 
L 1617.157895 192.24 
L 1587.789474 192.24 
L 1558.421053 192.24 
L 1529.052632 192.194298 
L 1499.684211 192.150246 
L 1470.315789 192.104543 
L 1440.947368 192.081692 
L 1411.578947 192.03599 
L 1382.210526 192.03599 
L 1352.842105 192.013138 
L 1323.473684 192.013138 
L 1294.105263 192.013138 
L 1264.736842 191.848086 
L 1235.368421 191.523941 
L 1206 190.971275 
L 1176.631579 190.303633 
L 1147.263158 189.510766 
L 1117.894737 188.867216 
L 1088.526316 188.148959 
L 1059.157895 187.376974 
L 1029.789474 186.401226 
L 1000.421053 185.250109 
L 971.052632 184.364723 
L 941.684211 183.537679 
L 912.315789 182.486269 
L 882.947368 181.69893 
L 853.578947 181.040383 
L 824.210526 180.147525 
L 794.842105 179.407387 
L 765.473684 178.655622 
L 736.105263 177.908354 
L 706.736842 177.021747 
L 677.368421 176.171821 
L 648 175.39959 
L 618.631579 174.294366 
L 589.263158 173.599179 
L 559.894737 172.742229 
L 530.526316 171.847547 
L 501.157895 171.174935 
L 471.789474 170.211866 
L 442.421053 169.387053 
L 413.052632 168.388436 
L 383.684211 167.508065 
L 354.315789 166.383093 
L 324.947368 165.216067 
L 295.578947 163.695135 
L 266.210526 162.040633 
L 236.842105 160.28611 
L 207.473684 158.48819 
L 178.105263 155.793278 
L 148.736842 153.200492 
L 119.368421 149.765385 
L 90 170.647635 
z
" clip-path="url(#pef777dcb33)" style="fill: #00bfff"/>
   </g>
   <g id="PolyCollection_7">
    <path d="M 90 165.072992 
L 90 170.647635 
L 119.368421 149.765385 
L 148.736842 153.200492 
L 178.105263 155.793278 
L 207.473684 158.48819 
L 236.842105 160.28611 
L 266.210526 162.040633 
L 295.578947 163.695135 
L 324.947368 165.216067 
L 354.315789 166.383093 
L 383.684211 167.508065 
L 413.052632 168.388436 
L 442.421053 169.387053 
L 471.789474 170.211866 
L 501.157895 171.174935 
L 530.526316 171.847547 
L 559.894737 172.742229 
L 589.263158 173.599179 
L 618.631579 174.294366 
L 648 175.39959 
L 677.368421 176.171821 
L 706.736842 177.021747 
L 736.105263 177.908354 
L 765.473684 178.655622 
L 794.842105 179.407387 
L 824.210526 180.147525 
L 853.578947 181.040383 
L 882.947368 181.69893 
L 912.315789 182.486269 
L 941.684211 183.537679 
L 971.052632 184.364723 
L 1000.421053 185.250109 
L 1029.789474 186.401226 
L 1059.157895 187.376974 
L 1088.526316 188.148959 
L 1117.894737 188.867216 
L 1147.263158 189.510766 
L 1176.631579 190.303633 
L 1206 190.971275 
L 1235.368421 191.523941 
L 1264.736842 191.848086 
L 1294.105263 192.013138 
L 1323.473684 192.013138 
L 1352.842105 192.013138 
L 1382.210526 192.03599 
L 1411.578947 192.03599 
L 1440.947368 192.081692 
L 1470.315789 192.104543 
L 1499.684211 192.150246 
L 1529.052632 192.194298 
L 1558.421053 192.24 
L 1587.789474 192.24 
L 1617.157895 192.24 
L 1646.526316 192.24 
L 1675.894737 192.24 
L 1705.263158 192.24 
L 1734.631579 192.24 
L 1764 192.24 
L 1793.368421 192.24 
L 1822.736842 192.24 
L 1852.105263 192.24 
L 1881.473684 192.24 
L 1910.842105 192.24 
L 1940.210526 192.24 
L 1969.578947 192.24 
L 1998.947368 192.24 
L 2028.315789 192.24 
L 2057.684211 192.24 
L 2087.052632 192.24 
L 2116.421053 192.24 
L 2145.789474 192.24 
L 2175.157895 192.24 
L 2204.526316 192.24 
L 2233.894737 192.24 
L 2263.263158 192.24 
L 2292.631579 192.24 
L 2322 192.24 
L 2351.368421 192.24 
L 2380.736842 192.24 
L 2410.105263 192.24 
L 2410.105263 192.24 
L 2410.105263 192.24 
L 2380.736842 192.24 
L 2351.368421 192.24 
L 2322 192.24 
L 2292.631579 192.24 
L 2263.263158 192.24 
L 2233.894737 192.24 
L 2204.526316 192.24 
L 2175.157895 192.24 
L 2145.789474 192.24 
L 2116.421053 192.24 
L 2087.052632 192.24 
L 2057.684211 192.24 
L 2028.315789 192.24 
L 1998.947368 192.24 
L 1969.578947 192.24 
L 1940.210526 192.24 
L 1910.842105 192.24 
L 1881.473684 192.24 
L 1852.105263 192.24 
L 1822.736842 192.24 
L 1793.368421 192.24 
L 1764 192.24 
L 1734.631579 192.24 
L 1705.263158 192.24 
L 1675.894737 192.24 
L 1646.526316 192.24 
L 1617.157895 192.24 
L 1587.789474 192.24 
L 1558.421053 192.24 
L 1529.052632 192.194298 
L 1499.684211 192.150246 
L 1470.315789 192.104543 
L 1440.947368 192.081692 
L 1411.578947 192.03599 
L 1382.210526 192.03599 
L 1352.842105 192.013138 
L 1323.473684 192.013138 
L 1294.105263 192.013138 
L 1264.736842 191.831091 
L 1235.368421 191.485458 
L 1206 190.841356 
L 1176.631579 190.114195 
L 1147.263158 189.286966 
L 1117.894737 188.604181 
L 1088.526316 187.786518 
L 1059.157895 186.884356 
L 1029.789474 185.786668 
L 1000.421053 184.45147 
L 971.052632 183.281824 
L 941.684211 182.185097 
L 912.315789 180.837713 
L 882.947368 179.868161 
L 853.578947 178.943971 
L 824.210526 177.846006 
L 794.842105 176.846631 
L 765.473684 175.82057 
L 736.105263 174.85272 
L 706.736842 173.78083 
L 677.368421 172.735449 
L 648 171.812169 
L 618.631579 170.501795 
L 589.263158 169.688427 
L 559.894737 168.517903 
L 530.526316 167.421866 
L 501.157895 166.572699 
L 471.789474 165.346587 
L 442.421053 164.241439 
L 413.052632 163.005708 
L 383.684211 161.903152 
L 354.315789 160.547441 
L 324.947368 159.062673 
L 295.578947 157.021916 
L 266.210526 154.884868 
L 236.842105 152.678002 
L 207.473684 150.344514 
L 178.105263 146.681137 
L 148.736842 143.233802 
L 119.368421 138.831747 
L 90 165.072992 
z
" clip-path="url(#pef777dcb33)" style="fill: #add8e6"/>
   </g>
   <g id="PolyCollection_8">
    <path d="M 90 159.854605 
L 90 165.072992 
L 119.368421 138.831747 
L 148.736842 143.233802 
L 178.105263 146.681137 
L 207.473684 150.344514 
L 236.842105 152.678002 
L 266.210526 154.884868 
L 295.578947 157.021916 
L 324.947368 159.062673 
L 354.315789 160.547441 
L 383.684211 161.903152 
L 413.052632 163.005708 
L 442.421053 164.241439 
L 471.789474 165.346587 
L 501.157895 166.572699 
L 530.526316 167.421866 
L 559.894737 168.517903 
L 589.263158 169.688427 
L 618.631579 170.501795 
L 648 171.812169 
L 677.368421 172.735449 
L 706.736842 173.78083 
L 736.105263 174.85272 
L 765.473684 175.82057 
L 794.842105 176.846631 
L 824.210526 177.846006 
L 853.578947 178.943971 
L 882.947368 179.868161 
L 912.315789 180.837713 
L 941.684211 182.185097 
L 971.052632 183.281824 
L 1000.421053 184.45147 
L 1029.789474 185.786668 
L 1059.157895 186.884356 
L 1088.526316 187.786518 
L 1117.894737 188.604181 
L 1147.263158 189.286966 
L 1176.631579 190.114195 
L 1206 190.841356 
L 1235.368421 191.485458 
L 1264.736842 191.831091 
L 1294.105263 192.013138 
L 1323.473684 192.013138 
L 1352.842105 192.013138 
L 1382.210526 192.03599 
L 1411.578947 192.03599 
L 1440.947368 192.081692 
L 1470.315789 192.104543 
L 1499.684211 192.150246 
L 1529.052632 192.194298 
L 1558.421053 192.24 
L 1587.789474 192.24 
L 1617.157895 192.24 
L 1646.526316 192.24 
L 1675.894737 192.24 
L 1705.263158 192.24 
L 1734.631579 192.24 
L 1764 192.24 
L 1793.368421 192.24 
L 1822.736842 192.24 
L 1852.105263 192.24 
L 1881.473684 192.24 
L 1910.842105 192.24 
L 1940.210526 192.24 
L 1969.578947 192.24 
L 1998.947368 192.24 
L 2028.315789 192.24 
L 2057.684211 192.24 
L 2087.052632 192.24 
L 2116.421053 192.24 
L 2145.789474 192.24 
L 2175.157895 192.24 
L 2204.526316 192.24 
L 2233.894737 192.24 
L 2263.263158 192.24 
L 2292.631579 192.24 
L 2322 192.24 
L 2351.368421 192.24 
L 2380.736842 192.24 
L 2410.105263 192.24 
L 2410.105263 192.24 
L 2410.105263 192.24 
L 2380.736842 192.24 
L 2351.368421 192.24 
L 2322 192.24 
L 2292.631579 192.24 
L 2263.263158 192.24 
L 2233.894737 192.24 
L 2204.526316 192.24 
L 2175.157895 192.24 
L 2145.789474 192.24 
L 2116.421053 192.24 
L 2087.052632 192.24 
L 2057.684211 192.24 
L 2028.315789 192.24 
L 1998.947368 192.24 
L 1969.578947 192.24 
L 1940.210526 192.24 
L 1910.842105 192.24 
L 1881.473684 192.24 
L 1852.105263 192.24 
L 1822.736842 192.24 
L 1793.368421 192.24 
L 1764 192.24 
L 1734.631579 192.24 
L 1705.263158 192.24 
L 1675.894737 192.24 
L 1646.526316 192.24 
L 1617.157895 192.24 
L 1587.789474 192.24 
L 1558.421053 192.24 
L 1529.052632 192.194298 
L 1499.684211 192.150246 
L 1470.315789 192.104543 
L 1440.947368 192.081692 
L 1411.578947 192.03599 
L 1382.210526 192.03599 
L 1352.842105 192.013138 
L 1323.473684 192.013138 
L 1294.105263 192.013138 
L 1264.736842 191.739892 
L 1235.368421 191.144627 
L 1206 190.222914 
L 1176.631579 189.058563 
L 1147.263158 187.98018 
L 1117.894737 186.932999 
L 1088.526316 185.829559 
L 1059.157895 184.557267 
L 1029.789474 183.166056 
L 1000.421053 181.625149 
L 971.052632 180.197931 
L 941.684211 178.775378 
L 912.315789 177.28024 
L 882.947368 176.210148 
L 853.578947 175.139475 
L 824.210526 173.936039 
L 794.842105 172.791731 
L 765.473684 171.691253 
L 736.105263 170.63114 
L 706.736842 169.50524 
L 677.368421 168.328957 
L 648 167.341817 
L 618.631579 165.819543 
L 589.263158 164.792492 
L 559.894737 163.539328 
L 530.526316 162.283148 
L 501.157895 161.263924 
L 471.789474 159.909017 
L 442.421053 158.653419 
L 413.052632 157.229352 
L 383.684211 155.969553 
L 354.315789 154.410929 
L 324.947368 152.693048 
L 295.578947 150.39493 
L 266.210526 148.005773 
L 236.842105 145.560325 
L 207.473684 142.944286 
L 178.105263 138.926639 
L 148.736842 135.042248 
L 119.368421 130.179668 
L 90 159.854605 
z
" clip-path="url(#pef777dcb33)" style="fill: #b0e0e6"/>
   </g>
   <g id="PolyCollection_9">
    <path d="M 90 122.701333 
L 90 159.854605 
L 119.368421 130.179668 
L 148.736842 135.042248 
L 178.105263 138.926639 
L 207.473684 142.944286 
L 236.842105 145.560325 
L 266.210526 148.005773 
L 295.578947 150.39493 
L 324.947368 152.693048 
L 354.315789 154.410929 
L 383.684211 155.969553 
L 413.052632 157.229352 
L 442.421053 158.653419 
L 471.789474 159.909017 
L 501.157895 161.263924 
L 530.526316 162.283148 
L 559.894737 163.539328 
L 589.263158 164.792492 
L 618.631579 165.819543 
L 648 167.341817 
L 677.368421 168.328957 
L 706.736842 169.50524 
L 736.105263 170.63114 
L 765.473684 171.691253 
L 794.842105 172.791731 
L 824.210526 173.936039 
L 853.578947 175.139475 
L 882.947368 176.210148 
L 912.315789 177.28024 
L 941.684211 178.775378 
L 971.052632 180.197931 
L 1000.421053 181.625149 
L 1029.789474 183.166056 
L 1059.157895 184.557267 
L 1088.526316 185.829559 
L 1117.894737 186.932999 
L 1147.263158 187.98018 
L 1176.631579 189.058563 
L 1206 190.222914 
L 1235.368421 191.144627 
L 1264.736842 191.739892 
L 1294.105263 192.013138 
L 1323.473684 192.013138 
L 1352.842105 192.013138 
L 1382.210526 192.03599 
L 1411.578947 192.03599 
L 1440.947368 192.081692 
L 1470.315789 192.104543 
L 1499.684211 192.150246 
L 1529.052632 192.194298 
L 1558.421053 192.24 
L 1587.789474 192.24 
L 1617.157895 192.24 
L 1646.526316 192.24 
L 1675.894737 192.24 
L 1705.263158 192.24 
L 1734.631579 192.24 
L 1764 192.24 
L 1793.368421 192.24 
L 1822.736842 192.24 
L 1852.105263 192.24 
L 1881.473684 192.24 
L 1910.842105 192.24 
L 1940.210526 192.24 
L 1969.578947 192.24 
L 1998.947368 192.24 
L 2028.315789 192.24 
L 2057.684211 192.24 
L 2087.052632 192.24 
L 2116.421053 192.24 
L 2145.789474 192.24 
L 2175.157895 192.24 
L 2204.526316 192.24 
L 2233.894737 192.24 
L 2263.263158 192.24 
L 2292.631579 192.24 
L 2322 192.24 
L 2351.368421 192.24 
L 2380.736842 192.24 
L 2410.105263 192.24 
L 2410.105263 192.24 
L 2410.105263 192.24 
L 2380.736842 192.24 
L 2351.368421 192.24 
L 2322 192.24 
L 2292.631579 192.24 
L 2263.263158 192.24 
L 2233.894737 192.24 
L 2204.526316 192.24 
L 2175.157895 192.24 
L 2145.789474 192.24 
L 2116.421053 192.24 
L 2087.052632 192.24 
L 2057.684211 192.24 
L 2028.315789 192.24 
L 1998.947368 192.24 
L 1969.578947 192.24 
L 1940.210526 192.24 
L 1910.842105 192.24 
L 1881.473684 192.24 
L 1852.105263 192.24 
L 1822.736842 192.24 
L 1793.368421 192.24 
L 1764 192.24 
L 1734.631579 192.24 
L 1705.263158 192.24 
L 1675.894737 192.24 
L 1646.526316 192.24 
L 1617.157895 192.24 
L 1587.789474 192.24 
L 1558.421053 192.24 
L 1529.052632 192.194298 
L 1499.684211 192.150246 
L 1470.315789 192.104543 
L 1440.947368 192.081692 
L 1411.578947 192.03599 
L 1382.210526 192.03599 
L 1352.842105 192.013138 
L 1323.473684 192.013138 
L 1294.105263 192.013138 
L 1264.736842 191.498939 
L 1235.368421 190.026664 
L 1206 187.780456 
L 1176.631579 185.037953 
L 1147.263158 182.819775 
L 1117.894737 180.393592 
L 1088.526316 177.647219 
L 1059.157895 173.959725 
L 1029.789474 170.817742 
L 1000.421053 167.173913 
L 971.052632 163.423376 
L 941.684211 158.998211 
L 912.315789 154.307184 
L 882.947368 150.294952 
L 853.578947 146.046782 
L 824.210526 140.943564 
L 794.842105 135.8342 
L 765.473684 132.129624 
L 736.105263 129.251522 
L 706.736842 126.904533 
L 677.368421 124.977703 
L 648 123.090893 
L 618.631579 120.459546 
L 589.263158 118.682977 
L 559.894737 116.56706 
L 530.526316 114.530621 
L 501.157895 112.669719 
L 471.789474 110.700412 
L 442.421053 108.856087 
L 413.052632 106.866992 
L 383.684211 104.888469 
L 354.315789 102.633653 
L 324.947368 100.275549 
L 295.578947 97.314537 
L 266.210526 94.15223 
L 236.842105 90.988886 
L 207.473684 87.601549 
L 178.105263 82.740441 
L 148.736842 77.876769 
L 119.368421 71.653518 
L 90 122.701333 
z
" clip-path="url(#pef777dcb33)" style="fill: #008000"/>
   </g>
   <g id="PolyCollection_10">
    <path d="M 90 110.465949 
L 90 122.701333 
L 119.368421 71.653518 
L 148.736842 77.876769 
L 178.105263 82.740441 
L 207.473684 87.601549 
L 236.842105 90.988886 
L 266.210526 94.15223 
L 295.578947 97.314537 
L 324.947368 100.275549 
L 354.315789 102.633653 
L 383.684211 104.888469 
L 413.052632 106.866992 
L 442.421053 108.856087 
L 471.789474 110.700412 
L 501.157895 112.669719 
L 530.526316 114.530621 
L 559.894737 116.56706 
L 589.263158 118.682977 
L 618.631579 120.459546 
L 648 123.090893 
L 677.368421 124.977703 
L 706.736842 126.904533 
L 736.105263 129.251522 
L 765.473684 132.129624 
L 794.842105 135.8342 
L 824.210526 140.943564 
L 853.578947 146.046782 
L 882.947368 150.294952 
L 912.315789 154.307184 
L 941.684211 158.998211 
L 971.052632 163.423376 
L 1000.421053 167.173913 
L 1029.789474 170.817742 
L 1059.157895 173.959725 
L 1088.526316 177.647219 
L 1117.894737 180.393592 
L 1147.263158 182.819775 
L 1176.631579 185.037953 
L 1206 187.780456 
L 1235.368421 190.026664 
L 1264.736842 191.498939 
L 1294.105263 192.013138 
L 1323.473684 192.013138 
L 1352.842105 192.013138 
L 1382.210526 192.03599 
L 1411.578947 192.03599 
L 1440.947368 192.081692 
L 1470.315789 192.104543 
L 1499.684211 192.150246 
L 1529.052632 192.194298 
L 1558.421053 192.24 
L 1587.789474 192.24 
L 1617.157895 192.24 
L 1646.526316 192.24 
L 1675.894737 192.24 
L 1705.263158 192.24 
L 1734.631579 192.24 
L 1764 192.24 
L 1793.368421 192.24 
L 1822.736842 192.24 
L 1852.105263 192.24 
L 1881.473684 192.24 
L 1910.842105 192.24 
L 1940.210526 192.24 
L 1969.578947 192.24 
L 1998.947368 192.24 
L 2028.315789 192.24 
L 2057.684211 192.24 
L 2087.052632 192.24 
L 2116.421053 192.24 
L 2145.789474 192.24 
L 2175.157895 192.24 
L 2204.526316 192.24 
L 2233.894737 192.24 
L 2263.263158 192.24 
L 2292.631579 192.24 
L 2322 192.24 
L 2351.368421 192.24 
L 2380.736842 192.24 
L 2410.105263 192.24 
L 2410.105263 192.24 
L 2410.105263 192.24 
L 2380.736842 192.24 
L 2351.368421 192.24 
L 2322 192.24 
L 2292.631579 192.24 
L 2263.263158 192.24 
L 2233.894737 192.24 
L 2204.526316 192.24 
L 2175.157895 192.24 
L 2145.789474 192.24 
L 2116.421053 192.24 
L 2087.052632 192.24 
L 2057.684211 192.24 
L 2028.315789 192.24 
L 1998.947368 192.24 
L 1969.578947 192.24 
L 1940.210526 192.24 
L 1910.842105 192.24 
L 1881.473684 192.24 
L 1852.105263 192.24 
L 1822.736842 192.24 
L 1793.368421 192.24 
L 1764 192.24 
L 1734.631579 192.24 
L 1705.263158 192.24 
L 1675.894737 192.24 
L 1646.526316 192.24 
L 1617.157895 192.24 
L 1587.789474 192.24 
L 1558.421053 192.24 
L 1529.052632 192.194298 
L 1499.684211 192.150246 
L 1470.315789 192.104543 
L 1440.947368 192.081692 
L 1411.578947 192.03599 
L 1382.210526 192.03599 
L 1352.842105 192.013138 
L 1323.473684 192.013138 
L 1294.105263 192.013138 
L 1264.736842 191.413247 
L 1235.368421 189.640479 
L 1206 187.297867 
L 1176.631579 184.179544 
L 1147.263158 181.617664 
L 1117.894737 178.724267 
L 1088.526316 175.043278 
L 1059.157895 170.26189 
L 1029.789474 165.976769 
L 1000.421053 161.279275 
L 971.052632 156.451877 
L 941.684211 151.082945 
L 912.315789 145.558429 
L 882.947368 141.045884 
L 853.578947 136.374851 
L 824.210526 130.842795 
L 794.842105 125.434384 
L 765.473684 121.440371 
L 736.105263 118.41119 
L 706.736842 115.890218 
L 677.368421 113.773475 
L 648 111.733254 
L 618.631579 108.880368 
L 589.263158 106.864695 
L 559.894737 104.533741 
L 530.526316 102.292683 
L 501.157895 100.257088 
L 471.789474 98.026903 
L 442.421053 95.896527 
L 413.052632 93.731259 
L 383.684211 91.515792 
L 354.315789 89.026251 
L 324.947368 86.378689 
L 295.578947 83.014318 
L 266.210526 79.479126 
L 236.842105 75.985947 
L 207.473684 72.255677 
L 178.105263 67.093629 
L 148.736842 61.821627 
L 119.368421 55.16117 
L 90 110.465949 
z
" clip-path="url(#pef777dcb33)" style="fill: #00ced1"/>
   </g>
   <g id="PolyCollection_11">
    <path d="M 90 109.78733 
L 90 110.465949 
L 119.368421 55.16117 
L 148.736842 61.821627 
L 178.105263 67.093629 
L 207.473684 72.255677 
L 236.842105 75.985947 
L 266.210526 79.479126 
L 295.578947 83.014318 
L 324.947368 86.378689 
L 354.315789 89.026251 
L 383.684211 91.515792 
L 413.052632 93.731259 
L 442.421053 95.896527 
L 471.789474 98.026903 
L 501.157895 100.257088 
L 530.526316 102.292683 
L 559.894737 104.533741 
L 589.263158 106.864695 
L 618.631579 108.880368 
L 648 111.733254 
L 677.368421 113.773475 
L 706.736842 115.890218 
L 736.105263 118.41119 
L 765.473684 121.440371 
L 794.842105 125.434384 
L 824.210526 130.842795 
L 853.578947 136.374851 
L 882.947368 141.045884 
L 912.315789 145.558429 
L 941.684211 151.082945 
L 971.052632 156.451877 
L 1000.421053 161.279275 
L 1029.789474 165.976769 
L 1059.157895 170.26189 
L 1088.526316 175.043278 
L 1117.894737 178.724267 
L 1147.263158 181.617664 
L 1176.631579 184.179544 
L 1206 187.297867 
L 1235.368421 189.640479 
L 1264.736842 191.413247 
L 1294.105263 192.013138 
L 1323.473684 192.013138 
L 1352.842105 192.013138 
L 1382.210526 192.03599 
L 1411.578947 192.03599 
L 1440.947368 192.081692 
L 1470.315789 192.104543 
L 1499.684211 192.150246 
L 1529.052632 192.194298 
L 1558.421053 192.24 
L 1587.789474 192.24 
L 1617.157895 192.24 
L 1646.526316 192.24 
L 1675.894737 192.24 
L 1705.263158 192.24 
L 1734.631579 192.24 
L 1764 192.24 
L 1793.368421 192.24 
L 1822.736842 192.24 
L 1852.105263 192.24 
L 1881.473684 192.24 
L 1910.842105 192.24 
L 1940.210526 192.24 
L 1969.578947 192.24 
L 1998.947368 192.24 
L 2028.315789 192.24 
L 2057.684211 192.24 
L 2087.052632 192.24 
L 2116.421053 192.24 
L 2145.789474 192.24 
L 2175.157895 192.24 
L 2204.526316 192.24 
L 2233.894737 192.24 
L 2263.263158 192.24 
L 2292.631579 192.24 
L 2322 192.24 
L 2351.368421 192.24 
L 2380.736842 192.24 
L 2410.105263 192.24 
L 2410.105263 192.24 
L 2410.105263 192.24 
L 2380.736842 192.24 
L 2351.368421 192.24 
L 2322 192.24 
L 2292.631579 192.24 
L 2263.263158 192.24 
L 2233.894737 192.24 
L 2204.526316 192.24 
L 2175.157895 192.24 
L 2145.789474 192.24 
L 2116.421053 192.24 
L 2087.052632 192.24 
L 2057.684211 192.24 
L 2028.315789 192.24 
L 1998.947368 192.24 
L 1969.578947 192.24 
L 1940.210526 192.24 
L 1910.842105 192.24 
L 1881.473684 192.24 
L 1852.105263 192.24 
L 1822.736842 192.24 
L 1793.368421 192.24 
L 1764 192.24 
L 1734.631579 192.24 
L 1705.263158 192.24 
L 1675.894737 192.24 
L 1646.526316 192.24 
L 1617.157895 192.24 
L 1587.789474 192.24 
L 1558.421053 192.24 
L 1529.052632 192.194298 
L 1499.684211 192.150246 
L 1470.315789 192.104543 
L 1440.947368 192.081692 
L 1411.578947 192.03599 
L 1382.210526 192.03599 
L 1352.842105 192.013138 
L 1323.473684 192.013138 
L 1294.105263 192.013138 
L 1264.736842 191.413247 
L 1235.368421 189.639765 
L 1206 187.297153 
L 1176.631579 184.167764 
L 1147.263158 181.601476 
L 1117.894737 178.704461 
L 1088.526316 175.003403 
L 1059.157895 170.213412 
L 1029.789474 165.919648 
L 1000.421053 161.18716 
L 971.052632 156.31057 
L 941.684211 150.878558 
L 912.315789 145.327115 
L 882.947368 140.779956 
L 853.578947 136.095888 
L 824.210526 130.551603 
L 794.842105 125.132266 
L 765.473684 121.127458 
L 736.105263 118.052249 
L 706.736842 115.512851 
L 677.368421 113.363676 
L 648 111.301529 
L 618.631579 108.355777 
L 589.263158 106.317617 
L 559.894737 103.951259 
L 530.526316 101.671619 
L 501.157895 99.582305 
L 471.789474 97.308986 
L 442.421053 95.149456 
L 413.052632 92.948082 
L 383.684211 90.695618 
L 354.315789 88.174358 
L 324.947368 85.488285 
L 295.578947 82.079062 
L 266.210526 78.490796 
L 236.842105 74.940109 
L 207.473684 71.144899 
L 178.105263 65.907921 
L 148.736842 60.477606 
L 119.368421 53.592089 
L 90 109.78733 
z
" clip-path="url(#pef777dcb33)" style="fill: #00ffff"/>
   </g>
   <g id="PolyCollection_12">
    <path d="M 90 96.279849 
L 90 109.78733 
L 119.368421 53.592089 
L 148.736842 60.477606 
L 178.105263 65.907921 
L 207.473684 71.144899 
L 236.842105 74.940109 
L 266.210526 78.490796 
L 295.578947 82.079062 
L 324.947368 85.488285 
L 354.315789 88.174358 
L 383.684211 90.695618 
L 413.052632 92.948082 
L 442.421053 95.149456 
L 471.789474 97.308986 
L 501.157895 99.582305 
L 530.526316 101.671619 
L 559.894737 103.951259 
L 589.263158 106.317617 
L 618.631579 108.355777 
L 648 111.301529 
L 677.368421 113.363676 
L 706.736842 115.512851 
L 736.105263 118.052249 
L 765.473684 121.127458 
L 794.842105 125.132266 
L 824.210526 130.551603 
L 853.578947 136.095888 
L 882.947368 140.779956 
L 912.315789 145.327115 
L 941.684211 150.878558 
L 971.052632 156.31057 
L 1000.421053 161.18716 
L 1029.789474 165.919648 
L 1059.157895 170.213412 
L 1088.526316 175.003403 
L 1117.894737 178.704461 
L 1147.263158 181.601476 
L 1176.631579 184.167764 
L 1206 187.297153 
L 1235.368421 189.639765 
L 1264.736842 191.413247 
L 1294.105263 192.013138 
L 1323.473684 192.013138 
L 1352.842105 192.013138 
L 1382.210526 192.03599 
L 1411.578947 192.03599 
L 1440.947368 192.081692 
L 1470.315789 192.104543 
L 1499.684211 192.150246 
L 1529.052632 192.194298 
L 1558.421053 192.24 
L 1587.789474 192.24 
L 1617.157895 192.24 
L 1646.526316 192.24 
L 1675.894737 192.24 
L 1705.263158 192.24 
L 1734.631579 192.24 
L 1764 192.24 
L 1793.368421 192.24 
L 1822.736842 192.24 
L 1852.105263 192.24 
L 1881.473684 192.24 
L 1910.842105 192.24 
L 1940.210526 192.24 
L 1969.578947 192.24 
L 1998.947368 192.24 
L 2028.315789 192.24 
L 2057.684211 192.24 
L 2087.052632 192.24 
L 2116.421053 192.24 
L 2145.789474 192.24 
L 2175.157895 192.24 
L 2204.526316 192.24 
L 2233.894737 192.24 
L 2263.263158 192.24 
L 2292.631579 192.24 
L 2322 192.24 
L 2351.368421 192.24 
L 2380.736842 192.24 
L 2410.105263 192.24 
L 2410.105263 192.24 
L 2410.105263 192.24 
L 2380.736842 192.24 
L 2351.368421 192.24 
L 2322 192.24 
L 2292.631579 192.24 
L 2263.263158 192.24 
L 2233.894737 192.24 
L 2204.526316 192.24 
L 2175.157895 192.24 
L 2145.789474 192.24 
L 2116.421053 192.24 
L 2087.052632 192.24 
L 2057.684211 192.24 
L 2028.315789 192.24 
L 1998.947368 192.24 
L 1969.578947 192.24 
L 1940.210526 192.24 
L 1910.842105 192.24 
L 1881.473684 192.24 
L 1852.105263 192.24 
L 1822.736842 192.24 
L 1793.368421 192.24 
L 1764 192.24 
L 1734.631579 192.24 
L 1705.263158 192.24 
L 1675.894737 192.24 
L 1646.526316 192.24 
L 1617.157895 192.24 
L 1587.789474 192.24 
L 1558.421053 192.24 
L 1529.052632 192.194298 
L 1499.684211 192.150246 
L 1470.315789 192.104543 
L 1440.947368 192.081692 
L 1411.578947 192.03599 
L 1382.210526 192.03599 
L 1352.842105 192.013138 
L 1323.473684 192.013138 
L 1294.105263 192.013138 
L 1264.736842 191.348486 
L 1235.368421 189.462573 
L 1206 186.995993 
L 1176.631579 183.718449 
L 1147.263158 180.822172 
L 1117.894737 177.733138 
L 1088.526316 173.783766 
L 1059.157895 168.806009 
L 1029.789474 164.29584 
L 1000.421053 159.319606 
L 971.052632 154.085113 
L 941.684211 148.280535 
L 912.315789 142.358141 
L 882.947368 137.481385 
L 853.578947 132.560704 
L 824.210526 126.803068 
L 794.842105 121.136448 
L 765.473684 116.82841 
L 736.105263 113.267254 
L 706.736842 109.856043 
L 677.368421 106.60097 
L 648 103.833515 
L 618.631579 100.293588 
L 589.263158 97.919818 
L 559.894737 95.459331 
L 530.526316 93.025605 
L 501.157895 90.732751 
L 471.789474 88.013147 
L 442.421053 85.603913 
L 413.052632 83.206115 
L 383.684211 80.590428 
L 354.315789 77.672207 
L 324.947368 74.266485 
L 295.578947 70.28103 
L 266.210526 65.322486 
L 236.842105 60.917139 
L 207.473684 56.390872 
L 178.105263 49.806638 
L 148.736842 42.958284 
L 119.368421 33.84 
L 90 96.279849 
z
" clip-path="url(#pef777dcb33)" style="fill: #ff0000"/>
   </g>
   <g id="matplotlib.axis_1">
    <g id="xtick_1">
     <g id="line2d_1">
      <defs>
       <path id="m5945d1641c" d="M 0 0 
L 0 3.5 
" style="stroke: #000000; stroke-width: 0.8"/>
      </defs>
      <g>
       <use xlink:href="#m5945d1641c" x="134.052632" y="192.24" style="stroke: #000000; stroke-width: 0.8"/>
      </g>
     </g>
     <g id="text_1">
      <!-- 2022.5 -->
      <g transform="translate(116.557319 206.838437) scale(0.1 -0.1)">
       <defs>
        <path id="DejaVuSans-32" d="M 1228 531 
L 3431 531 
L 3431 0 
L 469 0 
L 469 531 
Q 828 903 1448 1529 
Q 2069 2156 2228 2338 
Q 2531 2678 2651 2914 
Q 2772 3150 2772 3378 
Q 2772 3750 2511 3984 
Q 2250 4219 1831 4219 
Q 1534 4219 1204 4116 
Q 875 4013 500 3803 
L 500 4441 
Q 881 4594 1212 4672 
Q 1544 4750 1819 4750 
Q 2544 4750 2975 4387 
Q 3406 4025 3406 3419 
Q 3406 3131 3298 2873 
Q 3191 2616 2906 2266 
Q 2828 2175 2409 1742 
Q 1991 1309 1228 531 
z
" transform="scale(0.015625)"/>
        <path id="DejaVuSans-30" d="M 2034 4250 
Q 1547 4250 1301 3770 
Q 1056 3291 1056 2328 
Q 1056 1369 1301 889 
Q 1547 409 2034 409 
Q 2525 409 2770 889 
Q 3016 1369 3016 2328 
Q 3016 3291 2770 3770 
Q 2525 4250 2034 4250 
z
M 2034 4750 
Q 2819 4750 3233 4129 
Q 3647 3509 3647 2328 
Q 3647 1150 3233 529 
Q 2819 -91 2034 -91 
Q 1250 -91 836 529 
Q 422 1150 422 2328 
Q 422 3509 836 4129 
Q 1250 4750 2034 4750 
z
" transform="scale(0.015625)"/>
        <path id="DejaVuSans-2e" d="M 684 794 
L 1344 794 
L 1344 0 
L 684 0 
L 684 794 
z
" transform="scale(0.015625)"/>
        <path id="DejaVuSans-35" d="M 691 4666 
L 3169 4666 
L 3169 4134 
L 1269 4134 
L 1269 2991 
Q 1406 3038 1543 3061 
Q 1681 3084 1819 3084 
Q 2600 3084 3056 2656 
Q 3513 2228 3513 1497 
Q 3513 744 3044 326 
Q 2575 -91 1722 -91 
Q 1428 -91 1123 -41 
Q 819 9 494 109 
L 494 744 
Q 775 591 1075 516 
Q 1375 441 1709 441 
Q 2250 441 2565 725 
Q 2881 1009 2881 1497 
Q 2881 1984 2565 2268 
Q 2250 2553 1709 2553 
Q 1456 2553 1204 2497 
Q 953 2441 691 2322 
L 691 4666 
z
" transform="scale(0.015625)"/>
       </defs>
       <use xlink:href="#DejaVuSans-32"/>
       <use xlink:href="#DejaVuSans-30" x="63.623047"/>
       <use xlink:href="#DejaVuSans-32" x="127.246094"/>
       <use xlink:href="#DejaVuSans-32" x="190.869141"/>
       <use xlink:href="#DejaVuSans-2e" x="254.492188"/>
       <use xlink:href="#DejaVuSans-35" x="286.279297"/>
      </g>
     </g>
    </g>
    <g id="xtick_2">
     <g id="line2d_2">
      <g>
       <use xlink:href="#m5945d1641c" x="207.473684" y="192.24" style="stroke: #000000; stroke-width: 0.8"/>
      </g>
     </g>
     <g id="text_2">
      <!-- 2025.0 -->
      <g transform="translate(189.978372 206.838437) scale(0.1 -0.1)">
       <use xlink:href="#DejaVuSans-32"/>
       <use xlink:href="#DejaVuSans-30" x="63.623047"/>
       <use xlink:href="#DejaVuSans-32" x="127.246094"/>
       <use xlink:href="#DejaVuSans-35" x="190.869141"/>
       <use xlink:href="#DejaVuSans-2e" x="254.492188"/>
       <use xlink:href="#DejaVuSans-30" x="286.279297"/>
      </g>
     </g>
    </g>
    <g id="xtick_3">
     <g id="line2d_3">
      <g>
       <use xlink:href="#m5945d1641c" x="280.894737" y="192.24" style="stroke: #000000; stroke-width: 0.8"/>
      </g>
     </g>
     <g id="text_3">
      <!-- 2027.5 -->
      <g transform="translate(263.399424 206.838437) scale(0.1 -0.1)">
       <defs>
        <path id="DejaVuSans-37" d="M 525 4666 
L 3525 4666 
L 3525 4397 
L 1831 0 
L 1172 0 
L 2766 4134 
L 525 4134 
L 525 4666 
z
" transform="scale(0.015625)"/>
       </defs>
       <use xlink:href="#DejaVuSans-32"/>
       <use xlink:href="#DejaVuSans-30" x="63.623047"/>
       <use xlink:href="#DejaVuSans-32" x="127.246094"/>
       <use xlink:href="#DejaVuSans-37" x="190.869141"/>
       <use xlink:href="#DejaVuSans-2e" x="254.492188"/>
       <use xlink:href="#DejaVuSans-35" x="286.279297"/>
      </g>
     </g>
    </g>
    <g id="xtick_4">
     <g id="line2d_4">
      <g>
       <use xlink:href="#m5945d1641c" x="354.315789" y="192.24" style="stroke: #000000; stroke-width: 0.8"/>
      </g>
     </g>
     <g id="text_4">
      <!-- 2030.0 -->
      <g transform="translate(336.820477 206.838437) scale(0.1 -0.1)">
       <defs>
        <path id="DejaVuSans-33" d="M 2597 2516 
Q 3050 2419 3304 2112 
Q 3559 1806 3559 1356 
Q 3559 666 3084 287 
Q 2609 -91 1734 -91 
Q 1441 -91 1130 -33 
Q 819 25 488 141 
L 488 750 
Q 750 597 1062 519 
Q 1375 441 1716 441 
Q 2309 441 2620 675 
Q 2931 909 2931 1356 
Q 2931 1769 2642 2001 
Q 2353 2234 1838 2234 
L 1294 2234 
L 1294 2753 
L 1863 2753 
Q 2328 2753 2575 2939 
Q 2822 3125 2822 3475 
Q 2822 3834 2567 4026 
Q 2313 4219 1838 4219 
Q 1578 4219 1281 4162 
Q 984 4106 628 3988 
L 628 4550 
Q 988 4650 1302 4700 
Q 1616 4750 1894 4750 
Q 2613 4750 3031 4423 
Q 3450 4097 3450 3541 
Q 3450 3153 3228 2886 
Q 3006 2619 2597 2516 
z
" transform="scale(0.015625)"/>
       </defs>
       <use xlink:href="#DejaVuSans-32"/>
       <use xlink:href="#DejaVuSans-30" x="63.623047"/>
       <use xlink:href="#DejaVuSans-33" x="127.246094"/>
       <use xlink:href="#DejaVuSans-30" x="190.869141"/>
       <use xlink:href="#DejaVuSans-2e" x="254.492188"/>
       <use xlink:href="#DejaVuSans-30" x="286.279297"/>
      </g>
     </g>
    </g>
    <g id="xtick_5">
     <g id="line2d_5">
      <g>
       <use xlink:href="#m5945d1641c" x="427.736842" y="192.24" style="stroke: #000000; stroke-width: 0.8"/>
      </g>
     </g>
     <g id="text_5">
      <!-- 2032.5 -->
      <g transform="translate(410.24153 206.838437) scale(0.1 -0.1)">
       <use xlink:href="#DejaVuSans-32"/>
       <use xlink:href="#DejaVuSans-30" x="63.623047"/>
       <use xlink:href="#DejaVuSans-33" x="127.246094"/>
       <use xlink:href="#DejaVuSans-32" x="190.869141"/>
       <use xlink:href="#DejaVuSans-2e" x="254.492188"/>
       <use xlink:href="#DejaVuSans-35" x="286.279297"/>
      </g>
     </g>
    </g>
    <g id="xtick_6">
     <g id="line2d_6">
      <g>
       <use xlink:href="#m5945d1641c" x="501.157895" y="192.24" style="stroke: #000000; stroke-width: 0.8"/>
      </g>
     </g>
     <g id="text_6">
      <!-- 2035.0 -->
      <g transform="translate(483.662582 206.838437) scale(0.1 -0.1)">
       <use xlink:href="#DejaVuSans-32"/>
       <use xlink:href="#DejaVuSans-30" x="63.623047"/>
       <use xlink:href="#DejaVuSans-33" x="127.246094"/>
       <use xlink:href="#DejaVuSans-35" x="190.869141"/>
       <use xlink:href="#DejaVuSans-2e" x="254.492188"/>
       <use xlink:href="#DejaVuSans-30" x="286.279297"/>
      </g>
     </g>
    </g>
    <g id="xtick_7">
     <g id="line2d_7">
      <g>
       <use xlink:href="#m5945d1641c" x="574.578947" y="192.24" style="stroke: #000000; stroke-width: 0.8"/>
      </g>
     </g>
     <g id="text_7">
      <!-- 2037.5 -->
      <g transform="translate(557.083635 206.838437) scale(0.1 -0.1)">
       <use xlink:href="#DejaVuSans-32"/>
       <use xlink:href="#DejaVuSans-30" x="63.623047"/>
       <use xlink:href="#DejaVuSans-33" x="127.246094"/>
       <use xlink:href="#DejaVuSans-37" x="190.869141"/>
       <use xlink:href="#DejaVuSans-2e" x="254.492188"/>
       <use xlink:href="#DejaVuSans-35" x="286.279297"/>
      </g>
     </g>
    </g>
    <g id="xtick_8">
     <g id="line2d_8">
      <g>
       <use xlink:href="#m5945d1641c" x="648" y="192.24" style="stroke: #000000; stroke-width: 0.8"/>
      </g>
     </g>
     <g id="text_8">
      <!-- 2040.0 -->
      <g transform="translate(630.504688 206.838437) scale(0.1 -0.1)">
       <defs>
        <path id="DejaVuSans-34" d="M 2419 4116 
L 825 1625 
L 2419 1625 
L 2419 4116 
z
M 2253 4666 
L 3047 4666 
L 3047 1625 
L 3713 1625 
L 3713 1100 
L 3047 1100 
L 3047 0 
L 2419 0 
L 2419 1100 
L 313 1100 
L 313 1709 
L 2253 4666 
z
" transform="scale(0.015625)"/>
       </defs>
       <use xlink:href="#DejaVuSans-32"/>
       <use xlink:href="#DejaVuSans-30" x="63.623047"/>
       <use xlink:href="#DejaVuSans-34" x="127.246094"/>
       <use xlink:href="#DejaVuSans-30" x="190.869141"/>
       <use xlink:href="#DejaVuSans-2e" x="254.492188"/>
       <use xlink:href="#DejaVuSans-30" x="286.279297"/>
      </g>
     </g>
    </g>
    <g id="text_9">
     <!-- Year -->
     <g transform="translate(358.4125 220.516562) scale(0.1 -0.1)">
      <defs>
       <path id="DejaVuSans-59" d="M -13 4666 
L 666 4666 
L 1959 2747 
L 3244 4666 
L 3922 4666 
L 2272 2222 
L 2272 0 
L 1638 0 
L 1638 2222 
L -13 4666 
z
" transform="scale(0.015625)"/>
       <path id="DejaVuSans-65" d="M 3597 1894 
L 3597 1613 
L 953 1613 
Q 991 1019 1311 708 
Q 1631 397 2203 397 
Q 2534 397 2845 478 
Q 3156 559 3463 722 
L 3463 178 
Q 3153 47 2828 -22 
Q 2503 -91 2169 -91 
Q 1331 -91 842 396 
Q 353 884 353 1716 
Q 353 2575 817 3079 
Q 1281 3584 2069 3584 
Q 2775 3584 3186 3129 
Q 3597 2675 3597 1894 
z
M 3022 2063 
Q 3016 2534 2758 2815 
Q 2500 3097 2075 3097 
Q 1594 3097 1305 2825 
Q 1016 2553 972 2059 
L 3022 2063 
z
" transform="scale(0.015625)"/>
       <path id="DejaVuSans-61" d="M 2194 1759 
Q 1497 1759 1228 1600 
Q 959 1441 959 1056 
Q 959 750 1161 570 
Q 1363 391 1709 391 
Q 2188 391 2477 730 
Q 2766 1069 2766 1631 
L 2766 1759 
L 2194 1759 
z
M 3341 1997 
L 3341 0 
L 2766 0 
L 2766 531 
Q 2569 213 2275 61 
Q 1981 -91 1556 -91 
Q 1019 -91 701 211 
Q 384 513 384 1019 
Q 384 1609 779 1909 
Q 1175 2209 1959 2209 
L 2766 2209 
L 2766 2266 
Q 2766 2663 2505 2880 
Q 2244 3097 1772 3097 
Q 1472 3097 1187 3025 
Q 903 2953 641 2809 
L 641 3341 
Q 956 3463 1253 3523 
Q 1550 3584 1831 3584 
Q 2591 3584 2966 3190 
Q 3341 2797 3341 1997 
z
" transform="scale(0.015625)"/>
       <path id="DejaVuSans-72" d="M 2631 2963 
Q 2534 3019 2420 3045 
Q 2306 3072 2169 3072 
Q 1681 3072 1420 2755 
Q 1159 2438 1159 1844 
L 1159 0 
L 581 0 
L 581 3500 
L 1159 3500 
L 1159 2956 
Q 1341 3275 1631 3429 
Q 1922 3584 2338 3584 
Q 2397 3584 2469 3576 
Q 2541 3569 2628 3553 
L 2631 2963 
z
" transform="scale(0.015625)"/>
      </defs>
      <use xlink:href="#DejaVuSans-59"/>
      <use xlink:href="#DejaVuSans-65" x="47.833984"/>
      <use xlink:href="#DejaVuSans-61" x="109.357422"/>
      <use xlink:href="#DejaVuSans-72" x="170.636719"/>
     </g>
    </g>
   </g>
   <g id="matplotlib.axis_2">
    <g id="ytick_1">
     <g id="line2d_9">
      <defs>
       <path id="m6861b38899" d="M 0 0 
L -3.5 0 
" style="stroke: #000000; stroke-width: 0.8"/>
      </defs>
      <g>
       <use xlink:href="#m6861b38899" x="90" y="192.24" style="stroke: #000000; stroke-width: 0.8"/>
      </g>
     </g>
     <g id="text_10">
      <!-- 0.0 -->
      <g transform="translate(67.096875 196.039219) scale(0.1 -0.1)">
       <use xlink:href="#DejaVuSans-30"/>
       <use xlink:href="#DejaVuSans-2e" x="63.623047"/>
       <use xlink:href="#DejaVuSans-30" x="95.410156"/>
      </g>
     </g>
    </g>
    <g id="ytick_2">
     <g id="line2d_10">
      <g>
       <use xlink:href="#m6861b38899" x="90" y="165.036203" style="stroke: #000000; stroke-width: 0.8"/>
      </g>
     </g>
     <g id="text_11">
      <!-- 0.2 -->
      <g transform="translate(67.096875 168.835422) scale(0.1 -0.1)">
       <use xlink:href="#DejaVuSans-30"/>
       <use xlink:href="#DejaVuSans-2e" x="63.623047"/>
       <use xlink:href="#DejaVuSans-32" x="95.410156"/>
      </g>
     </g>
    </g>
    <g id="ytick_3">
     <g id="line2d_11">
      <g>
       <use xlink:href="#m6861b38899" x="90" y="137.832406" style="stroke: #000000; stroke-width: 0.8"/>
      </g>
     </g>
     <g id="text_12">
      <!-- 0.4 -->
      <g transform="translate(67.096875 141.631625) scale(0.1 -0.1)">
       <use xlink:href="#DejaVuSans-30"/>
       <use xlink:href="#DejaVuSans-2e" x="63.623047"/>
       <use xlink:href="#DejaVuSans-34" x="95.410156"/>
      </g>
     </g>
    </g>
    <g id="ytick_4">
     <g id="line2d_12">
      <g>
       <use xlink:href="#m6861b38899" x="90" y="110.628609" style="stroke: #000000; stroke-width: 0.8"/>
      </g>
     </g>
     <g id="text_13">
      <!-- 0.6 -->
      <g transform="translate(67.096875 114.427828) scale(0.1 -0.1)">
       <defs>
        <path id="DejaVuSans-36" d="M 2113 2584 
Q 1688 2584 1439 2293 
Q 1191 2003 1191 1497 
Q 1191 994 1439 701 
Q 1688 409 2113 409 
Q 2538 409 2786 701 
Q 3034 994 3034 1497 
Q 3034 2003 2786 2293 
Q 2538 2584 2113 2584 
z
M 3366 4563 
L 3366 3988 
Q 3128 4100 2886 4159 
Q 2644 4219 2406 4219 
Q 1781 4219 1451 3797 
Q 1122 3375 1075 2522 
Q 1259 2794 1537 2939 
Q 1816 3084 2150 3084 
Q 2853 3084 3261 2657 
Q 3669 2231 3669 1497 
Q 3669 778 3244 343 
Q 2819 -91 2113 -91 
Q 1303 -91 875 529 
Q 447 1150 447 2328 
Q 447 3434 972 4092 
Q 1497 4750 2381 4750 
Q 2619 4750 2861 4703 
Q 3103 4656 3366 4563 
z
" transform="scale(0.015625)"/>
       </defs>
       <use xlink:href="#DejaVuSans-30"/>
       <use xlink:href="#DejaVuSans-2e" x="63.623047"/>
       <use xlink:href="#DejaVuSans-36" x="95.410156"/>
      </g>
     </g>
    </g>
    <g id="ytick_5">
     <g id="line2d_13">
      <g>
       <use xlink:href="#m6861b38899" x="90" y="83.424812" style="stroke: #000000; stroke-width: 0.8"/>
      </g>
     </g>
     <g id="text_14">
      <!-- 0.8 -->
      <g transform="translate(67.096875 87.224031) scale(0.1 -0.1)">
       <defs>
        <path id="DejaVuSans-38" d="M 2034 2216 
Q 1584 2216 1326 1975 
Q 1069 1734 1069 1313 
Q 1069 891 1326 650 
Q 1584 409 2034 409 
Q 2484 409 2743 651 
Q 3003 894 3003 1313 
Q 3003 1734 2745 1975 
Q 2488 2216 2034 2216 
z
M 1403 2484 
Q 997 2584 770 2862 
Q 544 3141 544 3541 
Q 544 4100 942 4425 
Q 1341 4750 2034 4750 
Q 2731 4750 3128 4425 
Q 3525 4100 3525 3541 
Q 3525 3141 3298 2862 
Q 3072 2584 2669 2484 
Q 3125 2378 3379 2068 
Q 3634 1759 3634 1313 
Q 3634 634 3220 271 
Q 2806 -91 2034 -91 
Q 1263 -91 848 271 
Q 434 634 434 1313 
Q 434 1759 690 2068 
Q 947 2378 1403 2484 
z
M 1172 3481 
Q 1172 3119 1398 2916 
Q 1625 2713 2034 2713 
Q 2441 2713 2670 2916 
Q 2900 3119 2900 3481 
Q 2900 3844 2670 4047 
Q 2441 4250 2034 4250 
Q 1625 4250 1398 4047 
Q 1172 3844 1172 3481 
z
" transform="scale(0.015625)"/>
       </defs>
       <use xlink:href="#DejaVuSans-30"/>
       <use xlink:href="#DejaVuSans-2e" x="63.623047"/>
       <use xlink:href="#DejaVuSans-38" x="95.410156"/>
      </g>
     </g>
    </g>
    <g id="ytick_6">
     <g id="line2d_14">
      <g>
       <use xlink:href="#m6861b38899" x="90" y="56.221016" style="stroke: #000000; stroke-width: 0.8"/>
      </g>
     </g>
     <g id="text_15">
      <!-- 1.0 -->
      <g transform="translate(67.096875 60.020234) scale(0.1 -0.1)">
       <defs>
        <path id="DejaVuSans-31" d="M 794 531 
L 1825 531 
L 1825 4091 
L 703 3866 
L 703 4441 
L 1819 4666 
L 2450 4666 
L 2450 531 
L 3481 531 
L 3481 0 
L 794 0 
L 794 531 
z
" transform="scale(0.015625)"/>
       </defs>
       <use xlink:href="#DejaVuSans-31"/>
       <use xlink:href="#DejaVuSans-2e" x="63.623047"/>
       <use xlink:href="#DejaVuSans-30" x="95.410156"/>
      </g>
     </g>
    </g>
    <g id="ytick_7">
     <g id="line2d_15">
      <g>
       <use xlink:href="#m6861b38899" x="90" y="29.017219" style="stroke: #000000; stroke-width: 0.8"/>
      </g>
     </g>
     <g id="text_16">
      <!-- 1.2 -->
      <g transform="translate(67.096875 32.816437) scale(0.1 -0.1)">
       <use xlink:href="#DejaVuSans-31"/>
       <use xlink:href="#DejaVuSans-2e" x="63.623047"/>
       <use xlink:href="#DejaVuSans-32" x="95.410156"/>
      </g>
     </g>
    </g>
    <g id="text_17">
     <!-- MtCO2 -->
     <g transform="translate(61.017187 125.962812) rotate(-90) scale(0.1 -0.1)">
      <defs>
       <path id="DejaVuSans-4d" d="M 628 4666 
L 1569 4666 
L 2759 1491 
L 3956 4666 
L 4897 4666 
L 4897 0 
L 4281 0 
L 4281 4097 
L 3078 897 
L 2444 897 
L 1241 4097 
L 1241 0 
L 628 0 
L 628 4666 
z
" transform="scale(0.015625)"/>
       <path id="DejaVuSans-74" d="M 1172 4494 
L 1172 3500 
L 2356 3500 
L 2356 3053 
L 1172 3053 
L 1172 1153 
Q 1172 725 1289 603 
Q 1406 481 1766 481 
L 2356 481 
L 2356 0 
L 1766 0 
Q 1100 0 847 248 
Q 594 497 594 1153 
L 594 3053 
L 172 3053 
L 172 3500 
L 594 3500 
L 594 4494 
L 1172 4494 
z
" transform="scale(0.015625)"/>
       <path id="DejaVuSans-43" d="M 4122 4306 
L 4122 3641 
Q 3803 3938 3442 4084 
Q 3081 4231 2675 4231 
Q 1875 4231 1450 3742 
Q 1025 3253 1025 2328 
Q 1025 1406 1450 917 
Q 1875 428 2675 428 
Q 3081 428 3442 575 
Q 3803 722 4122 1019 
L 4122 359 
Q 3791 134 3420 21 
Q 3050 -91 2638 -91 
Q 1578 -91 968 557 
Q 359 1206 359 2328 
Q 359 3453 968 4101 
Q 1578 4750 2638 4750 
Q 3056 4750 3426 4639 
Q 3797 4528 4122 4306 
z
" transform="scale(0.015625)"/>
       <path id="DejaVuSans-4f" d="M 2522 4238 
Q 1834 4238 1429 3725 
Q 1025 3213 1025 2328 
Q 1025 1447 1429 934 
Q 1834 422 2522 422 
Q 3209 422 3611 934 
Q 4013 1447 4013 2328 
Q 4013 3213 3611 3725 
Q 3209 4238 2522 4238 
z
M 2522 4750 
Q 3503 4750 4090 4092 
Q 4678 3434 4678 2328 
Q 4678 1225 4090 567 
Q 3503 -91 2522 -91 
Q 1538 -91 948 565 
Q 359 1222 359 2328 
Q 359 3434 948 4092 
Q 1538 4750 2522 4750 
z
" transform="scale(0.015625)"/>
      </defs>
      <use xlink:href="#DejaVuSans-4d"/>
      <use xlink:href="#DejaVuSans-74" x="86.279297"/>
      <use xlink:href="#DejaVuSans-43" x="125.488281"/>
      <use xlink:href="#DejaVuSans-4f" x="195.3125"/>
      <use xlink:href="#DejaVuSans-32" x="274.023438"/>
     </g>
    </g>
    <g id="text_18">
     <!-- 1e6 -->
     <g transform="translate(90 22.92) scale(0.1 -0.1)">
      <use xlink:href="#DejaVuSans-31"/>
      <use xlink:href="#DejaVuSans-65" x="63.623047"/>
      <use xlink:href="#DejaVuSans-36" x="125.146484"/>
     </g>
    </g>
   </g>
   <g id="patch_3">
    <path d="M 90 192.24 
L 90 25.92 
" style="fill: none; stroke: #000000; stroke-width: 0.8; stroke-linejoin: miter; stroke-linecap: square"/>
   </g>
   <g id="patch_4">
    <path d="M 648 192.24 
L 648 25.92 
" style="fill: none; stroke: #000000; stroke-width: 0.8; stroke-linejoin: miter; stroke-linecap: square"/>
   </g>
   <g id="patch_5">
    <path d="M 90 192.24 
L 648 192.24 
" style="fill: none; stroke: #000000; stroke-width: 0.8; stroke-linejoin: miter; stroke-linecap: square"/>
   </g>
   <g id="patch_6">
    <path d="M 90 25.92 
L 648 25.92 
" style="fill: none; stroke: #000000; stroke-width: 0.8; stroke-linejoin: miter; stroke-linecap: square"/>
   </g>
   <g id="text_19">
    <!-- Relative contribution to global committed emits -->
    <g transform="translate(225.370313 19.92) scale(0.12 -0.12)">
     <defs>
      <path id="DejaVuSans-52" d="M 2841 2188 
Q 3044 2119 3236 1894 
Q 3428 1669 3622 1275 
L 4263 0 
L 3584 0 
L 2988 1197 
Q 2756 1666 2539 1819 
Q 2322 1972 1947 1972 
L 1259 1972 
L 1259 0 
L 628 0 
L 628 4666 
L 2053 4666 
Q 2853 4666 3247 4331 
Q 3641 3997 3641 3322 
Q 3641 2881 3436 2590 
Q 3231 2300 2841 2188 
z
M 1259 4147 
L 1259 2491 
L 2053 2491 
Q 2509 2491 2742 2702 
Q 2975 2913 2975 3322 
Q 2975 3731 2742 3939 
Q 2509 4147 2053 4147 
L 1259 4147 
z
" transform="scale(0.015625)"/>
      <path id="DejaVuSans-6c" d="M 603 4863 
L 1178 4863 
L 1178 0 
L 603 0 
L 603 4863 
z
" transform="scale(0.015625)"/>
      <path id="DejaVuSans-69" d="M 603 3500 
L 1178 3500 
L 1178 0 
L 603 0 
L 603 3500 
z
M 603 4863 
L 1178 4863 
L 1178 4134 
L 603 4134 
L 603 4863 
z
" transform="scale(0.015625)"/>
      <path id="DejaVuSans-76" d="M 191 3500 
L 800 3500 
L 1894 563 
L 2988 3500 
L 3597 3500 
L 2284 0 
L 1503 0 
L 191 3500 
z
" transform="scale(0.015625)"/>
      <path id="DejaVuSans-20" transform="scale(0.015625)"/>
      <path id="DejaVuSans-63" d="M 3122 3366 
L 3122 2828 
Q 2878 2963 2633 3030 
Q 2388 3097 2138 3097 
Q 1578 3097 1268 2742 
Q 959 2388 959 1747 
Q 959 1106 1268 751 
Q 1578 397 2138 397 
Q 2388 397 2633 464 
Q 2878 531 3122 666 
L 3122 134 
Q 2881 22 2623 -34 
Q 2366 -91 2075 -91 
Q 1284 -91 818 406 
Q 353 903 353 1747 
Q 353 2603 823 3093 
Q 1294 3584 2113 3584 
Q 2378 3584 2631 3529 
Q 2884 3475 3122 3366 
z
" transform="scale(0.015625)"/>
      <path id="DejaVuSans-6f" d="M 1959 3097 
Q 1497 3097 1228 2736 
Q 959 2375 959 1747 
Q 959 1119 1226 758 
Q 1494 397 1959 397 
Q 2419 397 2687 759 
Q 2956 1122 2956 1747 
Q 2956 2369 2687 2733 
Q 2419 3097 1959 3097 
z
M 1959 3584 
Q 2709 3584 3137 3096 
Q 3566 2609 3566 1747 
Q 3566 888 3137 398 
Q 2709 -91 1959 -91 
Q 1206 -91 779 398 
Q 353 888 353 1747 
Q 353 2609 779 3096 
Q 1206 3584 1959 3584 
z
" transform="scale(0.015625)"/>
      <path id="DejaVuSans-6e" d="M 3513 2113 
L 3513 0 
L 2938 0 
L 2938 2094 
Q 2938 2591 2744 2837 
Q 2550 3084 2163 3084 
Q 1697 3084 1428 2787 
Q 1159 2491 1159 1978 
L 1159 0 
L 581 0 
L 581 3500 
L 1159 3500 
L 1159 2956 
Q 1366 3272 1645 3428 
Q 1925 3584 2291 3584 
Q 2894 3584 3203 3211 
Q 3513 2838 3513 2113 
z
" transform="scale(0.015625)"/>
      <path id="DejaVuSans-62" d="M 3116 1747 
Q 3116 2381 2855 2742 
Q 2594 3103 2138 3103 
Q 1681 3103 1420 2742 
Q 1159 2381 1159 1747 
Q 1159 1113 1420 752 
Q 1681 391 2138 391 
Q 2594 391 2855 752 
Q 3116 1113 3116 1747 
z
M 1159 2969 
Q 1341 3281 1617 3432 
Q 1894 3584 2278 3584 
Q 2916 3584 3314 3078 
Q 3713 2572 3713 1747 
Q 3713 922 3314 415 
Q 2916 -91 2278 -91 
Q 1894 -91 1617 61 
Q 1341 213 1159 525 
L 1159 0 
L 581 0 
L 581 4863 
L 1159 4863 
L 1159 2969 
z
" transform="scale(0.015625)"/>
      <path id="DejaVuSans-75" d="M 544 1381 
L 544 3500 
L 1119 3500 
L 1119 1403 
Q 1119 906 1312 657 
Q 1506 409 1894 409 
Q 2359 409 2629 706 
Q 2900 1003 2900 1516 
L 2900 3500 
L 3475 3500 
L 3475 0 
L 2900 0 
L 2900 538 
Q 2691 219 2414 64 
Q 2138 -91 1772 -91 
Q 1169 -91 856 284 
Q 544 659 544 1381 
z
M 1991 3584 
L 1991 3584 
z
" transform="scale(0.015625)"/>
      <path id="DejaVuSans-67" d="M 2906 1791 
Q 2906 2416 2648 2759 
Q 2391 3103 1925 3103 
Q 1463 3103 1205 2759 
Q 947 2416 947 1791 
Q 947 1169 1205 825 
Q 1463 481 1925 481 
Q 2391 481 2648 825 
Q 2906 1169 2906 1791 
z
M 3481 434 
Q 3481 -459 3084 -895 
Q 2688 -1331 1869 -1331 
Q 1566 -1331 1297 -1286 
Q 1028 -1241 775 -1147 
L 775 -588 
Q 1028 -725 1275 -790 
Q 1522 -856 1778 -856 
Q 2344 -856 2625 -561 
Q 2906 -266 2906 331 
L 2906 616 
Q 2728 306 2450 153 
Q 2172 0 1784 0 
Q 1141 0 747 490 
Q 353 981 353 1791 
Q 353 2603 747 3093 
Q 1141 3584 1784 3584 
Q 2172 3584 2450 3431 
Q 2728 3278 2906 2969 
L 2906 3500 
L 3481 3500 
L 3481 434 
z
" transform="scale(0.015625)"/>
      <path id="DejaVuSans-6d" d="M 3328 2828 
Q 3544 3216 3844 3400 
Q 4144 3584 4550 3584 
Q 5097 3584 5394 3201 
Q 5691 2819 5691 2113 
L 5691 0 
L 5113 0 
L 5113 2094 
Q 5113 2597 4934 2840 
Q 4756 3084 4391 3084 
Q 3944 3084 3684 2787 
Q 3425 2491 3425 1978 
L 3425 0 
L 2847 0 
L 2847 2094 
Q 2847 2600 2669 2842 
Q 2491 3084 2119 3084 
Q 1678 3084 1418 2786 
Q 1159 2488 1159 1978 
L 1159 0 
L 581 0 
L 581 3500 
L 1159 3500 
L 1159 2956 
Q 1356 3278 1631 3431 
Q 1906 3584 2284 3584 
Q 2666 3584 2933 3390 
Q 3200 3197 3328 2828 
z
" transform="scale(0.015625)"/>
      <path id="DejaVuSans-64" d="M 2906 2969 
L 2906 4863 
L 3481 4863 
L 3481 0 
L 2906 0 
L 2906 525 
Q 2725 213 2448 61 
Q 2172 -91 1784 -91 
Q 1150 -91 751 415 
Q 353 922 353 1747 
Q 353 2572 751 3078 
Q 1150 3584 1784 3584 
Q 2172 3584 2448 3432 
Q 2725 3281 2906 2969 
z
M 947 1747 
Q 947 1113 1208 752 
Q 1469 391 1925 391 
Q 2381 391 2643 752 
Q 2906 1113 2906 1747 
Q 2906 2381 2643 2742 
Q 2381 3103 1925 3103 
Q 1469 3103 1208 2742 
Q 947 2381 947 1747 
z
" transform="scale(0.015625)"/>
      <path id="DejaVuSans-73" d="M 2834 3397 
L 2834 2853 
Q 2591 2978 2328 3040 
Q 2066 3103 1784 3103 
Q 1356 3103 1142 2972 
Q 928 2841 928 2578 
Q 928 2378 1081 2264 
Q 1234 2150 1697 2047 
L 1894 2003 
Q 2506 1872 2764 1633 
Q 3022 1394 3022 966 
Q 3022 478 2636 193 
Q 2250 -91 1575 -91 
Q 1294 -91 989 -36 
Q 684 19 347 128 
L 347 722 
Q 666 556 975 473 
Q 1284 391 1588 391 
Q 1994 391 2212 530 
Q 2431 669 2431 922 
Q 2431 1156 2273 1281 
Q 2116 1406 1581 1522 
L 1381 1569 
Q 847 1681 609 1914 
Q 372 2147 372 2553 
Q 372 3047 722 3315 
Q 1072 3584 1716 3584 
Q 2034 3584 2315 3537 
Q 2597 3491 2834 3397 
z
" transform="scale(0.015625)"/>
     </defs>
     <use xlink:href="#DejaVuSans-52"/>
     <use xlink:href="#DejaVuSans-65" x="64.982422"/>
     <use xlink:href="#DejaVuSans-6c" x="126.505859"/>
     <use xlink:href="#DejaVuSans-61" x="154.289062"/>
     <use xlink:href="#DejaVuSans-74" x="215.568359"/>
     <use xlink:href="#DejaVuSans-69" x="254.777344"/>
     <use xlink:href="#DejaVuSans-76" x="282.560547"/>
     <use xlink:href="#DejaVuSans-65" x="341.740234"/>
     <use xlink:href="#DejaVuSans-20" x="403.263672"/>
     <use xlink:href="#DejaVuSans-63" x="435.050781"/>
     <use xlink:href="#DejaVuSans-6f" x="490.03125"/>
     <use xlink:href="#DejaVuSans-6e" x="551.212891"/>
     <use xlink:href="#DejaVuSans-74" x="614.591797"/>
     <use xlink:href="#DejaVuSans-72" x="653.800781"/>
     <use xlink:href="#DejaVuSans-69" x="694.914062"/>
     <use xlink:href="#DejaVuSans-62" x="722.697266"/>
     <use xlink:href="#DejaVuSans-75" x="786.173828"/>
     <use xlink:href="#DejaVuSans-74" x="849.552734"/>
     <use xlink:href="#DejaVuSans-69" x="888.761719"/>
     <use xlink:href="#DejaVuSans-6f" x="916.544922"/>
     <use xlink:href="#DejaVuSans-6e" x="977.726562"/>
     <use xlink:href="#DejaVuSans-20" x="1041.105469"/>
     <use xlink:href="#DejaVuSans-74" x="1072.892578"/>
     <use xlink:href="#DejaVuSans-6f" x="1112.101562"/>
     <use xlink:href="#DejaVuSans-20" x="1173.283203"/>
     <use xlink:href="#DejaVuSans-67" x="1205.070312"/>
     <use xlink:href="#DejaVuSans-6c" x="1268.546875"/>
     <use xlink:href="#DejaVuSans-6f" x="1296.330078"/>
     <use xlink:href="#DejaVuSans-62" x="1357.511719"/>
     <use xlink:href="#DejaVuSans-61" x="1420.988281"/>
     <use xlink:href="#DejaVuSans-6c" x="1482.267578"/>
     <use xlink:href="#DejaVuSans-20" x="1510.050781"/>
     <use xlink:href="#DejaVuSans-63" x="1541.837891"/>
     <use xlink:href="#DejaVuSans-6f" x="1596.818359"/>
     <use xlink:href="#DejaVuSans-6d" x="1658"/>
     <use xlink:href="#DejaVuSans-6d" x="1755.412109"/>
     <use xlink:href="#DejaVuSans-69" x="1852.824219"/>
     <use xlink:href="#DejaVuSans-74" x="1880.607422"/>
     <use xlink:href="#DejaVuSans-74" x="1919.816406"/>
     <use xlink:href="#DejaVuSans-65" x="1959.025391"/>
     <use xlink:href="#DejaVuSans-64" x="2020.548828"/>
     <use xlink:href="#DejaVuSans-20" x="2084.025391"/>
     <use xlink:href="#DejaVuSans-65" x="2115.8125"/>
     <use xlink:href="#DejaVuSans-6d" x="2177.335938"/>
     <use xlink:href="#DejaVuSans-69" x="2274.748047"/>
     <use xlink:href="#DejaVuSans-74" x="2302.53125"/>
     <use xlink:href="#DejaVuSans-73" x="2341.740234"/>
    </g>
   </g>
   <g id="legend_1">
    <g id="patch_7">
     <path d="M 542.6375 210.0575 
L 641 210.0575 
Q 643 210.0575 643 208.0575 
L 643 32.92 
Q 643 30.92 641 30.92 
L 542.6375 30.92 
Q 540.6375 30.92 540.6375 32.92 
L 540.6375 208.0575 
Q 540.6375 210.0575 542.6375 210.0575 
z
" style="fill: #ffffff; opacity: 0.8; stroke: #cccccc; stroke-linejoin: miter"/>
    </g>
    <g id="patch_8">
     <path d="M 544.6375 42.518437 
L 564.6375 42.518437 
L 564.6375 35.518437 
L 544.6375 35.518437 
z
" style="fill: #708090"/>
    </g>
    <g id="text_20">
     <!-- RussiaCAsia -->
     <g transform="translate(572.6375 42.518437) scale(0.1 -0.1)">
      <defs>
       <path id="DejaVuSans-41" d="M 2188 4044 
L 1331 1722 
L 3047 1722 
L 2188 4044 
z
M 1831 4666 
L 2547 4666 
L 4325 0 
L 3669 0 
L 3244 1197 
L 1141 1197 
L 716 0 
L 50 0 
L 1831 4666 
z
" transform="scale(0.015625)"/>
      </defs>
      <use xlink:href="#DejaVuSans-52"/>
      <use xlink:href="#DejaVuSans-75" x="64.982422"/>
      <use xlink:href="#DejaVuSans-73" x="128.361328"/>
      <use xlink:href="#DejaVuSans-73" x="180.460938"/>
      <use xlink:href="#DejaVuSans-69" x="232.560547"/>
      <use xlink:href="#DejaVuSans-61" x="260.34375"/>
      <use xlink:href="#DejaVuSans-43" x="321.623047"/>
      <use xlink:href="#DejaVuSans-41" x="391.447266"/>
      <use xlink:href="#DejaVuSans-73" x="459.855469"/>
      <use xlink:href="#DejaVuSans-69" x="511.955078"/>
      <use xlink:href="#DejaVuSans-61" x="539.738281"/>
     </g>
    </g>
    <g id="patch_9">
     <path d="M 544.6375 57.196562 
L 564.6375 57.196562 
L 564.6375 50.196562 
L 544.6375 50.196562 
z
" style="fill: #1e90ff"/>
    </g>
    <g id="text_21">
     <!-- ROW -->
     <g transform="translate(572.6375 57.196562) scale(0.1 -0.1)">
      <defs>
       <path id="DejaVuSans-57" d="M 213 4666 
L 850 4666 
L 1831 722 
L 2809 4666 
L 3519 4666 
L 4500 722 
L 5478 4666 
L 6119 4666 
L 4947 0 
L 4153 0 
L 3169 4050 
L 2175 0 
L 1381 0 
L 213 4666 
z
" transform="scale(0.015625)"/>
      </defs>
      <use xlink:href="#DejaVuSans-52"/>
      <use xlink:href="#DejaVuSans-4f" x="69.482422"/>
      <use xlink:href="#DejaVuSans-57" x="148.193359"/>
     </g>
    </g>
    <g id="patch_10">
     <path d="M 544.6375 71.874687 
L 564.6375 71.874687 
L 564.6375 64.874687 
L 544.6375 64.874687 
z
" style="fill: #4682b4"/>
    </g>
    <g id="text_22">
     <!-- MENA -->
     <g transform="translate(572.6375 71.874687) scale(0.1 -0.1)">
      <defs>
       <path id="DejaVuSans-45" d="M 628 4666 
L 3578 4666 
L 3578 4134 
L 1259 4134 
L 1259 2753 
L 3481 2753 
L 3481 2222 
L 1259 2222 
L 1259 531 
L 3634 531 
L 3634 0 
L 628 0 
L 628 4666 
z
" transform="scale(0.015625)"/>
       <path id="DejaVuSans-4e" d="M 628 4666 
L 1478 4666 
L 3547 763 
L 3547 4666 
L 4159 4666 
L 4159 0 
L 3309 0 
L 1241 3903 
L 1241 0 
L 628 0 
L 628 4666 
z
" transform="scale(0.015625)"/>
      </defs>
      <use xlink:href="#DejaVuSans-4d"/>
      <use xlink:href="#DejaVuSans-45" x="86.279297"/>
      <use xlink:href="#DejaVuSans-4e" x="149.462891"/>
      <use xlink:href="#DejaVuSans-41" x="224.267578"/>
     </g>
    </g>
    <g id="patch_11">
     <path d="M 544.6375 86.552812 
L 564.6375 86.552812 
L 564.6375 79.552812 
L 544.6375 79.552812 
z
" style="fill: #ffa500"/>
    </g>
    <g id="text_23">
     <!-- SubSahAfrica -->
     <g transform="translate(572.6375 86.552812) scale(0.1 -0.1)">
      <defs>
       <path id="DejaVuSans-53" d="M 3425 4513 
L 3425 3897 
Q 3066 4069 2747 4153 
Q 2428 4238 2131 4238 
Q 1616 4238 1336 4038 
Q 1056 3838 1056 3469 
Q 1056 3159 1242 3001 
Q 1428 2844 1947 2747 
L 2328 2669 
Q 3034 2534 3370 2195 
Q 3706 1856 3706 1288 
Q 3706 609 3251 259 
Q 2797 -91 1919 -91 
Q 1588 -91 1214 -16 
Q 841 59 441 206 
L 441 856 
Q 825 641 1194 531 
Q 1563 422 1919 422 
Q 2459 422 2753 634 
Q 3047 847 3047 1241 
Q 3047 1584 2836 1778 
Q 2625 1972 2144 2069 
L 1759 2144 
Q 1053 2284 737 2584 
Q 422 2884 422 3419 
Q 422 4038 858 4394 
Q 1294 4750 2059 4750 
Q 2388 4750 2728 4690 
Q 3069 4631 3425 4513 
z
" transform="scale(0.015625)"/>
       <path id="DejaVuSans-68" d="M 3513 2113 
L 3513 0 
L 2938 0 
L 2938 2094 
Q 2938 2591 2744 2837 
Q 2550 3084 2163 3084 
Q 1697 3084 1428 2787 
Q 1159 2491 1159 1978 
L 1159 0 
L 581 0 
L 581 4863 
L 1159 4863 
L 1159 2956 
Q 1366 3272 1645 3428 
Q 1925 3584 2291 3584 
Q 2894 3584 3203 3211 
Q 3513 2838 3513 2113 
z
" transform="scale(0.015625)"/>
       <path id="DejaVuSans-66" d="M 2375 4863 
L 2375 4384 
L 1825 4384 
Q 1516 4384 1395 4259 
Q 1275 4134 1275 3809 
L 1275 3500 
L 2222 3500 
L 2222 3053 
L 1275 3053 
L 1275 0 
L 697 0 
L 697 3053 
L 147 3053 
L 147 3500 
L 697 3500 
L 697 3744 
Q 697 4328 969 4595 
Q 1241 4863 1831 4863 
L 2375 4863 
z
" transform="scale(0.015625)"/>
      </defs>
      <use xlink:href="#DejaVuSans-53"/>
      <use xlink:href="#DejaVuSans-75" x="63.476562"/>
      <use xlink:href="#DejaVuSans-62" x="126.855469"/>
      <use xlink:href="#DejaVuSans-53" x="190.332031"/>
      <use xlink:href="#DejaVuSans-61" x="253.808594"/>
      <use xlink:href="#DejaVuSans-68" x="315.087891"/>
      <use xlink:href="#DejaVuSans-41" x="378.466797"/>
      <use xlink:href="#DejaVuSans-66" x="443.25"/>
      <use xlink:href="#DejaVuSans-72" x="478.455078"/>
      <use xlink:href="#DejaVuSans-69" x="519.568359"/>
      <use xlink:href="#DejaVuSans-63" x="547.351562"/>
      <use xlink:href="#DejaVuSans-61" x="602.332031"/>
     </g>
    </g>
    <g id="patch_12">
     <path d="M 544.6375 101.230937 
L 564.6375 101.230937 
L 564.6375 94.230937 
L 544.6375 94.230937 
z
" style="fill: #87ceeb"/>
    </g>
    <g id="text_24">
     <!-- LatinAmerica -->
     <g transform="translate(572.6375 101.230937) scale(0.1 -0.1)">
      <defs>
       <path id="DejaVuSans-4c" d="M 628 4666 
L 1259 4666 
L 1259 531 
L 3531 531 
L 3531 0 
L 628 0 
L 628 4666 
z
" transform="scale(0.015625)"/>
      </defs>
      <use xlink:href="#DejaVuSans-4c"/>
      <use xlink:href="#DejaVuSans-61" x="55.712891"/>
      <use xlink:href="#DejaVuSans-74" x="116.992188"/>
      <use xlink:href="#DejaVuSans-69" x="156.201172"/>
      <use xlink:href="#DejaVuSans-6e" x="183.984375"/>
      <use xlink:href="#DejaVuSans-41" x="247.363281"/>
      <use xlink:href="#DejaVuSans-6d" x="315.771484"/>
      <use xlink:href="#DejaVuSans-65" x="413.183594"/>
      <use xlink:href="#DejaVuSans-72" x="474.707031"/>
      <use xlink:href="#DejaVuSans-69" x="515.820312"/>
      <use xlink:href="#DejaVuSans-63" x="543.603516"/>
      <use xlink:href="#DejaVuSans-61" x="598.583984"/>
     </g>
    </g>
    <g id="patch_13">
     <path d="M 544.6375 115.909062 
L 564.6375 115.909062 
L 564.6375 108.909062 
L 544.6375 108.909062 
z
" style="fill: #00bfff"/>
    </g>
    <g id="text_25">
     <!-- OECDAsia -->
     <g transform="translate(572.6375 115.909062) scale(0.1 -0.1)">
      <defs>
       <path id="DejaVuSans-44" d="M 1259 4147 
L 1259 519 
L 2022 519 
Q 2988 519 3436 956 
Q 3884 1394 3884 2338 
Q 3884 3275 3436 3711 
Q 2988 4147 2022 4147 
L 1259 4147 
z
M 628 4666 
L 1925 4666 
Q 3281 4666 3915 4102 
Q 4550 3538 4550 2338 
Q 4550 1131 3912 565 
Q 3275 0 1925 0 
L 628 0 
L 628 4666 
z
" transform="scale(0.015625)"/>
      </defs>
      <use xlink:href="#DejaVuSans-4f"/>
      <use xlink:href="#DejaVuSans-45" x="78.710938"/>
      <use xlink:href="#DejaVuSans-43" x="141.894531"/>
      <use xlink:href="#DejaVuSans-44" x="211.71875"/>
      <use xlink:href="#DejaVuSans-41" x="286.970703"/>
      <use xlink:href="#DejaVuSans-73" x="355.378906"/>
      <use xlink:href="#DejaVuSans-69" x="407.478516"/>
      <use xlink:href="#DejaVuSans-61" x="435.261719"/>
     </g>
    </g>
    <g id="patch_14">
     <path d="M 544.6375 130.587187 
L 564.6375 130.587187 
L 564.6375 123.587187 
L 544.6375 123.587187 
z
" style="fill: #add8e6"/>
    </g>
    <g id="text_26">
     <!-- EU27 -->
     <g transform="translate(572.6375 130.587187) scale(0.1 -0.1)">
      <defs>
       <path id="DejaVuSans-55" d="M 556 4666 
L 1191 4666 
L 1191 1831 
Q 1191 1081 1462 751 
Q 1734 422 2344 422 
Q 2950 422 3222 751 
Q 3494 1081 3494 1831 
L 3494 4666 
L 4128 4666 
L 4128 1753 
Q 4128 841 3676 375 
Q 3225 -91 2344 -91 
Q 1459 -91 1007 375 
Q 556 841 556 1753 
L 556 4666 
z
" transform="scale(0.015625)"/>
      </defs>
      <use xlink:href="#DejaVuSans-45"/>
      <use xlink:href="#DejaVuSans-55" x="63.183594"/>
      <use xlink:href="#DejaVuSans-32" x="136.376953"/>
      <use xlink:href="#DejaVuSans-37" x="200"/>
     </g>
    </g>
    <g id="patch_15">
     <path d="M 544.6375 145.265312 
L 564.6375 145.265312 
L 564.6375 138.265312 
L 544.6375 138.265312 
z
" style="fill: #b0e0e6"/>
    </g>
    <g id="text_27">
     <!-- EmergAsia -->
     <g transform="translate(572.6375 145.265312) scale(0.1 -0.1)">
      <use xlink:href="#DejaVuSans-45"/>
      <use xlink:href="#DejaVuSans-6d" x="63.183594"/>
      <use xlink:href="#DejaVuSans-65" x="160.595703"/>
      <use xlink:href="#DejaVuSans-72" x="222.119141"/>
      <use xlink:href="#DejaVuSans-67" x="261.482422"/>
      <use xlink:href="#DejaVuSans-41" x="324.958984"/>
      <use xlink:href="#DejaVuSans-73" x="393.367188"/>
      <use xlink:href="#DejaVuSans-69" x="445.466797"/>
      <use xlink:href="#DejaVuSans-61" x="473.25"/>
     </g>
    </g>
    <g id="patch_16">
     <path d="M 544.6375 159.943437 
L 564.6375 159.943437 
L 564.6375 152.943437 
L 544.6375 152.943437 
z
" style="fill: #008000"/>
    </g>
    <g id="text_28">
     <!-- China -->
     <g transform="translate(572.6375 159.943437) scale(0.1 -0.1)">
      <use xlink:href="#DejaVuSans-43"/>
      <use xlink:href="#DejaVuSans-68" x="69.824219"/>
      <use xlink:href="#DejaVuSans-69" x="133.203125"/>
      <use xlink:href="#DejaVuSans-6e" x="160.986328"/>
      <use xlink:href="#DejaVuSans-61" x="224.365234"/>
     </g>
    </g>
    <g id="patch_17">
     <path d="M 544.6375 174.621562 
L 564.6375 174.621562 
L 564.6375 167.621562 
L 544.6375 167.621562 
z
" style="fill: #00ced1"/>
    </g>
    <g id="text_29">
     <!-- India -->
     <g transform="translate(572.6375 174.621562) scale(0.1 -0.1)">
      <defs>
       <path id="DejaVuSans-49" d="M 628 4666 
L 1259 4666 
L 1259 0 
L 628 0 
L 628 4666 
z
" transform="scale(0.015625)"/>
      </defs>
      <use xlink:href="#DejaVuSans-49"/>
      <use xlink:href="#DejaVuSans-6e" x="29.492188"/>
      <use xlink:href="#DejaVuSans-64" x="92.871094"/>
      <use xlink:href="#DejaVuSans-69" x="156.347656"/>
      <use xlink:href="#DejaVuSans-61" x="184.130859"/>
     </g>
    </g>
    <g id="patch_18">
     <path d="M 544.6375 189.299687 
L 564.6375 189.299687 
L 564.6375 182.299687 
L 544.6375 182.299687 
z
" style="fill: #00ffff"/>
    </g>
    <g id="text_30">
     <!-- UK -->
     <g transform="translate(572.6375 189.299687) scale(0.1 -0.1)">
      <defs>
       <path id="DejaVuSans-4b" d="M 628 4666 
L 1259 4666 
L 1259 2694 
L 3353 4666 
L 4166 4666 
L 1850 2491 
L 4331 0 
L 3500 0 
L 1259 2247 
L 1259 0 
L 628 0 
L 628 4666 
z
" transform="scale(0.015625)"/>
      </defs>
      <use xlink:href="#DejaVuSans-55"/>
      <use xlink:href="#DejaVuSans-4b" x="73.193359"/>
     </g>
    </g>
    <g id="patch_19">
     <path d="M 544.6375 203.977812 
L 564.6375 203.977812 
L 564.6375 196.977812 
L 544.6375 196.977812 
z
" style="fill: #ff0000"/>
    </g>
    <g id="text_31">
     <!-- UnitedStates -->
     <g transform="translate(572.6375 203.977812) scale(0.1 -0.1)">
      <use xlink:href="#DejaVuSans-55"/>
      <use xlink:href="#DejaVuSans-6e" x="73.193359"/>
      <use xlink:href="#DejaVuSans-69" x="136.572266"/>
      <use xlink:href="#DejaVuSans-74" x="164.355469"/>
      <use xlink:href="#DejaVuSans-65" x="203.564453"/>
      <use xlink:href="#DejaVuSans-64" x="265.087891"/>
      <use xlink:href="#DejaVuSans-53" x="328.564453"/>
      <use xlink:href="#DejaVuSans-74" x="392.041016"/>
      <use xlink:href="#DejaVuSans-61" x="431.25"/>
      <use xlink:href="#DejaVuSans-74" x="492.529297"/>
      <use xlink:href="#DejaVuSans-65" x="531.738281"/>
      <use xlink:href="#DejaVuSans-73" x="593.261719"/>
     </g>
    </g>
   </g>
  </g>
 </g>
 <defs>
  <clipPath id="pef777dcb33">
   <rect x="90" y="25.92" width="558" height="166.32"/>
  </clipPath>
 </defs>
</svg>
