<?xml version="1.0" encoding="utf-8" standalone="no"?>
<!DOCTYPE svg PUBLIC "-//W3C//DTD SVG 1.1//EN"
  "http://www.w3.org/Graphics/SVG/1.1/DTD/svg11.dtd">
<svg xmlns:xlink="http://www.w3.org/1999/xlink" width="720pt" height="216pt" viewBox="0 0 720 216" xmlns="http://www.w3.org/2000/svg" version="1.1">
 <metadata>
  <rdf:RDF xmlns:dc="http://purl.org/dc/elements/1.1/" xmlns:cc="http://creativecommons.org/ns#" xmlns:rdf="http://www.w3.org/1999/02/22-rdf-syntax-ns#">
   <cc:Work>
    <dc:type rdf:resource="http://purl.org/dc/dcmitype/StillImage"/>
    <dc:date>2023-04-17T17:41:59.713405</dc:date>
    <dc:format>image/svg+xml</dc:format>
    <dc:creator>
     <cc:Agent>
      <dc:title>Matplotlib v3.7.1, https://matplotlib.org/</dc:title>
     </cc:Agent>
    </dc:creator>
   </cc:Work>
  </rdf:RDF>
 </metadata>
 <defs>
  <style type="text/css">*{stroke-linejoin: round; stroke-linecap: butt}</style>
 </defs>
 <g id="figure_1">
  <g id="patch_1">
   <path d="M 0 216 
L 720 216 
L 720 0 
L 0 0 
z
" style="fill: #ffffff"/>
  </g>
  <g id="axes_1">
   <g id="patch_2">
    <path d="M 90 192.24 
L 648 192.24 
L 648 25.92 
L 90 25.92 
z
" style="fill: #ffffff"/>
   </g>
   <g id="PolyCollection_1">
    <path d="M 90 192.210772 
L 90 192.24 
L 119.368421 192.24 
L 148.736842 192.24 
L 178.105263 192.24 
L 207.473684 192.24 
L 236.842105 192.24 
L 266.210526 192.24 
L 295.578947 192.24 
L 324.947368 192.24 
L 354.315789 192.24 
L 383.684211 192.24 
L 413.052632 192.24 
L 442.421053 192.24 
L 471.789474 192.24 
L 501.157895 192.24 
L 530.526316 192.24 
L 559.894737 192.24 
L 589.263158 192.24 
L 618.631579 192.24 
L 648 192.24 
L 677.368421 192.24 
L 706.736842 192.24 
L 736.105263 192.24 
L 765.473684 192.24 
L 794.842105 192.24 
L 824.210526 192.24 
L 853.578947 192.24 
L 882.947368 192.24 
L 912.315789 192.24 
L 941.684211 192.24 
L 971.052632 192.24 
L 1000.421053 192.24 
L 1029.789474 192.24 
L 1059.157895 192.24 
L 1088.526316 192.24 
L 1117.894737 192.24 
L 1147.263158 192.24 
L 1176.631579 192.24 
L 1206 192.24 
L 1235.368421 192.24 
L 1264.736842 192.24 
L 1294.105263 192.24 
L 1323.473684 192.24 
L 1352.842105 192.24 
L 1382.210526 192.24 
L 1411.578947 192.24 
L 1440.947368 192.24 
L 1470.315789 192.24 
L 1499.684211 192.24 
L 1529.052632 192.24 
L 1558.421053 192.24 
L 1587.789474 192.24 
L 1617.157895 192.24 
L 1646.526316 192.24 
L 1675.894737 192.24 
L 1705.263158 192.24 
L 1734.631579 192.24 
L 1764 192.24 
L 1793.368421 192.24 
L 1822.736842 192.24 
L 1852.105263 192.24 
L 1881.473684 192.24 
L 1910.842105 192.24 
L 1940.210526 192.24 
L 1969.578947 192.24 
L 1998.947368 192.24 
L 2028.315789 192.24 
L 2057.684211 192.24 
L 2087.052632 192.24 
L 2116.421053 192.24 
L 2145.789474 192.24 
L 2175.157895 192.24 
L 2204.526316 192.24 
L 2233.894737 192.24 
L 2263.263158 192.24 
L 2292.631579 192.24 
L 2322 192.24 
L 2351.368421 192.24 
L 2380.736842 192.24 
L 2410.105263 192.24 
L 2410.105263 192.24 
L 2410.105263 192.24 
L 2380.736842 192.24 
L 2351.368421 192.24 
L 2322 192.24 
L 2292.631579 192.24 
L 2263.263158 192.24 
L 2233.894737 192.24 
L 2204.526316 192.24 
L 2175.157895 192.24 
L 2145.789474 192.24 
L 2116.421053 192.24 
L 2087.052632 192.24 
L 2057.684211 192.24 
L 2028.315789 192.24 
L 1998.947368 192.24 
L 1969.578947 192.24 
L 1940.210526 192.24 
L 1910.842105 192.24 
L 1881.473684 192.24 
L 1852.105263 192.24 
L 1822.736842 192.24 
L 1793.368421 192.24 
L 1764 192.24 
L 1734.631579 192.24 
L 1705.263158 192.24 
L 1675.894737 192.24 
L 1646.526316 192.218092 
L 1617.157895 192.218092 
L 1587.789474 192.218092 
L 1558.421053 192.218092 
L 1529.052632 192.218092 
L 1499.684211 192.197405 
L 1470.315789 192.197405 
L 1440.947368 192.095486 
L 1411.578947 192.045955 
L 1382.210526 191.729629 
L 1352.842105 190.882949 
L 1323.473684 190.164265 
L 1294.105263 189.96113 
L 1264.736842 189.684337 
L 1235.368421 189.684337 
L 1206 189.57956 
L 1176.631579 189.57956 
L 1147.263158 189.57956 
L 1117.894737 189.57956 
L 1088.526316 189.57956 
L 1059.157895 189.57956 
L 1029.789474 189.57956 
L 1000.421053 189.57956 
L 971.052632 189.57956 
L 941.684211 189.57956 
L 912.315789 189.57956 
L 882.947368 189.57956 
L 853.578947 189.57956 
L 824.210526 189.57956 
L 794.842105 189.57956 
L 765.473684 189.57956 
L 736.105263 189.57956 
L 706.736842 189.57956 
L 677.368421 189.57956 
L 648 189.57956 
L 618.631579 189.57956 
L 589.263158 189.57956 
L 559.894737 189.57956 
L 530.526316 189.57956 
L 501.157895 189.57956 
L 471.789474 189.601468 
L 442.421053 189.601468 
L 413.052632 189.601468 
L 383.684211 189.601468 
L 354.315789 189.601468 
L 324.947368 189.622155 
L 295.578947 189.622155 
L 266.210526 189.724074 
L 236.842105 189.773605 
L 207.473684 190.089931 
L 178.105263 190.936611 
L 148.736842 191.650056 
L 119.368421 191.853191 
L 90 192.210772 
z
" clip-path="url(#p1aeb74fffa)" style="fill: #708090"/>
   </g>
   <g id="PolyCollection_2">
    <path d="M 90 191.911306 
L 90 192.210772 
L 119.368421 191.853191 
L 148.736842 191.650056 
L 178.105263 190.936611 
L 207.473684 190.089931 
L 236.842105 189.773605 
L 266.210526 189.724074 
L 295.578947 189.622155 
L 324.947368 189.622155 
L 354.315789 189.601468 
L 383.684211 189.601468 
L 413.052632 189.601468 
L 442.421053 189.601468 
L 471.789474 189.601468 
L 501.157895 189.57956 
L 530.526316 189.57956 
L 559.894737 189.57956 
L 589.263158 189.57956 
L 618.631579 189.57956 
L 648 189.57956 
L 677.368421 189.57956 
L 706.736842 189.57956 
L 736.105263 189.57956 
L 765.473684 189.57956 
L 794.842105 189.57956 
L 824.210526 189.57956 
L 853.578947 189.57956 
L 882.947368 189.57956 
L 912.315789 189.57956 
L 941.684211 189.57956 
L 971.052632 189.57956 
L 1000.421053 189.57956 
L 1029.789474 189.57956 
L 1059.157895 189.57956 
L 1088.526316 189.57956 
L 1117.894737 189.57956 
L 1147.263158 189.57956 
L 1176.631579 189.57956 
L 1206 189.57956 
L 1235.368421 189.684337 
L 1264.736842 189.684337 
L 1294.105263 189.96113 
L 1323.473684 190.164265 
L 1352.842105 190.882949 
L 1382.210526 191.729629 
L 1411.578947 192.045955 
L 1440.947368 192.095486 
L 1470.315789 192.197405 
L 1499.684211 192.197405 
L 1529.052632 192.218092 
L 1558.421053 192.218092 
L 1587.789474 192.218092 
L 1617.157895 192.218092 
L 1646.526316 192.218092 
L 1675.894737 192.24 
L 1705.263158 192.24 
L 1734.631579 192.24 
L 1764 192.24 
L 1793.368421 192.24 
L 1822.736842 192.24 
L 1852.105263 192.24 
L 1881.473684 192.24 
L 1910.842105 192.24 
L 1940.210526 192.24 
L 1969.578947 192.24 
L 1998.947368 192.24 
L 2028.315789 192.24 
L 2057.684211 192.24 
L 2087.052632 192.24 
L 2116.421053 192.24 
L 2145.789474 192.24 
L 2175.157895 192.24 
L 2204.526316 192.24 
L 2233.894737 192.24 
L 2263.263158 192.24 
L 2292.631579 192.24 
L 2322 192.24 
L 2351.368421 192.24 
L 2380.736842 192.24 
L 2410.105263 192.24 
L 2410.105263 192.24 
L 2410.105263 192.24 
L 2380.736842 192.24 
L 2351.368421 192.24 
L 2322 192.24 
L 2292.631579 192.24 
L 2263.263158 192.24 
L 2233.894737 192.24 
L 2204.526316 192.24 
L 2175.157895 192.24 
L 2145.789474 192.24 
L 2116.421053 192.24 
L 2087.052632 192.24 
L 2057.684211 192.24 
L 2028.315789 192.24 
L 1998.947368 192.24 
L 1969.578947 192.24 
L 1940.210526 192.24 
L 1910.842105 192.24 
L 1881.473684 192.24 
L 1852.105263 192.24 
L 1822.736842 192.24 
L 1793.368421 192.24 
L 1764 192.24 
L 1734.631579 192.24 
L 1705.263158 192.24 
L 1675.894737 192.24 
L 1646.526316 192.218092 
L 1617.157895 192.218092 
L 1587.789474 192.218092 
L 1558.421053 192.218092 
L 1529.052632 192.218092 
L 1499.684211 192.197405 
L 1470.315789 192.197405 
L 1440.947368 192.095486 
L 1411.578947 191.940788 
L 1382.210526 191.394486 
L 1352.842105 189.115661 
L 1323.473684 187.677829 
L 1294.105263 187.127513 
L 1264.736842 186.247738 
L 1235.368421 185.944076 
L 1206 185.826759 
L 1176.631579 185.826759 
L 1147.263158 185.826759 
L 1117.894737 185.826759 
L 1088.526316 185.826759 
L 1059.157895 185.826759 
L 1029.789474 185.826759 
L 1000.421053 185.826759 
L 971.052632 185.826759 
L 941.684211 185.819974 
L 912.315789 185.819974 
L 882.947368 185.819974 
L 853.578947 185.819974 
L 824.210526 185.819974 
L 794.842105 185.819974 
L 765.473684 185.819974 
L 736.105263 185.819974 
L 706.736842 185.819974 
L 677.368421 185.819974 
L 648 185.819974 
L 618.631579 185.819974 
L 589.263158 185.819974 
L 559.894737 185.819974 
L 530.526316 185.819974 
L 501.157895 185.819974 
L 471.789474 185.841882 
L 442.421053 185.841882 
L 413.052632 185.841882 
L 383.684211 185.841882 
L 354.315789 185.841882 
L 324.947368 185.862569 
L 295.578947 185.862569 
L 266.210526 185.964488 
L 236.842105 186.119186 
L 207.473684 186.665488 
L 178.105263 188.944313 
L 148.736842 190.386509 
L 119.368421 190.936824 
L 90 191.911306 
z
" clip-path="url(#p1aeb74fffa)" style="fill: #1e90ff"/>
   </g>
   <g id="PolyCollection_3">
    <path d="M 90 191.883438 
L 90 191.911306 
L 119.368421 190.936824 
L 148.736842 190.386509 
L 178.105263 188.944313 
L 207.473684 186.665488 
L 236.842105 186.119186 
L 266.210526 185.964488 
L 295.578947 185.862569 
L 324.947368 185.862569 
L 354.315789 185.841882 
L 383.684211 185.841882 
L 413.052632 185.841882 
L 442.421053 185.841882 
L 471.789474 185.841882 
L 501.157895 185.819974 
L 530.526316 185.819974 
L 559.894737 185.819974 
L 589.263158 185.819974 
L 618.631579 185.819974 
L 648 185.819974 
L 677.368421 185.819974 
L 706.736842 185.819974 
L 736.105263 185.819974 
L 765.473684 185.819974 
L 794.842105 185.819974 
L 824.210526 185.819974 
L 853.578947 185.819974 
L 882.947368 185.819974 
L 912.315789 185.819974 
L 941.684211 185.819974 
L 971.052632 185.826759 
L 1000.421053 185.826759 
L 1029.789474 185.826759 
L 1059.157895 185.826759 
L 1088.526316 185.826759 
L 1117.894737 185.826759 
L 1147.263158 185.826759 
L 1176.631579 185.826759 
L 1206 185.826759 
L 1235.368421 185.944076 
L 1264.736842 186.247738 
L 1294.105263 187.127513 
L 1323.473684 187.677829 
L 1352.842105 189.115661 
L 1382.210526 191.394486 
L 1411.578947 191.940788 
L 1440.947368 192.095486 
L 1470.315789 192.197405 
L 1499.684211 192.197405 
L 1529.052632 192.218092 
L 1558.421053 192.218092 
L 1587.789474 192.218092 
L 1617.157895 192.218092 
L 1646.526316 192.218092 
L 1675.894737 192.24 
L 1705.263158 192.24 
L 1734.631579 192.24 
L 1764 192.24 
L 1793.368421 192.24 
L 1822.736842 192.24 
L 1852.105263 192.24 
L 1881.473684 192.24 
L 1910.842105 192.24 
L 1940.210526 192.24 
L 1969.578947 192.24 
L 1998.947368 192.24 
L 2028.315789 192.24 
L 2057.684211 192.24 
L 2087.052632 192.24 
L 2116.421053 192.24 
L 2145.789474 192.24 
L 2175.157895 192.24 
L 2204.526316 192.24 
L 2233.894737 192.24 
L 2263.263158 192.24 
L 2292.631579 192.24 
L 2322 192.24 
L 2351.368421 192.24 
L 2380.736842 192.24 
L 2410.105263 192.24 
L 2410.105263 192.24 
L 2410.105263 192.24 
L 2380.736842 192.24 
L 2351.368421 192.24 
L 2322 192.24 
L 2292.631579 192.24 
L 2263.263158 192.24 
L 2233.894737 192.24 
L 2204.526316 192.24 
L 2175.157895 192.24 
L 2145.789474 192.24 
L 2116.421053 192.24 
L 2087.052632 192.24 
L 2057.684211 192.24 
L 2028.315789 192.24 
L 1998.947368 192.24 
L 1969.578947 192.24 
L 1940.210526 192.24 
L 1910.842105 192.24 
L 1881.473684 192.24 
L 1852.105263 192.24 
L 1822.736842 192.24 
L 1793.368421 192.24 
L 1764 192.24 
L 1734.631579 192.24 
L 1705.263158 192.24 
L 1675.894737 192.24 
L 1646.526316 192.218092 
L 1617.157895 192.218092 
L 1587.789474 192.218092 
L 1558.421053 192.218092 
L 1529.052632 192.218092 
L 1499.684211 192.197405 
L 1470.315789 192.197405 
L 1440.947368 192.095486 
L 1411.578947 191.940788 
L 1382.210526 190.285743 
L 1352.842105 187.519639 
L 1323.473684 184.736979 
L 1294.105263 181.47745 
L 1264.736842 177.50497 
L 1235.368421 177.00557 
L 1206 176.888253 
L 1176.631579 176.888253 
L 1147.263158 176.888253 
L 1117.894737 176.888253 
L 1088.526316 176.888253 
L 1059.157895 176.888253 
L 1029.789474 176.888253 
L 1000.421053 176.888253 
L 971.052632 176.888253 
L 941.684211 176.881468 
L 912.315789 176.881468 
L 882.947368 176.881468 
L 853.578947 176.881468 
L 824.210526 176.881468 
L 794.842105 176.881468 
L 765.473684 176.881468 
L 736.105263 176.881468 
L 706.736842 176.881468 
L 677.368421 176.881468 
L 648 176.881468 
L 618.631579 176.881468 
L 589.263158 176.881468 
L 559.894737 176.881468 
L 530.526316 176.881468 
L 501.157895 176.881468 
L 471.789474 176.903376 
L 442.421053 176.903376 
L 413.052632 176.903376 
L 383.684211 176.903376 
L 354.315789 176.903376 
L 324.947368 176.924064 
L 295.578947 176.924064 
L 266.210526 177.025983 
L 236.842105 177.180681 
L 207.473684 178.835725 
L 178.105263 181.601829 
L 148.736842 184.388853 
L 119.368421 187.648383 
L 90 191.883438 
z
" clip-path="url(#p1aeb74fffa)" style="fill: #4682b4"/>
   </g>
   <g id="PolyCollection_4">
    <path d="M 90 191.883438 
L 90 191.883438 
L 119.368421 187.648383 
L 148.736842 184.388853 
L 178.105263 181.601829 
L 207.473684 178.835725 
L 236.842105 177.180681 
L 266.210526 177.025983 
L 295.578947 176.924064 
L 324.947368 176.924064 
L 354.315789 176.903376 
L 383.684211 176.903376 
L 413.052632 176.903376 
L 442.421053 176.903376 
L 471.789474 176.903376 
L 501.157895 176.881468 
L 530.526316 176.881468 
L 559.894737 176.881468 
L 589.263158 176.881468 
L 618.631579 176.881468 
L 648 176.881468 
L 677.368421 176.881468 
L 706.736842 176.881468 
L 736.105263 176.881468 
L 765.473684 176.881468 
L 794.842105 176.881468 
L 824.210526 176.881468 
L 853.578947 176.881468 
L 882.947368 176.881468 
L 912.315789 176.881468 
L 941.684211 176.881468 
L 971.052632 176.888253 
L 1000.421053 176.888253 
L 1029.789474 176.888253 
L 1059.157895 176.888253 
L 1088.526316 176.888253 
L 1117.894737 176.888253 
L 1147.263158 176.888253 
L 1176.631579 176.888253 
L 1206 176.888253 
L 1235.368421 177.00557 
L 1264.736842 177.50497 
L 1294.105263 181.47745 
L 1323.473684 184.736979 
L 1352.842105 187.519639 
L 1382.210526 190.285743 
L 1411.578947 191.940788 
L 1440.947368 192.095486 
L 1470.315789 192.197405 
L 1499.684211 192.197405 
L 1529.052632 192.218092 
L 1558.421053 192.218092 
L 1587.789474 192.218092 
L 1617.157895 192.218092 
L 1646.526316 192.218092 
L 1675.894737 192.24 
L 1705.263158 192.24 
L 1734.631579 192.24 
L 1764 192.24 
L 1793.368421 192.24 
L 1822.736842 192.24 
L 1852.105263 192.24 
L 1881.473684 192.24 
L 1910.842105 192.24 
L 1940.210526 192.24 
L 1969.578947 192.24 
L 1998.947368 192.24 
L 2028.315789 192.24 
L 2057.684211 192.24 
L 2087.052632 192.24 
L 2116.421053 192.24 
L 2145.789474 192.24 
L 2175.157895 192.24 
L 2204.526316 192.24 
L 2233.894737 192.24 
L 2263.263158 192.24 
L 2292.631579 192.24 
L 2322 192.24 
L 2351.368421 192.24 
L 2380.736842 192.24 
L 2410.105263 192.24 
L 2410.105263 192.24 
L 2410.105263 192.24 
L 2380.736842 192.24 
L 2351.368421 192.24 
L 2322 192.24 
L 2292.631579 192.24 
L 2263.263158 192.24 
L 2233.894737 192.24 
L 2204.526316 192.24 
L 2175.157895 192.24 
L 2145.789474 192.24 
L 2116.421053 192.24 
L 2087.052632 192.24 
L 2057.684211 192.24 
L 2028.315789 192.24 
L 1998.947368 192.24 
L 1969.578947 192.24 
L 1940.210526 192.24 
L 1910.842105 192.24 
L 1881.473684 192.24 
L 1852.105263 192.24 
L 1822.736842 192.24 
L 1793.368421 192.24 
L 1764 192.24 
L 1734.631579 192.24 
L 1705.263158 192.051736 
L 1675.894737 192.051736 
L 1646.526316 192.029828 
L 1617.157895 191.904319 
L 1587.789474 191.904319 
L 1558.421053 191.834592 
L 1529.052632 191.764725 
L 1499.684211 190.943144 
L 1470.315789 190.718105 
L 1440.947368 190.511177 
L 1411.578947 189.916047 
L 1382.210526 186.69505 
L 1352.842105 180.706132 
L 1323.473684 176.302047 
L 1294.105263 171.990064 
L 1264.736842 167.397946 
L 1235.368421 166.898546 
L 1206 166.781229 
L 1176.631579 166.781229 
L 1147.263158 166.781229 
L 1117.894737 166.781229 
L 1088.526316 166.781229 
L 1059.157895 166.781229 
L 1029.789474 166.781229 
L 1000.421053 166.781229 
L 971.052632 166.781229 
L 941.684211 166.774444 
L 912.315789 166.774444 
L 882.947368 166.774444 
L 853.578947 166.774444 
L 824.210526 166.774444 
L 794.842105 166.774444 
L 765.473684 166.774444 
L 736.105263 166.774444 
L 706.736842 166.774444 
L 677.368421 166.774444 
L 648 166.774444 
L 618.631579 166.774444 
L 589.263158 166.774444 
L 559.894737 166.774444 
L 530.526316 166.962708 
L 501.157895 166.962708 
L 471.789474 166.984616 
L 442.421053 167.110125 
L 413.052632 167.110125 
L 383.684211 167.179852 
L 354.315789 167.249719 
L 324.947368 168.0713 
L 295.578947 168.296339 
L 266.210526 168.503267 
L 236.842105 169.098397 
L 207.473684 172.319394 
L 178.105263 178.308312 
L 148.736842 182.716761 
L 119.368421 187.028744 
L 90 191.883438 
z
" clip-path="url(#p1aeb74fffa)" style="fill: #ffa500"/>
   </g>
   <g id="PolyCollection_5">
    <path d="M 90 191.883438 
L 90 191.883438 
L 119.368421 187.028744 
L 148.736842 182.716761 
L 178.105263 178.308312 
L 207.473684 172.319394 
L 236.842105 169.098397 
L 266.210526 168.503267 
L 295.578947 168.296339 
L 324.947368 168.0713 
L 354.315789 167.249719 
L 383.684211 167.179852 
L 413.052632 167.110125 
L 442.421053 167.110125 
L 471.789474 166.984616 
L 501.157895 166.962708 
L 530.526316 166.962708 
L 559.894737 166.774444 
L 589.263158 166.774444 
L 618.631579 166.774444 
L 648 166.774444 
L 677.368421 166.774444 
L 706.736842 166.774444 
L 736.105263 166.774444 
L 765.473684 166.774444 
L 794.842105 166.774444 
L 824.210526 166.774444 
L 853.578947 166.774444 
L 882.947368 166.774444 
L 912.315789 166.774444 
L 941.684211 166.774444 
L 971.052632 166.781229 
L 1000.421053 166.781229 
L 1029.789474 166.781229 
L 1059.157895 166.781229 
L 1088.526316 166.781229 
L 1117.894737 166.781229 
L 1147.263158 166.781229 
L 1176.631579 166.781229 
L 1206 166.781229 
L 1235.368421 166.898546 
L 1264.736842 167.397946 
L 1294.105263 171.990064 
L 1323.473684 176.302047 
L 1352.842105 180.706132 
L 1382.210526 186.69505 
L 1411.578947 189.916047 
L 1440.947368 190.511177 
L 1470.315789 190.718105 
L 1499.684211 190.943144 
L 1529.052632 191.764725 
L 1558.421053 191.834592 
L 1587.789474 191.904319 
L 1617.157895 191.904319 
L 1646.526316 192.029828 
L 1675.894737 192.051736 
L 1705.263158 192.051736 
L 1734.631579 192.24 
L 1764 192.24 
L 1793.368421 192.24 
L 1822.736842 192.24 
L 1852.105263 192.24 
L 1881.473684 192.24 
L 1910.842105 192.24 
L 1940.210526 192.24 
L 1969.578947 192.24 
L 1998.947368 192.24 
L 2028.315789 192.24 
L 2057.684211 192.24 
L 2087.052632 192.24 
L 2116.421053 192.24 
L 2145.789474 192.24 
L 2175.157895 192.24 
L 2204.526316 192.24 
L 2233.894737 192.24 
L 2263.263158 192.24 
L 2292.631579 192.24 
L 2322 192.24 
L 2351.368421 192.24 
L 2380.736842 192.24 
L 2410.105263 192.24 
L 2410.105263 192.24 
L 2410.105263 192.24 
L 2380.736842 192.24 
L 2351.368421 192.24 
L 2322 192.24 
L 2292.631579 192.24 
L 2263.263158 192.24 
L 2233.894737 192.24 
L 2204.526316 192.24 
L 2175.157895 192.24 
L 2145.789474 192.24 
L 2116.421053 192.24 
L 2087.052632 192.24 
L 2057.684211 192.24 
L 2028.315789 192.24 
L 1998.947368 192.24 
L 1969.578947 192.24 
L 1940.210526 192.24 
L 1910.842105 192.24 
L 1881.473684 192.24 
L 1852.105263 192.24 
L 1822.736842 192.24 
L 1793.368421 192.24 
L 1764 192.24 
L 1734.631579 192.24 
L 1705.263158 192.051736 
L 1675.894737 192.051736 
L 1646.526316 192.029828 
L 1617.157895 191.904319 
L 1587.789474 191.904319 
L 1558.421053 191.834592 
L 1529.052632 191.764725 
L 1499.684211 190.943144 
L 1470.315789 190.718105 
L 1440.947368 190.511177 
L 1411.578947 188.907195 
L 1382.210526 182.326674 
L 1352.842105 174.763411 
L 1323.473684 168.189465 
L 1294.105263 159.003493 
L 1264.736842 153.297127 
L 1235.368421 152.797727 
L 1206 152.68041 
L 1176.631579 152.68041 
L 1147.263158 152.68041 
L 1117.894737 152.68041 
L 1088.526316 152.68041 
L 1059.157895 152.68041 
L 1029.789474 152.68041 
L 1000.421053 152.68041 
L 971.052632 152.68041 
L 941.684211 152.673625 
L 912.315789 152.673625 
L 882.947368 152.673625 
L 853.578947 152.673625 
L 824.210526 152.673625 
L 794.842105 152.673625 
L 765.473684 152.673625 
L 736.105263 152.673625 
L 706.736842 152.673625 
L 677.368421 152.673625 
L 648 152.673625 
L 618.631579 152.673625 
L 589.263158 152.673625 
L 559.894737 152.673625 
L 530.526316 152.861889 
L 501.157895 152.861889 
L 471.789474 152.883797 
L 442.421053 153.009306 
L 413.052632 153.009306 
L 383.684211 153.079033 
L 354.315789 153.1489 
L 324.947368 153.970481 
L 295.578947 154.19552 
L 266.210526 154.402448 
L 236.842105 156.00643 
L 207.473684 162.586951 
L 178.105263 170.150214 
L 148.736842 176.728523 
L 119.368421 185.901746 
L 90 191.883438 
z
" clip-path="url(#p1aeb74fffa)" style="fill: #87ceeb"/>
   </g>
   <g id="PolyCollection_6">
    <path d="M 90 191.88003 
L 90 191.883438 
L 119.368421 185.901746 
L 148.736842 176.728523 
L 178.105263 170.150214 
L 207.473684 162.586951 
L 236.842105 156.00643 
L 266.210526 154.402448 
L 295.578947 154.19552 
L 324.947368 153.970481 
L 354.315789 153.1489 
L 383.684211 153.079033 
L 413.052632 153.009306 
L 442.421053 153.009306 
L 471.789474 152.883797 
L 501.157895 152.861889 
L 530.526316 152.861889 
L 559.894737 152.673625 
L 589.263158 152.673625 
L 618.631579 152.673625 
L 648 152.673625 
L 677.368421 152.673625 
L 706.736842 152.673625 
L 736.105263 152.673625 
L 765.473684 152.673625 
L 794.842105 152.673625 
L 824.210526 152.673625 
L 853.578947 152.673625 
L 882.947368 152.673625 
L 912.315789 152.673625 
L 941.684211 152.673625 
L 971.052632 152.68041 
L 1000.421053 152.68041 
L 1029.789474 152.68041 
L 1059.157895 152.68041 
L 1088.526316 152.68041 
L 1117.894737 152.68041 
L 1147.263158 152.68041 
L 1176.631579 152.68041 
L 1206 152.68041 
L 1235.368421 152.797727 
L 1264.736842 153.297127 
L 1294.105263 159.003493 
L 1323.473684 168.189465 
L 1352.842105 174.763411 
L 1382.210526 182.326674 
L 1411.578947 188.907195 
L 1440.947368 190.511177 
L 1470.315789 190.718105 
L 1499.684211 190.943144 
L 1529.052632 191.764725 
L 1558.421053 191.834592 
L 1587.789474 191.904319 
L 1617.157895 191.904319 
L 1646.526316 192.029828 
L 1675.894737 192.051736 
L 1705.263158 192.051736 
L 1734.631579 192.24 
L 1764 192.24 
L 1793.368421 192.24 
L 1822.736842 192.24 
L 1852.105263 192.24 
L 1881.473684 192.24 
L 1910.842105 192.24 
L 1940.210526 192.24 
L 1969.578947 192.24 
L 1998.947368 192.24 
L 2028.315789 192.24 
L 2057.684211 192.24 
L 2087.052632 192.24 
L 2116.421053 192.24 
L 2145.789474 192.24 
L 2175.157895 192.24 
L 2204.526316 192.24 
L 2233.894737 192.24 
L 2263.263158 192.24 
L 2292.631579 192.24 
L 2322 192.24 
L 2351.368421 192.24 
L 2380.736842 192.24 
L 2410.105263 192.24 
L 2410.105263 192.24 
L 2410.105263 192.24 
L 2380.736842 192.24 
L 2351.368421 192.24 
L 2322 192.24 
L 2292.631579 192.24 
L 2263.263158 192.24 
L 2233.894737 192.24 
L 2204.526316 192.24 
L 2175.157895 192.24 
L 2145.789474 192.24 
L 2116.421053 192.24 
L 2087.052632 192.24 
L 2057.684211 192.24 
L 2028.315789 192.24 
L 1998.947368 192.24 
L 1969.578947 192.24 
L 1940.210526 192.24 
L 1910.842105 192.24 
L 1881.473684 192.24 
L 1852.105263 192.24 
L 1822.736842 192.24 
L 1793.368421 192.24 
L 1764 192.24 
L 1734.631579 192.24 
L 1705.263158 192.051736 
L 1675.894737 192.051736 
L 1646.526316 192.029828 
L 1617.157895 191.772215 
L 1587.789474 191.772215 
L 1558.421053 191.619922 
L 1529.052632 191.46749 
L 1499.684211 190.576557 
L 1470.315789 190.145105 
L 1440.947368 189.731929 
L 1411.578947 187.745112 
L 1382.210526 180.639694 
L 1352.842105 172.033051 
L 1323.473684 164.454034 
L 1294.105263 153.686701 
L 1264.736842 147.145279 
L 1235.368421 146.623586 
L 1206 146.506269 
L 1176.631579 146.506269 
L 1147.263158 146.506269 
L 1117.894737 146.506269 
L 1088.526316 146.506269 
L 1059.157895 146.506269 
L 1029.789474 146.189218 
L 1000.421053 146.189218 
L 971.052632 145.880094 
L 941.684211 145.87331 
L 912.315789 145.87331 
L 882.947368 145.87331 
L 853.578947 145.87331 
L 824.210526 145.87331 
L 794.842105 145.87331 
L 765.473684 145.87331 
L 736.105263 145.87331 
L 706.736842 145.87331 
L 677.368421 145.87331 
L 648 145.87331 
L 618.631579 145.87331 
L 589.263158 145.87331 
L 559.894737 145.87331 
L 530.526316 146.061573 
L 501.157895 146.061573 
L 471.789474 146.083481 
L 442.421053 146.341095 
L 413.052632 146.341095 
L 383.684211 146.493387 
L 354.315789 146.645819 
L 324.947368 147.536752 
L 295.578947 147.968204 
L 266.210526 148.381381 
L 236.842105 150.368198 
L 207.473684 157.473616 
L 178.105263 166.080259 
L 148.736842 173.822164 
L 119.368421 184.889835 
L 90 191.88003 
z
" clip-path="url(#p1aeb74fffa)" style="fill: #00bfff"/>
   </g>
   <g id="PolyCollection_7">
    <path d="M 90 191.878603 
L 90 191.88003 
L 119.368421 184.889835 
L 148.736842 173.822164 
L 178.105263 166.080259 
L 207.473684 157.473616 
L 236.842105 150.368198 
L 266.210526 148.381381 
L 295.578947 147.968204 
L 324.947368 147.536752 
L 354.315789 146.645819 
L 383.684211 146.493387 
L 413.052632 146.341095 
L 442.421053 146.341095 
L 471.789474 146.083481 
L 501.157895 146.061573 
L 530.526316 146.061573 
L 559.894737 145.87331 
L 589.263158 145.87331 
L 618.631579 145.87331 
L 648 145.87331 
L 677.368421 145.87331 
L 706.736842 145.87331 
L 736.105263 145.87331 
L 765.473684 145.87331 
L 794.842105 145.87331 
L 824.210526 145.87331 
L 853.578947 145.87331 
L 882.947368 145.87331 
L 912.315789 145.87331 
L 941.684211 145.87331 
L 971.052632 145.880094 
L 1000.421053 146.189218 
L 1029.789474 146.189218 
L 1059.157895 146.506269 
L 1088.526316 146.506269 
L 1117.894737 146.506269 
L 1147.263158 146.506269 
L 1176.631579 146.506269 
L 1206 146.506269 
L 1235.368421 146.623586 
L 1264.736842 147.145279 
L 1294.105263 153.686701 
L 1323.473684 164.454034 
L 1352.842105 172.033051 
L 1382.210526 180.639694 
L 1411.578947 187.745112 
L 1440.947368 189.731929 
L 1470.315789 190.145105 
L 1499.684211 190.576557 
L 1529.052632 191.46749 
L 1558.421053 191.619922 
L 1587.789474 191.772215 
L 1617.157895 191.772215 
L 1646.526316 192.029828 
L 1675.894737 192.051736 
L 1705.263158 192.051736 
L 1734.631579 192.24 
L 1764 192.24 
L 1793.368421 192.24 
L 1822.736842 192.24 
L 1852.105263 192.24 
L 1881.473684 192.24 
L 1910.842105 192.24 
L 1940.210526 192.24 
L 1969.578947 192.24 
L 1998.947368 192.24 
L 2028.315789 192.24 
L 2057.684211 192.24 
L 2087.052632 192.24 
L 2116.421053 192.24 
L 2145.789474 192.24 
L 2175.157895 192.24 
L 2204.526316 192.24 
L 2233.894737 192.24 
L 2263.263158 192.24 
L 2292.631579 192.24 
L 2322 192.24 
L 2351.368421 192.24 
L 2380.736842 192.24 
L 2410.105263 192.24 
L 2410.105263 192.24 
L 2410.105263 192.24 
L 2380.736842 192.24 
L 2351.368421 192.24 
L 2322 192.24 
L 2292.631579 192.24 
L 2263.263158 192.24 
L 2233.894737 192.24 
L 2204.526316 192.24 
L 2175.157895 192.24 
L 2145.789474 192.24 
L 2116.421053 192.24 
L 2087.052632 192.24 
L 2057.684211 192.24 
L 2028.315789 192.24 
L 1998.947368 192.24 
L 1969.578947 192.24 
L 1940.210526 192.24 
L 1910.842105 192.24 
L 1881.473684 192.24 
L 1852.105263 192.24 
L 1822.736842 192.24 
L 1793.368421 192.24 
L 1764 192.24 
L 1734.631579 192.24 
L 1705.263158 192.051736 
L 1675.894737 192.051736 
L 1646.526316 192.029828 
L 1617.157895 191.772215 
L 1587.789474 191.772215 
L 1558.421053 191.619922 
L 1529.052632 191.46749 
L 1499.684211 190.518823 
L 1470.315789 190.087371 
L 1440.947368 189.674194 
L 1411.578947 187.540588 
L 1382.210526 180.310861 
L 1352.842105 170.896955 
L 1323.473684 162.459505 
L 1294.105263 150.188237 
L 1264.736842 143.11457 
L 1235.368421 142.583057 
L 1206 142.46574 
L 1176.631579 142.46574 
L 1147.263158 142.46574 
L 1117.894737 142.46574 
L 1088.526316 142.46574 
L 1059.157895 142.46574 
L 1029.789474 142.148689 
L 1000.421053 142.148689 
L 971.052632 141.839565 
L 941.684211 141.83278 
L 912.315789 141.83278 
L 882.947368 141.807844 
L 853.578947 141.807844 
L 824.210526 141.807844 
L 794.842105 141.807844 
L 765.473684 141.807844 
L 736.105263 141.807844 
L 706.736842 141.807844 
L 677.368421 141.807844 
L 648 141.807844 
L 618.631579 141.807844 
L 589.263158 141.807844 
L 559.894737 141.807844 
L 530.526316 141.996108 
L 501.157895 141.996108 
L 471.789474 142.018016 
L 442.421053 142.275629 
L 413.052632 142.275629 
L 383.684211 142.427922 
L 354.315789 142.580354 
L 324.947368 143.529021 
L 295.578947 143.926947 
L 266.210526 144.239759 
L 236.842105 146.373366 
L 207.473684 153.603093 
L 178.105263 163.016999 
L 148.736842 171.642274 
L 119.368421 184.247406 
L 90 191.878603 
z
" clip-path="url(#p1aeb74fffa)" style="fill: #add8e6"/>
   </g>
   <g id="PolyCollection_8">
    <path d="M 90 191.800904 
L 90 191.878603 
L 119.368421 184.247406 
L 148.736842 171.642274 
L 178.105263 163.016999 
L 207.473684 153.603093 
L 236.842105 146.373366 
L 266.210526 144.239759 
L 295.578947 143.926947 
L 324.947368 143.529021 
L 354.315789 142.580354 
L 383.684211 142.427922 
L 413.052632 142.275629 
L 442.421053 142.275629 
L 471.789474 142.018016 
L 501.157895 141.996108 
L 530.526316 141.996108 
L 559.894737 141.807844 
L 589.263158 141.807844 
L 618.631579 141.807844 
L 648 141.807844 
L 677.368421 141.807844 
L 706.736842 141.807844 
L 736.105263 141.807844 
L 765.473684 141.807844 
L 794.842105 141.807844 
L 824.210526 141.807844 
L 853.578947 141.807844 
L 882.947368 141.807844 
L 912.315789 141.83278 
L 941.684211 141.83278 
L 971.052632 141.839565 
L 1000.421053 142.148689 
L 1029.789474 142.148689 
L 1059.157895 142.46574 
L 1088.526316 142.46574 
L 1117.894737 142.46574 
L 1147.263158 142.46574 
L 1176.631579 142.46574 
L 1206 142.46574 
L 1235.368421 142.583057 
L 1264.736842 143.11457 
L 1294.105263 150.188237 
L 1323.473684 162.459505 
L 1352.842105 170.896955 
L 1382.210526 180.310861 
L 1411.578947 187.540588 
L 1440.947368 189.674194 
L 1470.315789 190.087371 
L 1499.684211 190.518823 
L 1529.052632 191.46749 
L 1558.421053 191.619922 
L 1587.789474 191.772215 
L 1617.157895 191.772215 
L 1646.526316 192.029828 
L 1675.894737 192.051736 
L 1705.263158 192.051736 
L 1734.631579 192.24 
L 1764 192.24 
L 1793.368421 192.24 
L 1822.736842 192.24 
L 1852.105263 192.24 
L 1881.473684 192.24 
L 1910.842105 192.24 
L 1940.210526 192.24 
L 1969.578947 192.24 
L 1998.947368 192.24 
L 2028.315789 192.24 
L 2057.684211 192.24 
L 2087.052632 192.24 
L 2116.421053 192.24 
L 2145.789474 192.24 
L 2175.157895 192.24 
L 2204.526316 192.24 
L 2233.894737 192.24 
L 2263.263158 192.24 
L 2292.631579 192.24 
L 2322 192.24 
L 2351.368421 192.24 
L 2380.736842 192.24 
L 2410.105263 192.24 
L 2410.105263 192.24 
L 2410.105263 192.24 
L 2380.736842 192.24 
L 2351.368421 192.24 
L 2322 192.24 
L 2292.631579 192.24 
L 2263.263158 192.24 
L 2233.894737 192.24 
L 2204.526316 192.24 
L 2175.157895 192.24 
L 2145.789474 192.24 
L 2116.421053 192.24 
L 2087.052632 192.24 
L 2057.684211 192.24 
L 2028.315789 192.24 
L 1998.947368 192.24 
L 1969.578947 192.24 
L 1940.210526 191.99971 
L 1910.842105 191.99971 
L 1881.473684 191.99971 
L 1852.105263 191.99971 
L 1822.736842 191.99971 
L 1793.368421 190.912782 
L 1764 190.912782 
L 1734.631579 190.912782 
L 1705.263158 190.724518 
L 1675.894737 190.724518 
L 1646.526316 189.445991 
L 1617.157895 189.188378 
L 1587.789474 189.188378 
L 1558.421053 189.036085 
L 1529.052632 188.688692 
L 1499.684211 185.483473 
L 1470.315789 184.915954 
L 1440.947368 183.738135 
L 1411.578947 179.761409 
L 1382.210526 168.305777 
L 1352.842105 153.568901 
L 1323.473684 142.316504 
L 1294.105263 125.739524 
L 1264.736842 114.882689 
L 1235.368421 114.038458 
L 1206 113.921141 
L 1176.631579 113.921141 
L 1147.263158 113.921141 
L 1117.894737 113.874275 
L 1088.526316 113.874275 
L 1059.157895 113.874275 
L 1029.789474 113.557225 
L 1000.421053 113.557225 
L 971.052632 113.248101 
L 941.684211 113.19445 
L 912.315789 113.163207 
L 882.947368 113.13827 
L 853.578947 113.13827 
L 824.210526 113.107026 
L 794.842105 113.107026 
L 765.473684 113.347316 
L 736.105263 113.347316 
L 706.736842 113.347316 
L 677.368421 113.347316 
L 648 113.347316 
L 618.631579 114.434244 
L 589.263158 114.434244 
L 559.894737 114.434244 
L 530.526316 114.622508 
L 501.157895 114.669374 
L 471.789474 115.947901 
L 442.421053 116.205514 
L 413.052632 116.205514 
L 383.684211 116.404672 
L 354.315789 116.752065 
L 324.947368 119.957285 
L 295.578947 120.491277 
L 266.210526 121.568732 
L 236.842105 125.545459 
L 207.473684 137.047956 
L 178.105263 151.816075 
L 148.736842 163.256298 
L 119.368421 180.167142 
L 90 191.800904 
z
" clip-path="url(#p1aeb74fffa)" style="fill: #b0e0e6"/>
   </g>
   <g id="PolyCollection_9">
    <path d="M 90 188.980107 
L 90 191.800904 
L 119.368421 180.167142 
L 148.736842 163.256298 
L 178.105263 151.816075 
L 207.473684 137.047956 
L 236.842105 125.545459 
L 266.210526 121.568732 
L 295.578947 120.491277 
L 324.947368 119.957285 
L 354.315789 116.752065 
L 383.684211 116.404672 
L 413.052632 116.205514 
L 442.421053 116.205514 
L 471.789474 115.947901 
L 501.157895 114.669374 
L 530.526316 114.622508 
L 559.894737 114.434244 
L 589.263158 114.434244 
L 618.631579 114.434244 
L 648 113.347316 
L 677.368421 113.347316 
L 706.736842 113.347316 
L 736.105263 113.347316 
L 765.473684 113.347316 
L 794.842105 113.107026 
L 824.210526 113.107026 
L 853.578947 113.13827 
L 882.947368 113.13827 
L 912.315789 113.163207 
L 941.684211 113.19445 
L 971.052632 113.248101 
L 1000.421053 113.557225 
L 1029.789474 113.557225 
L 1059.157895 113.874275 
L 1088.526316 113.874275 
L 1117.894737 113.874275 
L 1147.263158 113.921141 
L 1176.631579 113.921141 
L 1206 113.921141 
L 1235.368421 114.038458 
L 1264.736842 114.882689 
L 1294.105263 125.739524 
L 1323.473684 142.316504 
L 1352.842105 153.568901 
L 1382.210526 168.305777 
L 1411.578947 179.761409 
L 1440.947368 183.738135 
L 1470.315789 184.915954 
L 1499.684211 185.483473 
L 1529.052632 188.688692 
L 1558.421053 189.036085 
L 1587.789474 189.188378 
L 1617.157895 189.188378 
L 1646.526316 189.445991 
L 1675.894737 190.724518 
L 1705.263158 190.724518 
L 1734.631579 190.912782 
L 1764 190.912782 
L 1793.368421 190.912782 
L 1822.736842 191.99971 
L 1852.105263 191.99971 
L 1881.473684 191.99971 
L 1910.842105 191.99971 
L 1940.210526 191.99971 
L 1969.578947 192.24 
L 1998.947368 192.24 
L 2028.315789 192.24 
L 2057.684211 192.24 
L 2087.052632 192.24 
L 2116.421053 192.24 
L 2145.789474 192.24 
L 2175.157895 192.24 
L 2204.526316 192.24 
L 2233.894737 192.24 
L 2263.263158 192.24 
L 2292.631579 192.24 
L 2322 192.24 
L 2351.368421 192.24 
L 2380.736842 192.24 
L 2410.105263 192.24 
L 2410.105263 192.24 
L 2410.105263 192.24 
L 2380.736842 192.24 
L 2351.368421 192.24 
L 2322 192.24 
L 2292.631579 192.24 
L 2263.263158 192.24 
L 2233.894737 192.24 
L 2204.526316 192.24 
L 2175.157895 192.24 
L 2145.789474 192.24 
L 2116.421053 192.24 
L 2087.052632 192.24 
L 2057.684211 192.24 
L 2028.315789 192.24 
L 1998.947368 192.24 
L 1969.578947 192.24 
L 1940.210526 191.99971 
L 1910.842105 191.99971 
L 1881.473684 191.99971 
L 1852.105263 191.99971 
L 1822.736842 191.99971 
L 1793.368421 190.912782 
L 1764 190.912782 
L 1734.631579 190.912782 
L 1705.263158 190.724518 
L 1675.894737 190.724518 
L 1646.526316 189.445991 
L 1617.157895 189.188378 
L 1587.789474 189.188378 
L 1558.421053 189.036085 
L 1529.052632 188.688692 
L 1499.684211 185.438499 
L 1470.315789 184.870981 
L 1440.947368 183.693162 
L 1411.578947 179.716435 
L 1382.210526 165.902024 
L 1352.842105 125.349978 
L 1323.473684 104.599501 
L 1294.105263 71.011854 
L 1264.736842 56.476684 
L 1235.368421 53.566198 
L 1206 52.669856 
L 1176.631579 52.669856 
L 1147.263158 52.669856 
L 1117.894737 52.622991 
L 1088.526316 52.622991 
L 1059.157895 52.622991 
L 1029.789474 52.30594 
L 1000.421053 52.30594 
L 971.052632 51.996816 
L 941.684211 51.943166 
L 912.315789 51.911922 
L 882.947368 51.886986 
L 853.578947 51.886986 
L 824.210526 51.855742 
L 794.842105 51.855742 
L 765.473684 52.096032 
L 736.105263 52.096032 
L 706.736842 52.096032 
L 677.368421 52.096032 
L 648 52.096032 
L 618.631579 53.18296 
L 589.263158 53.18296 
L 559.894737 53.18296 
L 530.526316 53.371224 
L 501.157895 53.418089 
L 471.789474 54.696616 
L 442.421053 54.95423 
L 413.052632 54.95423 
L 383.684211 55.153388 
L 354.315789 55.500781 
L 324.947368 58.750974 
L 295.578947 59.284966 
L 266.210526 60.362422 
L 236.842105 64.339148 
L 207.473684 78.200425 
L 178.105263 118.783714 
L 148.736842 139.722017 
L 119.368421 173.643527 
L 90 188.980107 
z
" clip-path="url(#p1aeb74fffa)" style="fill: #008000"/>
   </g>
   <g id="PolyCollection_10">
    <path d="M 90 188.966063 
L 90 188.980107 
L 119.368421 173.643527 
L 148.736842 139.722017 
L 178.105263 118.783714 
L 207.473684 78.200425 
L 236.842105 64.339148 
L 266.210526 60.362422 
L 295.578947 59.284966 
L 324.947368 58.750974 
L 354.315789 55.500781 
L 383.684211 55.153388 
L 413.052632 54.95423 
L 442.421053 54.95423 
L 471.789474 54.696616 
L 501.157895 53.418089 
L 530.526316 53.371224 
L 559.894737 53.18296 
L 589.263158 53.18296 
L 618.631579 53.18296 
L 648 52.096032 
L 677.368421 52.096032 
L 706.736842 52.096032 
L 736.105263 52.096032 
L 765.473684 52.096032 
L 794.842105 51.855742 
L 824.210526 51.855742 
L 853.578947 51.886986 
L 882.947368 51.886986 
L 912.315789 51.911922 
L 941.684211 51.943166 
L 971.052632 51.996816 
L 1000.421053 52.30594 
L 1029.789474 52.30594 
L 1059.157895 52.622991 
L 1088.526316 52.622991 
L 1117.894737 52.622991 
L 1147.263158 52.669856 
L 1176.631579 52.669856 
L 1206 52.669856 
L 1235.368421 53.566198 
L 1264.736842 56.476684 
L 1294.105263 71.011854 
L 1323.473684 104.599501 
L 1352.842105 125.349978 
L 1382.210526 165.902024 
L 1411.578947 179.716435 
L 1440.947368 183.693162 
L 1470.315789 184.870981 
L 1499.684211 185.438499 
L 1529.052632 188.688692 
L 1558.421053 189.036085 
L 1587.789474 189.188378 
L 1617.157895 189.188378 
L 1646.526316 189.445991 
L 1675.894737 190.724518 
L 1705.263158 190.724518 
L 1734.631579 190.912782 
L 1764 190.912782 
L 1793.368421 190.912782 
L 1822.736842 191.99971 
L 1852.105263 191.99971 
L 1881.473684 191.99971 
L 1910.842105 191.99971 
L 1940.210526 191.99971 
L 1969.578947 192.24 
L 1998.947368 192.24 
L 2028.315789 192.24 
L 2057.684211 192.24 
L 2087.052632 192.24 
L 2116.421053 192.24 
L 2145.789474 192.24 
L 2175.157895 192.24 
L 2204.526316 192.24 
L 2233.894737 192.24 
L 2263.263158 192.24 
L 2292.631579 192.24 
L 2322 192.24 
L 2351.368421 192.24 
L 2380.736842 192.24 
L 2410.105263 192.24 
L 2410.105263 192.24 
L 2410.105263 192.24 
L 2380.736842 192.24 
L 2351.368421 192.24 
L 2322 192.24 
L 2292.631579 192.24 
L 2263.263158 192.24 
L 2233.894737 192.24 
L 2204.526316 192.24 
L 2175.157895 192.24 
L 2145.789474 192.24 
L 2116.421053 192.24 
L 2087.052632 192.24 
L 2057.684211 192.24 
L 2028.315789 192.24 
L 1998.947368 192.24 
L 1969.578947 192.24 
L 1940.210526 191.99971 
L 1910.842105 191.99971 
L 1881.473684 191.99971 
L 1852.105263 191.99971 
L 1822.736842 191.99971 
L 1793.368421 190.912782 
L 1764 190.912782 
L 1734.631579 190.912782 
L 1705.263158 190.724518 
L 1675.894737 190.724518 
L 1646.526316 189.445991 
L 1617.157895 189.188378 
L 1587.789474 189.188378 
L 1558.421053 189.036085 
L 1529.052632 188.688692 
L 1499.684211 185.438499 
L 1470.315789 184.870981 
L 1440.947368 183.693162 
L 1411.578947 179.346295 
L 1382.210526 164.898018 
L 1352.842105 121.088737 
L 1323.473684 95.795302 
L 1294.105263 58.388269 
L 1264.736842 42.41315 
L 1235.368421 39.426195 
L 1206 38.529853 
L 1176.631579 38.529853 
L 1147.263158 38.529853 
L 1117.894737 38.482987 
L 1088.526316 38.482987 
L 1059.157895 38.482987 
L 1029.789474 38.165937 
L 1000.421053 38.165937 
L 971.052632 37.856813 
L 941.684211 37.803162 
L 912.315789 37.771919 
L 882.947368 37.746982 
L 853.578947 37.746982 
L 824.210526 37.715739 
L 794.842105 37.715739 
L 765.473684 37.956028 
L 736.105263 37.956028 
L 706.736842 37.956028 
L 677.368421 37.956028 
L 648 37.956028 
L 618.631579 39.042956 
L 589.263158 39.042956 
L 559.894737 39.042956 
L 530.526316 39.23122 
L 501.157895 39.278086 
L 471.789474 40.556613 
L 442.421053 40.814226 
L 413.052632 40.814226 
L 383.684211 41.013384 
L 354.315789 41.360777 
L 324.947368 44.61097 
L 295.578947 45.144963 
L 266.210526 46.222418 
L 236.842105 50.569285 
L 207.473684 65.064427 
L 178.105263 108.904951 
L 148.736842 134.386213 
L 119.368421 172.127109 
L 90 188.966063 
z
" clip-path="url(#p1aeb74fffa)" style="fill: #00ced1"/>
   </g>
   <g id="PolyCollection_11">
    <path d="M 90 188.966063 
L 90 188.966063 
L 119.368421 172.127109 
L 148.736842 134.386213 
L 178.105263 108.904951 
L 207.473684 65.064427 
L 236.842105 50.569285 
L 266.210526 46.222418 
L 295.578947 45.144963 
L 324.947368 44.61097 
L 354.315789 41.360777 
L 383.684211 41.013384 
L 413.052632 40.814226 
L 442.421053 40.814226 
L 471.789474 40.556613 
L 501.157895 39.278086 
L 530.526316 39.23122 
L 559.894737 39.042956 
L 589.263158 39.042956 
L 618.631579 39.042956 
L 648 37.956028 
L 677.368421 37.956028 
L 706.736842 37.956028 
L 736.105263 37.956028 
L 765.473684 37.956028 
L 794.842105 37.715739 
L 824.210526 37.715739 
L 853.578947 37.746982 
L 882.947368 37.746982 
L 912.315789 37.771919 
L 941.684211 37.803162 
L 971.052632 37.856813 
L 1000.421053 38.165937 
L 1029.789474 38.165937 
L 1059.157895 38.482987 
L 1088.526316 38.482987 
L 1117.894737 38.482987 
L 1147.263158 38.529853 
L 1176.631579 38.529853 
L 1206 38.529853 
L 1235.368421 39.426195 
L 1264.736842 42.41315 
L 1294.105263 58.388269 
L 1323.473684 95.795302 
L 1352.842105 121.088737 
L 1382.210526 164.898018 
L 1411.578947 179.346295 
L 1440.947368 183.693162 
L 1470.315789 184.870981 
L 1499.684211 185.438499 
L 1529.052632 188.688692 
L 1558.421053 189.036085 
L 1587.789474 189.188378 
L 1617.157895 189.188378 
L 1646.526316 189.445991 
L 1675.894737 190.724518 
L 1705.263158 190.724518 
L 1734.631579 190.912782 
L 1764 190.912782 
L 1793.368421 190.912782 
L 1822.736842 191.99971 
L 1852.105263 191.99971 
L 1881.473684 191.99971 
L 1910.842105 191.99971 
L 1940.210526 191.99971 
L 1969.578947 192.24 
L 1998.947368 192.24 
L 2028.315789 192.24 
L 2057.684211 192.24 
L 2087.052632 192.24 
L 2116.421053 192.24 
L 2145.789474 192.24 
L 2175.157895 192.24 
L 2204.526316 192.24 
L 2233.894737 192.24 
L 2263.263158 192.24 
L 2292.631579 192.24 
L 2322 192.24 
L 2351.368421 192.24 
L 2380.736842 192.24 
L 2410.105263 192.24 
L 2410.105263 192.24 
L 2410.105263 192.24 
L 2380.736842 192.24 
L 2351.368421 192.24 
L 2322 192.24 
L 2292.631579 192.24 
L 2263.263158 192.24 
L 2233.894737 192.24 
L 2204.526316 192.24 
L 2175.157895 192.24 
L 2145.789474 192.24 
L 2116.421053 192.24 
L 2087.052632 192.24 
L 2057.684211 192.24 
L 2028.315789 192.24 
L 1998.947368 192.24 
L 1969.578947 192.24 
L 1940.210526 191.99971 
L 1910.842105 191.99971 
L 1881.473684 191.99971 
L 1852.105263 191.99971 
L 1822.736842 191.99971 
L 1793.368421 190.912782 
L 1764 190.912782 
L 1734.631579 190.912782 
L 1705.263158 190.724518 
L 1675.894737 190.724518 
L 1646.526316 189.445991 
L 1617.157895 189.188378 
L 1587.789474 189.188378 
L 1558.421053 189.036085 
L 1529.052632 188.688692 
L 1499.684211 185.438499 
L 1470.315789 184.870981 
L 1440.947368 183.693162 
L 1411.578947 179.264907 
L 1382.210526 164.736138 
L 1352.842105 120.895555 
L 1323.473684 95.17649 
L 1294.105263 57.298664 
L 1264.736842 40.912852 
L 1235.368421 37.925897 
L 1206 37.029555 
L 1176.631579 37.029555 
L 1147.263158 37.029555 
L 1117.894737 36.982689 
L 1088.526316 36.982689 
L 1059.157895 36.982689 
L 1029.789474 36.665639 
L 1000.421053 36.665639 
L 971.052632 36.356515 
L 941.684211 36.302864 
L 912.315789 36.271621 
L 882.947368 36.246684 
L 853.578947 36.246684 
L 824.210526 36.215441 
L 794.842105 36.215441 
L 765.473684 36.45573 
L 736.105263 36.45573 
L 706.736842 36.45573 
L 677.368421 36.45573 
L 648 36.45573 
L 618.631579 37.542658 
L 589.263158 37.542658 
L 559.894737 37.542658 
L 530.526316 37.730922 
L 501.157895 37.777788 
L 471.789474 39.056315 
L 442.421053 39.313928 
L 413.052632 39.313928 
L 383.684211 39.513086 
L 354.315789 39.860479 
L 324.947368 43.110672 
L 295.578947 43.644665 
L 266.210526 44.72212 
L 236.842105 49.150374 
L 207.473684 63.726009 
L 178.105263 107.597836 
L 148.736842 133.504726 
L 119.368421 171.716416 
L 90 188.966063 
z
" clip-path="url(#p1aeb74fffa)" style="fill: #00ffff"/>
   </g>
   <g id="PolyCollection_12">
    <path d="M 90 188.943304 
L 90 188.966063 
L 119.368421 171.716416 
L 148.736842 133.504726 
L 178.105263 107.597836 
L 207.473684 63.726009 
L 236.842105 49.150374 
L 266.210526 44.72212 
L 295.578947 43.644665 
L 324.947368 43.110672 
L 354.315789 39.860479 
L 383.684211 39.513086 
L 413.052632 39.313928 
L 442.421053 39.313928 
L 471.789474 39.056315 
L 501.157895 37.777788 
L 530.526316 37.730922 
L 559.894737 37.542658 
L 589.263158 37.542658 
L 618.631579 37.542658 
L 648 36.45573 
L 677.368421 36.45573 
L 706.736842 36.45573 
L 736.105263 36.45573 
L 765.473684 36.45573 
L 794.842105 36.215441 
L 824.210526 36.215441 
L 853.578947 36.246684 
L 882.947368 36.246684 
L 912.315789 36.271621 
L 941.684211 36.302864 
L 971.052632 36.356515 
L 1000.421053 36.665639 
L 1029.789474 36.665639 
L 1059.157895 36.982689 
L 1088.526316 36.982689 
L 1117.894737 36.982689 
L 1147.263158 37.029555 
L 1176.631579 37.029555 
L 1206 37.029555 
L 1235.368421 37.925897 
L 1264.736842 40.912852 
L 1294.105263 57.298664 
L 1323.473684 95.17649 
L 1352.842105 120.895555 
L 1382.210526 164.736138 
L 1411.578947 179.264907 
L 1440.947368 183.693162 
L 1470.315789 184.870981 
L 1499.684211 185.438499 
L 1529.052632 188.688692 
L 1558.421053 189.036085 
L 1587.789474 189.188378 
L 1617.157895 189.188378 
L 1646.526316 189.445991 
L 1675.894737 190.724518 
L 1705.263158 190.724518 
L 1734.631579 190.912782 
L 1764 190.912782 
L 1793.368421 190.912782 
L 1822.736842 191.99971 
L 1852.105263 191.99971 
L 1881.473684 191.99971 
L 1910.842105 191.99971 
L 1940.210526 191.99971 
L 1969.578947 192.24 
L 1998.947368 192.24 
L 2028.315789 192.24 
L 2057.684211 192.24 
L 2087.052632 192.24 
L 2116.421053 192.24 
L 2145.789474 192.24 
L 2175.157895 192.24 
L 2204.526316 192.24 
L 2233.894737 192.24 
L 2263.263158 192.24 
L 2292.631579 192.24 
L 2322 192.24 
L 2351.368421 192.24 
L 2380.736842 192.24 
L 2410.105263 192.24 
L 2410.105263 192.24 
L 2410.105263 192.24 
L 2380.736842 192.24 
L 2351.368421 192.24 
L 2322 192.24 
L 2292.631579 192.24 
L 2263.263158 192.24 
L 2233.894737 192.24 
L 2204.526316 192.24 
L 2175.157895 192.24 
L 2145.789474 192.24 
L 2116.421053 192.24 
L 2087.052632 192.24 
L 2057.684211 192.24 
L 2028.315789 192.24 
L 1998.947368 192.24 
L 1969.578947 192.24 
L 1940.210526 191.99971 
L 1910.842105 191.99971 
L 1881.473684 191.99971 
L 1852.105263 191.99971 
L 1822.736842 191.99971 
L 1793.368421 190.912782 
L 1764 190.912782 
L 1734.631579 190.912782 
L 1705.263158 190.724518 
L 1675.894737 190.724518 
L 1646.526316 189.445991 
L 1617.157895 189.188378 
L 1587.789474 189.188378 
L 1558.421053 189.036085 
L 1529.052632 188.688692 
L 1499.684211 185.40644 
L 1470.315789 184.838922 
L 1440.947368 183.589912 
L 1411.578947 179.125908 
L 1382.210526 164.267707 
L 1352.842105 119.855675 
L 1323.473684 94.004377 
L 1294.105263 55.480297 
L 1264.736842 38.663802 
L 1235.368421 35.676847 
L 1206 34.780505 
L 1176.631579 34.780505 
L 1147.263158 34.780505 
L 1117.894737 34.73364 
L 1088.526316 34.73364 
L 1059.157895 34.73364 
L 1029.789474 34.416589 
L 1000.421053 34.416589 
L 971.052632 34.107465 
L 941.684211 33.999922 
L 912.315789 33.914785 
L 882.947368 33.889849 
L 853.578947 33.871244 
L 824.210526 33.84 
L 794.842105 33.84 
L 765.473684 34.08029 
L 736.105263 34.08029 
L 706.736842 34.08029 
L 677.368421 34.08029 
L 648 34.08029 
L 618.631579 35.139541 
L 589.263158 35.139541 
L 559.894737 35.111864 
L 530.526316 35.257229 
L 501.157895 35.276418 
L 471.789474 36.554945 
L 442.421053 36.812558 
L 413.052632 36.812558 
L 383.684211 37.011716 
L 354.315789 37.359109 
L 324.947368 40.641361 
L 295.578947 41.175353 
L 266.210526 42.324 
L 236.842105 46.788003 
L 207.473684 61.69307 
L 178.105263 106.136346 
L 148.736842 132.17547 
L 119.368421 171.033413 
L 90 188.943304 
z
" clip-path="url(#p1aeb74fffa)" style="fill: #ff0000"/>
   </g>
   <g id="matplotlib.axis_1">
    <g id="xtick_1">
     <g id="line2d_1">
      <defs>
       <path id="m9f22dda500" d="M 0 0 
L 0 3.5 
" style="stroke: #000000; stroke-width: 0.8"/>
      </defs>
      <g>
       <use xlink:href="#m9f22dda500" x="134.052632" y="192.24" style="stroke: #000000; stroke-width: 0.8"/>
      </g>
     </g>
     <g id="text_1">
      <!-- 2022.5 -->
      <g transform="translate(116.557319 206.838437) scale(0.1 -0.1)">
       <defs>
        <path id="DejaVuSans-32" d="M 1228 531 
L 3431 531 
L 3431 0 
L 469 0 
L 469 531 
Q 828 903 1448 1529 
Q 2069 2156 2228 2338 
Q 2531 2678 2651 2914 
Q 2772 3150 2772 3378 
Q 2772 3750 2511 3984 
Q 2250 4219 1831 4219 
Q 1534 4219 1204 4116 
Q 875 4013 500 3803 
L 500 4441 
Q 881 4594 1212 4672 
Q 1544 4750 1819 4750 
Q 2544 4750 2975 4387 
Q 3406 4025 3406 3419 
Q 3406 3131 3298 2873 
Q 3191 2616 2906 2266 
Q 2828 2175 2409 1742 
Q 1991 1309 1228 531 
z
" transform="scale(0.015625)"/>
        <path id="DejaVuSans-30" d="M 2034 4250 
Q 1547 4250 1301 3770 
Q 1056 3291 1056 2328 
Q 1056 1369 1301 889 
Q 1547 409 2034 409 
Q 2525 409 2770 889 
Q 3016 1369 3016 2328 
Q 3016 3291 2770 3770 
Q 2525 4250 2034 4250 
z
M 2034 4750 
Q 2819 4750 3233 4129 
Q 3647 3509 3647 2328 
Q 3647 1150 3233 529 
Q 2819 -91 2034 -91 
Q 1250 -91 836 529 
Q 422 1150 422 2328 
Q 422 3509 836 4129 
Q 1250 4750 2034 4750 
z
" transform="scale(0.015625)"/>
        <path id="DejaVuSans-2e" d="M 684 794 
L 1344 794 
L 1344 0 
L 684 0 
L 684 794 
z
" transform="scale(0.015625)"/>
        <path id="DejaVuSans-35" d="M 691 4666 
L 3169 4666 
L 3169 4134 
L 1269 4134 
L 1269 2991 
Q 1406 3038 1543 3061 
Q 1681 3084 1819 3084 
Q 2600 3084 3056 2656 
Q 3513 2228 3513 1497 
Q 3513 744 3044 326 
Q 2575 -91 1722 -91 
Q 1428 -91 1123 -41 
Q 819 9 494 109 
L 494 744 
Q 775 591 1075 516 
Q 1375 441 1709 441 
Q 2250 441 2565 725 
Q 2881 1009 2881 1497 
Q 2881 1984 2565 2268 
Q 2250 2553 1709 2553 
Q 1456 2553 1204 2497 
Q 953 2441 691 2322 
L 691 4666 
z
" transform="scale(0.015625)"/>
       </defs>
       <use xlink:href="#DejaVuSans-32"/>
       <use xlink:href="#DejaVuSans-30" x="63.623047"/>
       <use xlink:href="#DejaVuSans-32" x="127.246094"/>
       <use xlink:href="#DejaVuSans-32" x="190.869141"/>
       <use xlink:href="#DejaVuSans-2e" x="254.492188"/>
       <use xlink:href="#DejaVuSans-35" x="286.279297"/>
      </g>
     </g>
    </g>
    <g id="xtick_2">
     <g id="line2d_2">
      <g>
       <use xlink:href="#m9f22dda500" x="207.473684" y="192.24" style="stroke: #000000; stroke-width: 0.8"/>
      </g>
     </g>
     <g id="text_2">
      <!-- 2025.0 -->
      <g transform="translate(189.978372 206.838437) scale(0.1 -0.1)">
       <use xlink:href="#DejaVuSans-32"/>
       <use xlink:href="#DejaVuSans-30" x="63.623047"/>
       <use xlink:href="#DejaVuSans-32" x="127.246094"/>
       <use xlink:href="#DejaVuSans-35" x="190.869141"/>
       <use xlink:href="#DejaVuSans-2e" x="254.492188"/>
       <use xlink:href="#DejaVuSans-30" x="286.279297"/>
      </g>
     </g>
    </g>
    <g id="xtick_3">
     <g id="line2d_3">
      <g>
       <use xlink:href="#m9f22dda500" x="280.894737" y="192.24" style="stroke: #000000; stroke-width: 0.8"/>
      </g>
     </g>
     <g id="text_3">
      <!-- 2027.5 -->
      <g transform="translate(263.399424 206.838437) scale(0.1 -0.1)">
       <defs>
        <path id="DejaVuSans-37" d="M 525 4666 
L 3525 4666 
L 3525 4397 
L 1831 0 
L 1172 0 
L 2766 4134 
L 525 4134 
L 525 4666 
z
" transform="scale(0.015625)"/>
       </defs>
       <use xlink:href="#DejaVuSans-32"/>
       <use xlink:href="#DejaVuSans-30" x="63.623047"/>
       <use xlink:href="#DejaVuSans-32" x="127.246094"/>
       <use xlink:href="#DejaVuSans-37" x="190.869141"/>
       <use xlink:href="#DejaVuSans-2e" x="254.492188"/>
       <use xlink:href="#DejaVuSans-35" x="286.279297"/>
      </g>
     </g>
    </g>
    <g id="xtick_4">
     <g id="line2d_4">
      <g>
       <use xlink:href="#m9f22dda500" x="354.315789" y="192.24" style="stroke: #000000; stroke-width: 0.8"/>
      </g>
     </g>
     <g id="text_4">
      <!-- 2030.0 -->
      <g transform="translate(336.820477 206.838437) scale(0.1 -0.1)">
       <defs>
        <path id="DejaVuSans-33" d="M 2597 2516 
Q 3050 2419 3304 2112 
Q 3559 1806 3559 1356 
Q 3559 666 3084 287 
Q 2609 -91 1734 -91 
Q 1441 -91 1130 -33 
Q 819 25 488 141 
L 488 750 
Q 750 597 1062 519 
Q 1375 441 1716 441 
Q 2309 441 2620 675 
Q 2931 909 2931 1356 
Q 2931 1769 2642 2001 
Q 2353 2234 1838 2234 
L 1294 2234 
L 1294 2753 
L 1863 2753 
Q 2328 2753 2575 2939 
Q 2822 3125 2822 3475 
Q 2822 3834 2567 4026 
Q 2313 4219 1838 4219 
Q 1578 4219 1281 4162 
Q 984 4106 628 3988 
L 628 4550 
Q 988 4650 1302 4700 
Q 1616 4750 1894 4750 
Q 2613 4750 3031 4423 
Q 3450 4097 3450 3541 
Q 3450 3153 3228 2886 
Q 3006 2619 2597 2516 
z
" transform="scale(0.015625)"/>
       </defs>
       <use xlink:href="#DejaVuSans-32"/>
       <use xlink:href="#DejaVuSans-30" x="63.623047"/>
       <use xlink:href="#DejaVuSans-33" x="127.246094"/>
       <use xlink:href="#DejaVuSans-30" x="190.869141"/>
       <use xlink:href="#DejaVuSans-2e" x="254.492188"/>
       <use xlink:href="#DejaVuSans-30" x="286.279297"/>
      </g>
     </g>
    </g>
    <g id="xtick_5">
     <g id="line2d_5">
      <g>
       <use xlink:href="#m9f22dda500" x="427.736842" y="192.24" style="stroke: #000000; stroke-width: 0.8"/>
      </g>
     </g>
     <g id="text_5">
      <!-- 2032.5 -->
      <g transform="translate(410.24153 206.838437) scale(0.1 -0.1)">
       <use xlink:href="#DejaVuSans-32"/>
       <use xlink:href="#DejaVuSans-30" x="63.623047"/>
       <use xlink:href="#DejaVuSans-33" x="127.246094"/>
       <use xlink:href="#DejaVuSans-32" x="190.869141"/>
       <use xlink:href="#DejaVuSans-2e" x="254.492188"/>
       <use xlink:href="#DejaVuSans-35" x="286.279297"/>
      </g>
     </g>
    </g>
    <g id="xtick_6">
     <g id="line2d_6">
      <g>
       <use xlink:href="#m9f22dda500" x="501.157895" y="192.24" style="stroke: #000000; stroke-width: 0.8"/>
      </g>
     </g>
     <g id="text_6">
      <!-- 2035.0 -->
      <g transform="translate(483.662582 206.838437) scale(0.1 -0.1)">
       <use xlink:href="#DejaVuSans-32"/>
       <use xlink:href="#DejaVuSans-30" x="63.623047"/>
       <use xlink:href="#DejaVuSans-33" x="127.246094"/>
       <use xlink:href="#DejaVuSans-35" x="190.869141"/>
       <use xlink:href="#DejaVuSans-2e" x="254.492188"/>
       <use xlink:href="#DejaVuSans-30" x="286.279297"/>
      </g>
     </g>
    </g>
    <g id="xtick_7">
     <g id="line2d_7">
      <g>
       <use xlink:href="#m9f22dda500" x="574.578947" y="192.24" style="stroke: #000000; stroke-width: 0.8"/>
      </g>
     </g>
     <g id="text_7">
      <!-- 2037.5 -->
      <g transform="translate(557.083635 206.838437) scale(0.1 -0.1)">
       <use xlink:href="#DejaVuSans-32"/>
       <use xlink:href="#DejaVuSans-30" x="63.623047"/>
       <use xlink:href="#DejaVuSans-33" x="127.246094"/>
       <use xlink:href="#DejaVuSans-37" x="190.869141"/>
       <use xlink:href="#DejaVuSans-2e" x="254.492188"/>
       <use xlink:href="#DejaVuSans-35" x="286.279297"/>
      </g>
     </g>
    </g>
    <g id="xtick_8">
     <g id="line2d_8">
      <g>
       <use xlink:href="#m9f22dda500" x="648" y="192.24" style="stroke: #000000; stroke-width: 0.8"/>
      </g>
     </g>
     <g id="text_8">
      <!-- 2040.0 -->
      <g transform="translate(630.504688 206.838437) scale(0.1 -0.1)">
       <defs>
        <path id="DejaVuSans-34" d="M 2419 4116 
L 825 1625 
L 2419 1625 
L 2419 4116 
z
M 2253 4666 
L 3047 4666 
L 3047 1625 
L 3713 1625 
L 3713 1100 
L 3047 1100 
L 3047 0 
L 2419 0 
L 2419 1100 
L 313 1100 
L 313 1709 
L 2253 4666 
z
" transform="scale(0.015625)"/>
       </defs>
       <use xlink:href="#DejaVuSans-32"/>
       <use xlink:href="#DejaVuSans-30" x="63.623047"/>
       <use xlink:href="#DejaVuSans-34" x="127.246094"/>
       <use xlink:href="#DejaVuSans-30" x="190.869141"/>
       <use xlink:href="#DejaVuSans-2e" x="254.492188"/>
       <use xlink:href="#DejaVuSans-30" x="286.279297"/>
      </g>
     </g>
    </g>
    <g id="text_9">
     <!-- Year -->
     <g transform="translate(358.4125 220.516562) scale(0.1 -0.1)">
      <defs>
       <path id="DejaVuSans-59" d="M -13 4666 
L 666 4666 
L 1959 2747 
L 3244 4666 
L 3922 4666 
L 2272 2222 
L 2272 0 
L 1638 0 
L 1638 2222 
L -13 4666 
z
" transform="scale(0.015625)"/>
       <path id="DejaVuSans-65" d="M 3597 1894 
L 3597 1613 
L 953 1613 
Q 991 1019 1311 708 
Q 1631 397 2203 397 
Q 2534 397 2845 478 
Q 3156 559 3463 722 
L 3463 178 
Q 3153 47 2828 -22 
Q 2503 -91 2169 -91 
Q 1331 -91 842 396 
Q 353 884 353 1716 
Q 353 2575 817 3079 
Q 1281 3584 2069 3584 
Q 2775 3584 3186 3129 
Q 3597 2675 3597 1894 
z
M 3022 2063 
Q 3016 2534 2758 2815 
Q 2500 3097 2075 3097 
Q 1594 3097 1305 2825 
Q 1016 2553 972 2059 
L 3022 2063 
z
" transform="scale(0.015625)"/>
       <path id="DejaVuSans-61" d="M 2194 1759 
Q 1497 1759 1228 1600 
Q 959 1441 959 1056 
Q 959 750 1161 570 
Q 1363 391 1709 391 
Q 2188 391 2477 730 
Q 2766 1069 2766 1631 
L 2766 1759 
L 2194 1759 
z
M 3341 1997 
L 3341 0 
L 2766 0 
L 2766 531 
Q 2569 213 2275 61 
Q 1981 -91 1556 -91 
Q 1019 -91 701 211 
Q 384 513 384 1019 
Q 384 1609 779 1909 
Q 1175 2209 1959 2209 
L 2766 2209 
L 2766 2266 
Q 2766 2663 2505 2880 
Q 2244 3097 1772 3097 
Q 1472 3097 1187 3025 
Q 903 2953 641 2809 
L 641 3341 
Q 956 3463 1253 3523 
Q 1550 3584 1831 3584 
Q 2591 3584 2966 3190 
Q 3341 2797 3341 1997 
z
" transform="scale(0.015625)"/>
       <path id="DejaVuSans-72" d="M 2631 2963 
Q 2534 3019 2420 3045 
Q 2306 3072 2169 3072 
Q 1681 3072 1420 2755 
Q 1159 2438 1159 1844 
L 1159 0 
L 581 0 
L 581 3500 
L 1159 3500 
L 1159 2956 
Q 1341 3275 1631 3429 
Q 1922 3584 2338 3584 
Q 2397 3584 2469 3576 
Q 2541 3569 2628 3553 
L 2631 2963 
z
" transform="scale(0.015625)"/>
      </defs>
      <use xlink:href="#DejaVuSans-59"/>
      <use xlink:href="#DejaVuSans-65" x="47.833984"/>
      <use xlink:href="#DejaVuSans-61" x="109.357422"/>
      <use xlink:href="#DejaVuSans-72" x="170.636719"/>
     </g>
    </g>
   </g>
   <g id="matplotlib.axis_2">
    <g id="ytick_1">
     <g id="line2d_9">
      <defs>
       <path id="m0b0b304c13" d="M 0 0 
L -3.5 0 
" style="stroke: #000000; stroke-width: 0.8"/>
      </defs>
      <g>
       <use xlink:href="#m0b0b304c13" x="90" y="192.24" style="stroke: #000000; stroke-width: 0.8"/>
      </g>
     </g>
     <g id="text_10">
      <!-- 0 -->
      <g transform="translate(76.6375 196.039219) scale(0.1 -0.1)">
       <use xlink:href="#DejaVuSans-30"/>
      </g>
     </g>
    </g>
    <g id="ytick_2">
     <g id="line2d_10">
      <g>
       <use xlink:href="#m0b0b304c13" x="90" y="162.263312" style="stroke: #000000; stroke-width: 0.8"/>
      </g>
     </g>
     <g id="text_11">
      <!-- 50000 -->
      <g transform="translate(51.1875 166.062531) scale(0.1 -0.1)">
       <use xlink:href="#DejaVuSans-35"/>
       <use xlink:href="#DejaVuSans-30" x="63.623047"/>
       <use xlink:href="#DejaVuSans-30" x="127.246094"/>
       <use xlink:href="#DejaVuSans-30" x="190.869141"/>
       <use xlink:href="#DejaVuSans-30" x="254.492188"/>
      </g>
     </g>
    </g>
    <g id="ytick_3">
     <g id="line2d_11">
      <g>
       <use xlink:href="#m0b0b304c13" x="90" y="132.286624" style="stroke: #000000; stroke-width: 0.8"/>
      </g>
     </g>
     <g id="text_12">
      <!-- 100000 -->
      <g transform="translate(44.825 136.085843) scale(0.1 -0.1)">
       <defs>
        <path id="DejaVuSans-31" d="M 794 531 
L 1825 531 
L 1825 4091 
L 703 3866 
L 703 4441 
L 1819 4666 
L 2450 4666 
L 2450 531 
L 3481 531 
L 3481 0 
L 794 0 
L 794 531 
z
" transform="scale(0.015625)"/>
       </defs>
       <use xlink:href="#DejaVuSans-31"/>
       <use xlink:href="#DejaVuSans-30" x="63.623047"/>
       <use xlink:href="#DejaVuSans-30" x="127.246094"/>
       <use xlink:href="#DejaVuSans-30" x="190.869141"/>
       <use xlink:href="#DejaVuSans-30" x="254.492188"/>
       <use xlink:href="#DejaVuSans-30" x="318.115234"/>
      </g>
     </g>
    </g>
    <g id="ytick_4">
     <g id="line2d_12">
      <g>
       <use xlink:href="#m0b0b304c13" x="90" y="102.309936" style="stroke: #000000; stroke-width: 0.8"/>
      </g>
     </g>
     <g id="text_13">
      <!-- 150000 -->
      <g transform="translate(44.825 106.109155) scale(0.1 -0.1)">
       <use xlink:href="#DejaVuSans-31"/>
       <use xlink:href="#DejaVuSans-35" x="63.623047"/>
       <use xlink:href="#DejaVuSans-30" x="127.246094"/>
       <use xlink:href="#DejaVuSans-30" x="190.869141"/>
       <use xlink:href="#DejaVuSans-30" x="254.492188"/>
       <use xlink:href="#DejaVuSans-30" x="318.115234"/>
      </g>
     </g>
    </g>
    <g id="ytick_5">
     <g id="line2d_13">
      <g>
       <use xlink:href="#m0b0b304c13" x="90" y="72.333248" style="stroke: #000000; stroke-width: 0.8"/>
      </g>
     </g>
     <g id="text_14">
      <!-- 200000 -->
      <g transform="translate(44.825 76.132466) scale(0.1 -0.1)">
       <use xlink:href="#DejaVuSans-32"/>
       <use xlink:href="#DejaVuSans-30" x="63.623047"/>
       <use xlink:href="#DejaVuSans-30" x="127.246094"/>
       <use xlink:href="#DejaVuSans-30" x="190.869141"/>
       <use xlink:href="#DejaVuSans-30" x="254.492188"/>
       <use xlink:href="#DejaVuSans-30" x="318.115234"/>
      </g>
     </g>
    </g>
    <g id="ytick_6">
     <g id="line2d_14">
      <g>
       <use xlink:href="#m0b0b304c13" x="90" y="42.35656" style="stroke: #000000; stroke-width: 0.8"/>
      </g>
     </g>
     <g id="text_15">
      <!-- 250000 -->
      <g transform="translate(44.825 46.155778) scale(0.1 -0.1)">
       <use xlink:href="#DejaVuSans-32"/>
       <use xlink:href="#DejaVuSans-35" x="63.623047"/>
       <use xlink:href="#DejaVuSans-30" x="127.246094"/>
       <use xlink:href="#DejaVuSans-30" x="190.869141"/>
       <use xlink:href="#DejaVuSans-30" x="254.492188"/>
       <use xlink:href="#DejaVuSans-30" x="318.115234"/>
      </g>
     </g>
    </g>
    <g id="text_16">
     <!-- MtCO2 -->
     <g transform="translate(38.745312 125.962812) rotate(-90) scale(0.1 -0.1)">
      <defs>
       <path id="DejaVuSans-4d" d="M 628 4666 
L 1569 4666 
L 2759 1491 
L 3956 4666 
L 4897 4666 
L 4897 0 
L 4281 0 
L 4281 4097 
L 3078 897 
L 2444 897 
L 1241 4097 
L 1241 0 
L 628 0 
L 628 4666 
z
" transform="scale(0.015625)"/>
       <path id="DejaVuSans-74" d="M 1172 4494 
L 1172 3500 
L 2356 3500 
L 2356 3053 
L 1172 3053 
L 1172 1153 
Q 1172 725 1289 603 
Q 1406 481 1766 481 
L 2356 481 
L 2356 0 
L 1766 0 
Q 1100 0 847 248 
Q 594 497 594 1153 
L 594 3053 
L 172 3053 
L 172 3500 
L 594 3500 
L 594 4494 
L 1172 4494 
z
" transform="scale(0.015625)"/>
       <path id="DejaVuSans-43" d="M 4122 4306 
L 4122 3641 
Q 3803 3938 3442 4084 
Q 3081 4231 2675 4231 
Q 1875 4231 1450 3742 
Q 1025 3253 1025 2328 
Q 1025 1406 1450 917 
Q 1875 428 2675 428 
Q 3081 428 3442 575 
Q 3803 722 4122 1019 
L 4122 359 
Q 3791 134 3420 21 
Q 3050 -91 2638 -91 
Q 1578 -91 968 557 
Q 359 1206 359 2328 
Q 359 3453 968 4101 
Q 1578 4750 2638 4750 
Q 3056 4750 3426 4639 
Q 3797 4528 4122 4306 
z
" transform="scale(0.015625)"/>
       <path id="DejaVuSans-4f" d="M 2522 4238 
Q 1834 4238 1429 3725 
Q 1025 3213 1025 2328 
Q 1025 1447 1429 934 
Q 1834 422 2522 422 
Q 3209 422 3611 934 
Q 4013 1447 4013 2328 
Q 4013 3213 3611 3725 
Q 3209 4238 2522 4238 
z
M 2522 4750 
Q 3503 4750 4090 4092 
Q 4678 3434 4678 2328 
Q 4678 1225 4090 567 
Q 3503 -91 2522 -91 
Q 1538 -91 948 565 
Q 359 1222 359 2328 
Q 359 3434 948 4092 
Q 1538 4750 2522 4750 
z
" transform="scale(0.015625)"/>
      </defs>
      <use xlink:href="#DejaVuSans-4d"/>
      <use xlink:href="#DejaVuSans-74" x="86.279297"/>
      <use xlink:href="#DejaVuSans-43" x="125.488281"/>
      <use xlink:href="#DejaVuSans-4f" x="195.3125"/>
      <use xlink:href="#DejaVuSans-32" x="274.023438"/>
     </g>
    </g>
   </g>
   <g id="patch_3">
    <path d="M 90 192.24 
L 90 25.92 
" style="fill: none; stroke: #000000; stroke-width: 0.8; stroke-linejoin: miter; stroke-linecap: square"/>
   </g>
   <g id="patch_4">
    <path d="M 648 192.24 
L 648 25.92 
" style="fill: none; stroke: #000000; stroke-width: 0.8; stroke-linejoin: miter; stroke-linecap: square"/>
   </g>
   <g id="patch_5">
    <path d="M 90 192.24 
L 648 192.24 
" style="fill: none; stroke: #000000; stroke-width: 0.8; stroke-linejoin: miter; stroke-linecap: square"/>
   </g>
   <g id="patch_6">
    <path d="M 90 25.92 
L 648 25.92 
" style="fill: none; stroke: #000000; stroke-width: 0.8; stroke-linejoin: miter; stroke-linecap: square"/>
   </g>
   <g id="text_17">
    <!-- Relative contribution to global considered emits -->
    <g transform="translate(225.002813 19.92) scale(0.12 -0.12)">
     <defs>
      <path id="DejaVuSans-52" d="M 2841 2188 
Q 3044 2119 3236 1894 
Q 3428 1669 3622 1275 
L 4263 0 
L 3584 0 
L 2988 1197 
Q 2756 1666 2539 1819 
Q 2322 1972 1947 1972 
L 1259 1972 
L 1259 0 
L 628 0 
L 628 4666 
L 2053 4666 
Q 2853 4666 3247 4331 
Q 3641 3997 3641 3322 
Q 3641 2881 3436 2590 
Q 3231 2300 2841 2188 
z
M 1259 4147 
L 1259 2491 
L 2053 2491 
Q 2509 2491 2742 2702 
Q 2975 2913 2975 3322 
Q 2975 3731 2742 3939 
Q 2509 4147 2053 4147 
L 1259 4147 
z
" transform="scale(0.015625)"/>
      <path id="DejaVuSans-6c" d="M 603 4863 
L 1178 4863 
L 1178 0 
L 603 0 
L 603 4863 
z
" transform="scale(0.015625)"/>
      <path id="DejaVuSans-69" d="M 603 3500 
L 1178 3500 
L 1178 0 
L 603 0 
L 603 3500 
z
M 603 4863 
L 1178 4863 
L 1178 4134 
L 603 4134 
L 603 4863 
z
" transform="scale(0.015625)"/>
      <path id="DejaVuSans-76" d="M 191 3500 
L 800 3500 
L 1894 563 
L 2988 3500 
L 3597 3500 
L 2284 0 
L 1503 0 
L 191 3500 
z
" transform="scale(0.015625)"/>
      <path id="DejaVuSans-20" transform="scale(0.015625)"/>
      <path id="DejaVuSans-63" d="M 3122 3366 
L 3122 2828 
Q 2878 2963 2633 3030 
Q 2388 3097 2138 3097 
Q 1578 3097 1268 2742 
Q 959 2388 959 1747 
Q 959 1106 1268 751 
Q 1578 397 2138 397 
Q 2388 397 2633 464 
Q 2878 531 3122 666 
L 3122 134 
Q 2881 22 2623 -34 
Q 2366 -91 2075 -91 
Q 1284 -91 818 406 
Q 353 903 353 1747 
Q 353 2603 823 3093 
Q 1294 3584 2113 3584 
Q 2378 3584 2631 3529 
Q 2884 3475 3122 3366 
z
" transform="scale(0.015625)"/>
      <path id="DejaVuSans-6f" d="M 1959 3097 
Q 1497 3097 1228 2736 
Q 959 2375 959 1747 
Q 959 1119 1226 758 
Q 1494 397 1959 397 
Q 2419 397 2687 759 
Q 2956 1122 2956 1747 
Q 2956 2369 2687 2733 
Q 2419 3097 1959 3097 
z
M 1959 3584 
Q 2709 3584 3137 3096 
Q 3566 2609 3566 1747 
Q 3566 888 3137 398 
Q 2709 -91 1959 -91 
Q 1206 -91 779 398 
Q 353 888 353 1747 
Q 353 2609 779 3096 
Q 1206 3584 1959 3584 
z
" transform="scale(0.015625)"/>
      <path id="DejaVuSans-6e" d="M 3513 2113 
L 3513 0 
L 2938 0 
L 2938 2094 
Q 2938 2591 2744 2837 
Q 2550 3084 2163 3084 
Q 1697 3084 1428 2787 
Q 1159 2491 1159 1978 
L 1159 0 
L 581 0 
L 581 3500 
L 1159 3500 
L 1159 2956 
Q 1366 3272 1645 3428 
Q 1925 3584 2291 3584 
Q 2894 3584 3203 3211 
Q 3513 2838 3513 2113 
z
" transform="scale(0.015625)"/>
      <path id="DejaVuSans-62" d="M 3116 1747 
Q 3116 2381 2855 2742 
Q 2594 3103 2138 3103 
Q 1681 3103 1420 2742 
Q 1159 2381 1159 1747 
Q 1159 1113 1420 752 
Q 1681 391 2138 391 
Q 2594 391 2855 752 
Q 3116 1113 3116 1747 
z
M 1159 2969 
Q 1341 3281 1617 3432 
Q 1894 3584 2278 3584 
Q 2916 3584 3314 3078 
Q 3713 2572 3713 1747 
Q 3713 922 3314 415 
Q 2916 -91 2278 -91 
Q 1894 -91 1617 61 
Q 1341 213 1159 525 
L 1159 0 
L 581 0 
L 581 4863 
L 1159 4863 
L 1159 2969 
z
" transform="scale(0.015625)"/>
      <path id="DejaVuSans-75" d="M 544 1381 
L 544 3500 
L 1119 3500 
L 1119 1403 
Q 1119 906 1312 657 
Q 1506 409 1894 409 
Q 2359 409 2629 706 
Q 2900 1003 2900 1516 
L 2900 3500 
L 3475 3500 
L 3475 0 
L 2900 0 
L 2900 538 
Q 2691 219 2414 64 
Q 2138 -91 1772 -91 
Q 1169 -91 856 284 
Q 544 659 544 1381 
z
M 1991 3584 
L 1991 3584 
z
" transform="scale(0.015625)"/>
      <path id="DejaVuSans-67" d="M 2906 1791 
Q 2906 2416 2648 2759 
Q 2391 3103 1925 3103 
Q 1463 3103 1205 2759 
Q 947 2416 947 1791 
Q 947 1169 1205 825 
Q 1463 481 1925 481 
Q 2391 481 2648 825 
Q 2906 1169 2906 1791 
z
M 3481 434 
Q 3481 -459 3084 -895 
Q 2688 -1331 1869 -1331 
Q 1566 -1331 1297 -1286 
Q 1028 -1241 775 -1147 
L 775 -588 
Q 1028 -725 1275 -790 
Q 1522 -856 1778 -856 
Q 2344 -856 2625 -561 
Q 2906 -266 2906 331 
L 2906 616 
Q 2728 306 2450 153 
Q 2172 0 1784 0 
Q 1141 0 747 490 
Q 353 981 353 1791 
Q 353 2603 747 3093 
Q 1141 3584 1784 3584 
Q 2172 3584 2450 3431 
Q 2728 3278 2906 2969 
L 2906 3500 
L 3481 3500 
L 3481 434 
z
" transform="scale(0.015625)"/>
      <path id="DejaVuSans-73" d="M 2834 3397 
L 2834 2853 
Q 2591 2978 2328 3040 
Q 2066 3103 1784 3103 
Q 1356 3103 1142 2972 
Q 928 2841 928 2578 
Q 928 2378 1081 2264 
Q 1234 2150 1697 2047 
L 1894 2003 
Q 2506 1872 2764 1633 
Q 3022 1394 3022 966 
Q 3022 478 2636 193 
Q 2250 -91 1575 -91 
Q 1294 -91 989 -36 
Q 684 19 347 128 
L 347 722 
Q 666 556 975 473 
Q 1284 391 1588 391 
Q 1994 391 2212 530 
Q 2431 669 2431 922 
Q 2431 1156 2273 1281 
Q 2116 1406 1581 1522 
L 1381 1569 
Q 847 1681 609 1914 
Q 372 2147 372 2553 
Q 372 3047 722 3315 
Q 1072 3584 1716 3584 
Q 2034 3584 2315 3537 
Q 2597 3491 2834 3397 
z
" transform="scale(0.015625)"/>
      <path id="DejaVuSans-64" d="M 2906 2969 
L 2906 4863 
L 3481 4863 
L 3481 0 
L 2906 0 
L 2906 525 
Q 2725 213 2448 61 
Q 2172 -91 1784 -91 
Q 1150 -91 751 415 
Q 353 922 353 1747 
Q 353 2572 751 3078 
Q 1150 3584 1784 3584 
Q 2172 3584 2448 3432 
Q 2725 3281 2906 2969 
z
M 947 1747 
Q 947 1113 1208 752 
Q 1469 391 1925 391 
Q 2381 391 2643 752 
Q 2906 1113 2906 1747 
Q 2906 2381 2643 2742 
Q 2381 3103 1925 3103 
Q 1469 3103 1208 2742 
Q 947 2381 947 1747 
z
" transform="scale(0.015625)"/>
      <path id="DejaVuSans-6d" d="M 3328 2828 
Q 3544 3216 3844 3400 
Q 4144 3584 4550 3584 
Q 5097 3584 5394 3201 
Q 5691 2819 5691 2113 
L 5691 0 
L 5113 0 
L 5113 2094 
Q 5113 2597 4934 2840 
Q 4756 3084 4391 3084 
Q 3944 3084 3684 2787 
Q 3425 2491 3425 1978 
L 3425 0 
L 2847 0 
L 2847 2094 
Q 2847 2600 2669 2842 
Q 2491 3084 2119 3084 
Q 1678 3084 1418 2786 
Q 1159 2488 1159 1978 
L 1159 0 
L 581 0 
L 581 3500 
L 1159 3500 
L 1159 2956 
Q 1356 3278 1631 3431 
Q 1906 3584 2284 3584 
Q 2666 3584 2933 3390 
Q 3200 3197 3328 2828 
z
" transform="scale(0.015625)"/>
     </defs>
     <use xlink:href="#DejaVuSans-52"/>
     <use xlink:href="#DejaVuSans-65" x="64.982422"/>
     <use xlink:href="#DejaVuSans-6c" x="126.505859"/>
     <use xlink:href="#DejaVuSans-61" x="154.289062"/>
     <use xlink:href="#DejaVuSans-74" x="215.568359"/>
     <use xlink:href="#DejaVuSans-69" x="254.777344"/>
     <use xlink:href="#DejaVuSans-76" x="282.560547"/>
     <use xlink:href="#DejaVuSans-65" x="341.740234"/>
     <use xlink:href="#DejaVuSans-20" x="403.263672"/>
     <use xlink:href="#DejaVuSans-63" x="435.050781"/>
     <use xlink:href="#DejaVuSans-6f" x="490.03125"/>
     <use xlink:href="#DejaVuSans-6e" x="551.212891"/>
     <use xlink:href="#DejaVuSans-74" x="614.591797"/>
     <use xlink:href="#DejaVuSans-72" x="653.800781"/>
     <use xlink:href="#DejaVuSans-69" x="694.914062"/>
     <use xlink:href="#DejaVuSans-62" x="722.697266"/>
     <use xlink:href="#DejaVuSans-75" x="786.173828"/>
     <use xlink:href="#DejaVuSans-74" x="849.552734"/>
     <use xlink:href="#DejaVuSans-69" x="888.761719"/>
     <use xlink:href="#DejaVuSans-6f" x="916.544922"/>
     <use xlink:href="#DejaVuSans-6e" x="977.726562"/>
     <use xlink:href="#DejaVuSans-20" x="1041.105469"/>
     <use xlink:href="#DejaVuSans-74" x="1072.892578"/>
     <use xlink:href="#DejaVuSans-6f" x="1112.101562"/>
     <use xlink:href="#DejaVuSans-20" x="1173.283203"/>
     <use xlink:href="#DejaVuSans-67" x="1205.070312"/>
     <use xlink:href="#DejaVuSans-6c" x="1268.546875"/>
     <use xlink:href="#DejaVuSans-6f" x="1296.330078"/>
     <use xlink:href="#DejaVuSans-62" x="1357.511719"/>
     <use xlink:href="#DejaVuSans-61" x="1420.988281"/>
     <use xlink:href="#DejaVuSans-6c" x="1482.267578"/>
     <use xlink:href="#DejaVuSans-20" x="1510.050781"/>
     <use xlink:href="#DejaVuSans-63" x="1541.837891"/>
     <use xlink:href="#DejaVuSans-6f" x="1596.818359"/>
     <use xlink:href="#DejaVuSans-6e" x="1658"/>
     <use xlink:href="#DejaVuSans-73" x="1721.378906"/>
     <use xlink:href="#DejaVuSans-69" x="1773.478516"/>
     <use xlink:href="#DejaVuSans-64" x="1801.261719"/>
     <use xlink:href="#DejaVuSans-65" x="1864.738281"/>
     <use xlink:href="#DejaVuSans-72" x="1926.261719"/>
     <use xlink:href="#DejaVuSans-65" x="1965.125"/>
     <use xlink:href="#DejaVuSans-64" x="2026.648438"/>
     <use xlink:href="#DejaVuSans-20" x="2090.125"/>
     <use xlink:href="#DejaVuSans-65" x="2121.912109"/>
     <use xlink:href="#DejaVuSans-6d" x="2183.435547"/>
     <use xlink:href="#DejaVuSans-69" x="2280.847656"/>
     <use xlink:href="#DejaVuSans-74" x="2308.630859"/>
     <use xlink:href="#DejaVuSans-73" x="2347.839844"/>
    </g>
   </g>
   <g id="legend_1">
    <g id="patch_7">
     <path d="M 542.6375 210.0575 
L 641 210.0575 
Q 643 210.0575 643 208.0575 
L 643 32.92 
Q 643 30.92 641 30.92 
L 542.6375 30.92 
Q 540.6375 30.92 540.6375 32.92 
L 540.6375 208.0575 
Q 540.6375 210.0575 542.6375 210.0575 
z
" style="fill: #ffffff; opacity: 0.8; stroke: #cccccc; stroke-linejoin: miter"/>
    </g>
    <g id="patch_8">
     <path d="M 544.6375 42.518437 
L 564.6375 42.518437 
L 564.6375 35.518437 
L 544.6375 35.518437 
z
" style="fill: #708090"/>
    </g>
    <g id="text_18">
     <!-- RussiaCAsia -->
     <g transform="translate(572.6375 42.518437) scale(0.1 -0.1)">
      <defs>
       <path id="DejaVuSans-41" d="M 2188 4044 
L 1331 1722 
L 3047 1722 
L 2188 4044 
z
M 1831 4666 
L 2547 4666 
L 4325 0 
L 3669 0 
L 3244 1197 
L 1141 1197 
L 716 0 
L 50 0 
L 1831 4666 
z
" transform="scale(0.015625)"/>
      </defs>
      <use xlink:href="#DejaVuSans-52"/>
      <use xlink:href="#DejaVuSans-75" x="64.982422"/>
      <use xlink:href="#DejaVuSans-73" x="128.361328"/>
      <use xlink:href="#DejaVuSans-73" x="180.460938"/>
      <use xlink:href="#DejaVuSans-69" x="232.560547"/>
      <use xlink:href="#DejaVuSans-61" x="260.34375"/>
      <use xlink:href="#DejaVuSans-43" x="321.623047"/>
      <use xlink:href="#DejaVuSans-41" x="391.447266"/>
      <use xlink:href="#DejaVuSans-73" x="459.855469"/>
      <use xlink:href="#DejaVuSans-69" x="511.955078"/>
      <use xlink:href="#DejaVuSans-61" x="539.738281"/>
     </g>
    </g>
    <g id="patch_9">
     <path d="M 544.6375 57.196562 
L 564.6375 57.196562 
L 564.6375 50.196562 
L 544.6375 50.196562 
z
" style="fill: #1e90ff"/>
    </g>
    <g id="text_19">
     <!-- ROW -->
     <g transform="translate(572.6375 57.196562) scale(0.1 -0.1)">
      <defs>
       <path id="DejaVuSans-57" d="M 213 4666 
L 850 4666 
L 1831 722 
L 2809 4666 
L 3519 4666 
L 4500 722 
L 5478 4666 
L 6119 4666 
L 4947 0 
L 4153 0 
L 3169 4050 
L 2175 0 
L 1381 0 
L 213 4666 
z
" transform="scale(0.015625)"/>
      </defs>
      <use xlink:href="#DejaVuSans-52"/>
      <use xlink:href="#DejaVuSans-4f" x="69.482422"/>
      <use xlink:href="#DejaVuSans-57" x="148.193359"/>
     </g>
    </g>
    <g id="patch_10">
     <path d="M 544.6375 71.874687 
L 564.6375 71.874687 
L 564.6375 64.874687 
L 544.6375 64.874687 
z
" style="fill: #4682b4"/>
    </g>
    <g id="text_20">
     <!-- MENA -->
     <g transform="translate(572.6375 71.874687) scale(0.1 -0.1)">
      <defs>
       <path id="DejaVuSans-45" d="M 628 4666 
L 3578 4666 
L 3578 4134 
L 1259 4134 
L 1259 2753 
L 3481 2753 
L 3481 2222 
L 1259 2222 
L 1259 531 
L 3634 531 
L 3634 0 
L 628 0 
L 628 4666 
z
" transform="scale(0.015625)"/>
       <path id="DejaVuSans-4e" d="M 628 4666 
L 1478 4666 
L 3547 763 
L 3547 4666 
L 4159 4666 
L 4159 0 
L 3309 0 
L 1241 3903 
L 1241 0 
L 628 0 
L 628 4666 
z
" transform="scale(0.015625)"/>
      </defs>
      <use xlink:href="#DejaVuSans-4d"/>
      <use xlink:href="#DejaVuSans-45" x="86.279297"/>
      <use xlink:href="#DejaVuSans-4e" x="149.462891"/>
      <use xlink:href="#DejaVuSans-41" x="224.267578"/>
     </g>
    </g>
    <g id="patch_11">
     <path d="M 544.6375 86.552812 
L 564.6375 86.552812 
L 564.6375 79.552812 
L 544.6375 79.552812 
z
" style="fill: #ffa500"/>
    </g>
    <g id="text_21">
     <!-- SubSahAfrica -->
     <g transform="translate(572.6375 86.552812) scale(0.1 -0.1)">
      <defs>
       <path id="DejaVuSans-53" d="M 3425 4513 
L 3425 3897 
Q 3066 4069 2747 4153 
Q 2428 4238 2131 4238 
Q 1616 4238 1336 4038 
Q 1056 3838 1056 3469 
Q 1056 3159 1242 3001 
Q 1428 2844 1947 2747 
L 2328 2669 
Q 3034 2534 3370 2195 
Q 3706 1856 3706 1288 
Q 3706 609 3251 259 
Q 2797 -91 1919 -91 
Q 1588 -91 1214 -16 
Q 841 59 441 206 
L 441 856 
Q 825 641 1194 531 
Q 1563 422 1919 422 
Q 2459 422 2753 634 
Q 3047 847 3047 1241 
Q 3047 1584 2836 1778 
Q 2625 1972 2144 2069 
L 1759 2144 
Q 1053 2284 737 2584 
Q 422 2884 422 3419 
Q 422 4038 858 4394 
Q 1294 4750 2059 4750 
Q 2388 4750 2728 4690 
Q 3069 4631 3425 4513 
z
" transform="scale(0.015625)"/>
       <path id="DejaVuSans-68" d="M 3513 2113 
L 3513 0 
L 2938 0 
L 2938 2094 
Q 2938 2591 2744 2837 
Q 2550 3084 2163 3084 
Q 1697 3084 1428 2787 
Q 1159 2491 1159 1978 
L 1159 0 
L 581 0 
L 581 4863 
L 1159 4863 
L 1159 2956 
Q 1366 3272 1645 3428 
Q 1925 3584 2291 3584 
Q 2894 3584 3203 3211 
Q 3513 2838 3513 2113 
z
" transform="scale(0.015625)"/>
       <path id="DejaVuSans-66" d="M 2375 4863 
L 2375 4384 
L 1825 4384 
Q 1516 4384 1395 4259 
Q 1275 4134 1275 3809 
L 1275 3500 
L 2222 3500 
L 2222 3053 
L 1275 3053 
L 1275 0 
L 697 0 
L 697 3053 
L 147 3053 
L 147 3500 
L 697 3500 
L 697 3744 
Q 697 4328 969 4595 
Q 1241 4863 1831 4863 
L 2375 4863 
z
" transform="scale(0.015625)"/>
      </defs>
      <use xlink:href="#DejaVuSans-53"/>
      <use xlink:href="#DejaVuSans-75" x="63.476562"/>
      <use xlink:href="#DejaVuSans-62" x="126.855469"/>
      <use xlink:href="#DejaVuSans-53" x="190.332031"/>
      <use xlink:href="#DejaVuSans-61" x="253.808594"/>
      <use xlink:href="#DejaVuSans-68" x="315.087891"/>
      <use xlink:href="#DejaVuSans-41" x="378.466797"/>
      <use xlink:href="#DejaVuSans-66" x="443.25"/>
      <use xlink:href="#DejaVuSans-72" x="478.455078"/>
      <use xlink:href="#DejaVuSans-69" x="519.568359"/>
      <use xlink:href="#DejaVuSans-63" x="547.351562"/>
      <use xlink:href="#DejaVuSans-61" x="602.332031"/>
     </g>
    </g>
    <g id="patch_12">
     <path d="M 544.6375 101.230937 
L 564.6375 101.230937 
L 564.6375 94.230937 
L 544.6375 94.230937 
z
" style="fill: #87ceeb"/>
    </g>
    <g id="text_22">
     <!-- LatinAmerica -->
     <g transform="translate(572.6375 101.230937) scale(0.1 -0.1)">
      <defs>
       <path id="DejaVuSans-4c" d="M 628 4666 
L 1259 4666 
L 1259 531 
L 3531 531 
L 3531 0 
L 628 0 
L 628 4666 
z
" transform="scale(0.015625)"/>
      </defs>
      <use xlink:href="#DejaVuSans-4c"/>
      <use xlink:href="#DejaVuSans-61" x="55.712891"/>
      <use xlink:href="#DejaVuSans-74" x="116.992188"/>
      <use xlink:href="#DejaVuSans-69" x="156.201172"/>
      <use xlink:href="#DejaVuSans-6e" x="183.984375"/>
      <use xlink:href="#DejaVuSans-41" x="247.363281"/>
      <use xlink:href="#DejaVuSans-6d" x="315.771484"/>
      <use xlink:href="#DejaVuSans-65" x="413.183594"/>
      <use xlink:href="#DejaVuSans-72" x="474.707031"/>
      <use xlink:href="#DejaVuSans-69" x="515.820312"/>
      <use xlink:href="#DejaVuSans-63" x="543.603516"/>
      <use xlink:href="#DejaVuSans-61" x="598.583984"/>
     </g>
    </g>
    <g id="patch_13">
     <path d="M 544.6375 115.909062 
L 564.6375 115.909062 
L 564.6375 108.909062 
L 544.6375 108.909062 
z
" style="fill: #00bfff"/>
    </g>
    <g id="text_23">
     <!-- OECDAsia -->
     <g transform="translate(572.6375 115.909062) scale(0.1 -0.1)">
      <defs>
       <path id="DejaVuSans-44" d="M 1259 4147 
L 1259 519 
L 2022 519 
Q 2988 519 3436 956 
Q 3884 1394 3884 2338 
Q 3884 3275 3436 3711 
Q 2988 4147 2022 4147 
L 1259 4147 
z
M 628 4666 
L 1925 4666 
Q 3281 4666 3915 4102 
Q 4550 3538 4550 2338 
Q 4550 1131 3912 565 
Q 3275 0 1925 0 
L 628 0 
L 628 4666 
z
" transform="scale(0.015625)"/>
      </defs>
      <use xlink:href="#DejaVuSans-4f"/>
      <use xlink:href="#DejaVuSans-45" x="78.710938"/>
      <use xlink:href="#DejaVuSans-43" x="141.894531"/>
      <use xlink:href="#DejaVuSans-44" x="211.71875"/>
      <use xlink:href="#DejaVuSans-41" x="286.970703"/>
      <use xlink:href="#DejaVuSans-73" x="355.378906"/>
      <use xlink:href="#DejaVuSans-69" x="407.478516"/>
      <use xlink:href="#DejaVuSans-61" x="435.261719"/>
     </g>
    </g>
    <g id="patch_14">
     <path d="M 544.6375 130.587187 
L 564.6375 130.587187 
L 564.6375 123.587187 
L 544.6375 123.587187 
z
" style="fill: #add8e6"/>
    </g>
    <g id="text_24">
     <!-- EU27 -->
     <g transform="translate(572.6375 130.587187) scale(0.1 -0.1)">
      <defs>
       <path id="DejaVuSans-55" d="M 556 4666 
L 1191 4666 
L 1191 1831 
Q 1191 1081 1462 751 
Q 1734 422 2344 422 
Q 2950 422 3222 751 
Q 3494 1081 3494 1831 
L 3494 4666 
L 4128 4666 
L 4128 1753 
Q 4128 841 3676 375 
Q 3225 -91 2344 -91 
Q 1459 -91 1007 375 
Q 556 841 556 1753 
L 556 4666 
z
" transform="scale(0.015625)"/>
      </defs>
      <use xlink:href="#DejaVuSans-45"/>
      <use xlink:href="#DejaVuSans-55" x="63.183594"/>
      <use xlink:href="#DejaVuSans-32" x="136.376953"/>
      <use xlink:href="#DejaVuSans-37" x="200"/>
     </g>
    </g>
    <g id="patch_15">
     <path d="M 544.6375 145.265312 
L 564.6375 145.265312 
L 564.6375 138.265312 
L 544.6375 138.265312 
z
" style="fill: #b0e0e6"/>
    </g>
    <g id="text_25">
     <!-- EmergAsia -->
     <g transform="translate(572.6375 145.265312) scale(0.1 -0.1)">
      <use xlink:href="#DejaVuSans-45"/>
      <use xlink:href="#DejaVuSans-6d" x="63.183594"/>
      <use xlink:href="#DejaVuSans-65" x="160.595703"/>
      <use xlink:href="#DejaVuSans-72" x="222.119141"/>
      <use xlink:href="#DejaVuSans-67" x="261.482422"/>
      <use xlink:href="#DejaVuSans-41" x="324.958984"/>
      <use xlink:href="#DejaVuSans-73" x="393.367188"/>
      <use xlink:href="#DejaVuSans-69" x="445.466797"/>
      <use xlink:href="#DejaVuSans-61" x="473.25"/>
     </g>
    </g>
    <g id="patch_16">
     <path d="M 544.6375 159.943437 
L 564.6375 159.943437 
L 564.6375 152.943437 
L 544.6375 152.943437 
z
" style="fill: #008000"/>
    </g>
    <g id="text_26">
     <!-- China -->
     <g transform="translate(572.6375 159.943437) scale(0.1 -0.1)">
      <use xlink:href="#DejaVuSans-43"/>
      <use xlink:href="#DejaVuSans-68" x="69.824219"/>
      <use xlink:href="#DejaVuSans-69" x="133.203125"/>
      <use xlink:href="#DejaVuSans-6e" x="160.986328"/>
      <use xlink:href="#DejaVuSans-61" x="224.365234"/>
     </g>
    </g>
    <g id="patch_17">
     <path d="M 544.6375 174.621562 
L 564.6375 174.621562 
L 564.6375 167.621562 
L 544.6375 167.621562 
z
" style="fill: #00ced1"/>
    </g>
    <g id="text_27">
     <!-- India -->
     <g transform="translate(572.6375 174.621562) scale(0.1 -0.1)">
      <defs>
       <path id="DejaVuSans-49" d="M 628 4666 
L 1259 4666 
L 1259 0 
L 628 0 
L 628 4666 
z
" transform="scale(0.015625)"/>
      </defs>
      <use xlink:href="#DejaVuSans-49"/>
      <use xlink:href="#DejaVuSans-6e" x="29.492188"/>
      <use xlink:href="#DejaVuSans-64" x="92.871094"/>
      <use xlink:href="#DejaVuSans-69" x="156.347656"/>
      <use xlink:href="#DejaVuSans-61" x="184.130859"/>
     </g>
    </g>
    <g id="patch_18">
     <path d="M 544.6375 189.299687 
L 564.6375 189.299687 
L 564.6375 182.299687 
L 544.6375 182.299687 
z
" style="fill: #00ffff"/>
    </g>
    <g id="text_28">
     <!-- UK -->
     <g transform="translate(572.6375 189.299687) scale(0.1 -0.1)">
      <defs>
       <path id="DejaVuSans-4b" d="M 628 4666 
L 1259 4666 
L 1259 2694 
L 3353 4666 
L 4166 4666 
L 1850 2491 
L 4331 0 
L 3500 0 
L 1259 2247 
L 1259 0 
L 628 0 
L 628 4666 
z
" transform="scale(0.015625)"/>
      </defs>
      <use xlink:href="#DejaVuSans-55"/>
      <use xlink:href="#DejaVuSans-4b" x="73.193359"/>
     </g>
    </g>
    <g id="patch_19">
     <path d="M 544.6375 203.977812 
L 564.6375 203.977812 
L 564.6375 196.977812 
L 544.6375 196.977812 
z
" style="fill: #ff0000"/>
    </g>
    <g id="text_29">
     <!-- UnitedStates -->
     <g transform="translate(572.6375 203.977812) scale(0.1 -0.1)">
      <use xlink:href="#DejaVuSans-55"/>
      <use xlink:href="#DejaVuSans-6e" x="73.193359"/>
      <use xlink:href="#DejaVuSans-69" x="136.572266"/>
      <use xlink:href="#DejaVuSans-74" x="164.355469"/>
      <use xlink:href="#DejaVuSans-65" x="203.564453"/>
      <use xlink:href="#DejaVuSans-64" x="265.087891"/>
      <use xlink:href="#DejaVuSans-53" x="328.564453"/>
      <use xlink:href="#DejaVuSans-74" x="392.041016"/>
      <use xlink:href="#DejaVuSans-61" x="431.25"/>
      <use xlink:href="#DejaVuSans-74" x="492.529297"/>
      <use xlink:href="#DejaVuSans-65" x="531.738281"/>
      <use xlink:href="#DejaVuSans-73" x="593.261719"/>
     </g>
    </g>
   </g>
  </g>
 </g>
 <defs>
  <clipPath id="p1aeb74fffa">
   <rect x="90" y="25.92" width="558" height="166.32"/>
  </clipPath>
 </defs>
</svg>
