<?xml version="1.0" encoding="utf-8" standalone="no"?>
<!DOCTYPE svg PUBLIC "-//W3C//DTD SVG 1.1//EN"
  "http://www.w3.org/Graphics/SVG/1.1/DTD/svg11.dtd">
<svg xmlns:xlink="http://www.w3.org/1999/xlink" width="720pt" height="216pt" viewBox="0 0 720 216" xmlns="http://www.w3.org/2000/svg" version="1.1">
 <metadata>
  <rdf:RDF xmlns:dc="http://purl.org/dc/elements/1.1/" xmlns:cc="http://creativecommons.org/ns#" xmlns:rdf="http://www.w3.org/1999/02/22-rdf-syntax-ns#">
   <cc:Work>
    <dc:type rdf:resource="http://purl.org/dc/dcmitype/StillImage"/>
    <dc:date>2023-04-17T14:27:35.277299</dc:date>
    <dc:format>image/svg+xml</dc:format>
    <dc:creator>
     <cc:Agent>
      <dc:title>Matplotlib v3.7.1, https://matplotlib.org/</dc:title>
     </cc:Agent>
    </dc:creator>
   </cc:Work>
  </rdf:RDF>
 </metadata>
 <defs>
  <style type="text/css">*{stroke-linejoin: round; stroke-linecap: butt}</style>
 </defs>
 <g id="figure_1">
  <g id="patch_1">
   <path d="M 0 216 
L 720 216 
L 720 0 
L 0 0 
z
" style="fill: #ffffff"/>
  </g>
  <g id="axes_1">
   <g id="patch_2">
    <path d="M 90 192.24 
L 648 192.24 
L 648 25.92 
L 90 25.92 
z
" style="fill: #ffffff"/>
   </g>
   <g id="PolyCollection_1">
    <path d="M 90 188.504655 
L 90 192.24 
L 97.063291 192.24 
L 104.126582 192.24 
L 111.189873 192.24 
L 118.253165 192.24 
L 125.316456 192.24 
L 132.379747 192.24 
L 139.443038 192.24 
L 146.506329 192.24 
L 153.56962 192.24 
L 160.632911 192.24 
L 167.696203 192.24 
L 174.759494 192.24 
L 181.822785 192.24 
L 188.886076 192.24 
L 195.949367 192.24 
L 203.012658 192.24 
L 210.075949 192.24 
L 217.139241 192.24 
L 224.202532 192.24 
L 231.265823 192.24 
L 238.329114 192.24 
L 245.392405 192.24 
L 252.455696 192.24 
L 259.518987 192.24 
L 266.582278 192.24 
L 273.64557 192.24 
L 280.708861 192.24 
L 287.772152 192.24 
L 294.835443 192.24 
L 301.898734 192.24 
L 308.962025 192.24 
L 316.025316 192.24 
L 323.088608 192.24 
L 330.151899 192.24 
L 337.21519 192.24 
L 344.278481 192.24 
L 351.341772 192.24 
L 358.405063 192.24 
L 365.468354 192.24 
L 372.531646 192.24 
L 379.594937 192.24 
L 386.658228 192.24 
L 393.721519 192.24 
L 400.78481 192.24 
L 407.848101 192.24 
L 414.911392 192.24 
L 421.974684 192.24 
L 429.037975 192.24 
L 436.101266 192.24 
L 443.164557 192.24 
L 450.227848 192.24 
L 457.291139 192.24 
L 464.35443 192.24 
L 471.417722 192.24 
L 478.481013 192.24 
L 485.544304 192.24 
L 492.607595 192.24 
L 499.670886 192.24 
L 506.734177 192.24 
L 513.797468 192.24 
L 520.860759 192.24 
L 527.924051 192.24 
L 534.987342 192.24 
L 542.050633 192.24 
L 549.113924 192.24 
L 556.177215 192.24 
L 563.240506 192.24 
L 570.303797 192.24 
L 577.367089 192.24 
L 584.43038 192.24 
L 591.493671 192.24 
L 598.556962 192.24 
L 605.620253 192.24 
L 612.683544 192.24 
L 619.746835 192.24 
L 626.810127 192.24 
L 633.873418 192.24 
L 640.936709 192.24 
L 648 192.24 
L 648 185.472777 
L 648 185.472777 
L 640.936709 185.431893 
L 633.873418 185.394555 
L 626.810127 185.359245 
L 619.746835 185.323934 
L 612.683544 185.289799 
L 605.620253 185.265568 
L 598.556962 185.237213 
L 591.493671 185.209343 
L 584.43038 185.189695 
L 577.367089 185.175368 
L 570.303797 185.159544 
L 563.240506 185.143743 
L 556.177215 185.133447 
L 549.113924 185.118337 
L 542.050633 185.110621 
L 534.987342 185.099404 
L 527.924051 185.088739 
L 520.860759 185.082566 
L 513.797468 185.078351 
L 506.734177 185.072293 
L 499.670886 185.071533 
L 492.607595 185.069737 
L 485.544304 185.073537 
L 478.481013 185.075311 
L 471.417722 185.075725 
L 464.35443 185.083027 
L 457.291139 185.089868 
L 450.227848 185.095972 
L 443.164557 185.109953 
L 436.101266 185.118453 
L 429.037975 185.125961 
L 421.974684 185.14015 
L 414.911392 185.151851 
L 407.848101 185.168159 
L 400.78481 185.184789 
L 393.721519 185.205151 
L 386.658228 185.228806 
L 379.594937 185.245436 
L 372.531646 185.269276 
L 365.468354 185.296571 
L 358.405063 185.319512 
L 351.341772 185.346277 
L 344.278481 185.375645 
L 337.21519 185.405496 
L 330.151899 185.435854 
L 323.088608 185.463034 
L 316.025316 185.491803 
L 308.962025 185.526722 
L 301.898734 185.55807 
L 294.835443 185.591929 
L 287.772152 185.664093 
L 280.708861 185.736419 
L 273.64557 185.809089 
L 266.582278 185.891089 
L 259.518987 185.970025 
L 252.455696 186.055893 
L 245.392405 186.143213 
L 238.329114 186.229221 
L 231.265823 186.321193 
L 224.202532 186.412821 
L 217.139241 186.508479 
L 210.075949 186.61623 
L 203.012658 186.723589 
L 195.949367 186.83749 
L 188.886076 186.963921 
L 181.822785 187.080816 
L 174.759494 187.200314 
L 167.696203 187.31912 
L 160.632911 187.435025 
L 153.56962 187.540979 
L 146.506329 187.649859 
L 139.443038 187.758462 
L 132.379747 187.869783 
L 125.316456 187.977096 
L 118.253165 188.090006 
L 111.189873 188.197757 
L 104.126582 188.30378 
L 97.063291 188.404874 
L 90 188.504655 
z
" clip-path="url(#p0ad3b9ad4c)" style="fill: #708090"/>
   </g>
   <g id="PolyCollection_2">
    <path d="M 90 185.985991 
L 90 188.504655 
L 97.063291 188.404874 
L 104.126582 188.30378 
L 111.189873 188.197757 
L 118.253165 188.090006 
L 125.316456 187.977096 
L 132.379747 187.869783 
L 139.443038 187.758462 
L 146.506329 187.649859 
L 153.56962 187.540979 
L 160.632911 187.435025 
L 167.696203 187.31912 
L 174.759494 187.200314 
L 181.822785 187.080816 
L 188.886076 186.963921 
L 195.949367 186.83749 
L 203.012658 186.723589 
L 210.075949 186.61623 
L 217.139241 186.508479 
L 224.202532 186.412821 
L 231.265823 186.321193 
L 238.329114 186.229221 
L 245.392405 186.143213 
L 252.455696 186.055893 
L 259.518987 185.970025 
L 266.582278 185.891089 
L 273.64557 185.809089 
L 280.708861 185.736419 
L 287.772152 185.664093 
L 294.835443 185.591929 
L 301.898734 185.55807 
L 308.962025 185.526722 
L 316.025316 185.491803 
L 323.088608 185.463034 
L 330.151899 185.435854 
L 337.21519 185.405496 
L 344.278481 185.375645 
L 351.341772 185.346277 
L 358.405063 185.319512 
L 365.468354 185.296571 
L 372.531646 185.269276 
L 379.594937 185.245436 
L 386.658228 185.228806 
L 393.721519 185.205151 
L 400.78481 185.184789 
L 407.848101 185.168159 
L 414.911392 185.151851 
L 421.974684 185.14015 
L 429.037975 185.125961 
L 436.101266 185.118453 
L 443.164557 185.109953 
L 450.227848 185.095972 
L 457.291139 185.089868 
L 464.35443 185.083027 
L 471.417722 185.075725 
L 478.481013 185.075311 
L 485.544304 185.073537 
L 492.607595 185.069737 
L 499.670886 185.071533 
L 506.734177 185.072293 
L 513.797468 185.078351 
L 520.860759 185.082566 
L 527.924051 185.088739 
L 534.987342 185.099404 
L 542.050633 185.110621 
L 549.113924 185.118337 
L 556.177215 185.133447 
L 563.240506 185.143743 
L 570.303797 185.159544 
L 577.367089 185.175368 
L 584.43038 185.189695 
L 591.493671 185.209343 
L 598.556962 185.237213 
L 605.620253 185.265568 
L 612.683544 185.289799 
L 619.746835 185.323934 
L 626.810127 185.359245 
L 633.873418 185.394555 
L 640.936709 185.431893 
L 648 185.472777 
L 648 178.174392 
L 648 178.174392 
L 640.936709 178.127443 
L 633.873418 178.090449 
L 626.810127 178.056891 
L 619.746835 178.020323 
L 612.683544 177.995228 
L 605.620253 177.979165 
L 598.556962 177.958653 
L 591.493671 177.945103 
L 584.43038 177.934364 
L 577.367089 177.938686 
L 570.303797 177.94824 
L 563.240506 177.952333 
L 556.177215 177.961772 
L 549.113924 177.973952 
L 542.050633 177.989184 
L 534.987342 178.010149 
L 527.924051 178.027454 
L 520.860759 178.048673 
L 513.797468 178.07547 
L 506.734177 178.095673 
L 499.670886 178.122493 
L 492.607595 178.158229 
L 485.544304 178.200512 
L 478.481013 178.244548 
L 471.417722 178.291746 
L 464.35443 178.348182 
L 457.291139 178.405635 
L 450.227848 178.462491 
L 443.164557 178.52223 
L 436.101266 178.589481 
L 429.037975 178.64835 
L 421.974684 178.721092 
L 414.911392 178.793795 
L 407.848101 178.866846 
L 400.78481 178.950928 
L 393.721519 179.031492 
L 386.658228 179.122956 
L 379.594937 179.205695 
L 372.531646 179.301291 
L 365.468354 179.396506 
L 358.405063 179.492425 
L 351.341772 179.59195 
L 344.278481 179.694823 
L 337.21519 179.807007 
L 330.151899 179.913943 
L 323.088608 180.019826 
L 316.025316 180.131812 
L 308.962025 180.250386 
L 301.898734 180.362629 
L 294.835443 180.475306 
L 287.772152 180.648786 
L 280.708861 180.825508 
L 273.64557 181.005582 
L 266.582278 181.185195 
L 259.518987 181.371632 
L 252.455696 181.554023 
L 245.392405 181.744386 
L 238.329114 181.934113 
L 231.265823 182.128749 
L 224.202532 182.32065 
L 217.139241 182.514413 
L 210.075949 182.722633 
L 203.012658 182.933056 
L 195.949367 183.150273 
L 188.886076 183.376334 
L 181.822785 183.592664 
L 174.759494 183.806887 
L 167.696203 184.018591 
L 160.632911 184.222914 
L 153.56962 184.410764 
L 146.506329 184.599254 
L 139.443038 184.785653 
L 132.379747 184.971536 
L 125.316456 185.152374 
L 118.253165 185.334779 
L 111.189873 185.507857 
L 104.126582 185.674776 
L 97.063291 185.832717 
L 90 185.985991 
z
" clip-path="url(#p0ad3b9ad4c)" style="fill: #1e90ff"/>
   </g>
   <g id="PolyCollection_3">
    <path d="M 90 181.304937 
L 90 185.985991 
L 97.063291 185.832717 
L 104.126582 185.674776 
L 111.189873 185.507857 
L 118.253165 185.334779 
L 125.316456 185.152374 
L 132.379747 184.971536 
L 139.443038 184.785653 
L 146.506329 184.599254 
L 153.56962 184.410764 
L 160.632911 184.222914 
L 167.696203 184.018591 
L 174.759494 183.806887 
L 181.822785 183.592664 
L 188.886076 183.376334 
L 195.949367 183.150273 
L 203.012658 182.933056 
L 210.075949 182.722633 
L 217.139241 182.514413 
L 224.202532 182.32065 
L 231.265823 182.128749 
L 238.329114 181.934113 
L 245.392405 181.744386 
L 252.455696 181.554023 
L 259.518987 181.371632 
L 266.582278 181.185195 
L 273.64557 181.005582 
L 280.708861 180.825508 
L 287.772152 180.648786 
L 294.835443 180.475306 
L 301.898734 180.362629 
L 308.962025 180.250386 
L 316.025316 180.131812 
L 323.088608 180.019826 
L 330.151899 179.913943 
L 337.21519 179.807007 
L 344.278481 179.694823 
L 351.341772 179.59195 
L 358.405063 179.492425 
L 365.468354 179.396506 
L 372.531646 179.301291 
L 379.594937 179.205695 
L 386.658228 179.122956 
L 393.721519 179.031492 
L 400.78481 178.950928 
L 407.848101 178.866846 
L 414.911392 178.793795 
L 421.974684 178.721092 
L 429.037975 178.64835 
L 436.101266 178.589481 
L 443.164557 178.52223 
L 450.227848 178.462491 
L 457.291139 178.405635 
L 464.35443 178.348182 
L 471.417722 178.291746 
L 478.481013 178.244548 
L 485.544304 178.200512 
L 492.607595 178.158229 
L 499.670886 178.122493 
L 506.734177 178.095673 
L 513.797468 178.07547 
L 520.860759 178.048673 
L 527.924051 178.027454 
L 534.987342 178.010149 
L 542.050633 177.989184 
L 549.113924 177.973952 
L 556.177215 177.961772 
L 563.240506 177.952333 
L 570.303797 177.94824 
L 577.367089 177.938686 
L 584.43038 177.934364 
L 591.493671 177.945103 
L 598.556962 177.958653 
L 605.620253 177.979165 
L 612.683544 177.995228 
L 619.746835 178.020323 
L 626.810127 178.056891 
L 633.873418 178.090449 
L 640.936709 178.127443 
L 648 178.174392 
L 648 169.590654 
L 648 169.590654 
L 640.936709 169.459656 
L 633.873418 169.345039 
L 626.810127 169.229804 
L 619.746835 169.112273 
L 612.683544 169.010592 
L 605.620253 168.918633 
L 598.556962 168.819716 
L 591.493671 168.729463 
L 584.43038 168.638522 
L 577.367089 168.567201 
L 570.303797 168.496254 
L 563.240506 168.428966 
L 556.177215 168.367784 
L 549.113924 168.322795 
L 542.050633 168.280674 
L 534.987342 168.234105 
L 527.924051 168.197281 
L 520.860759 168.165661 
L 513.797468 168.141231 
L 506.734177 168.097401 
L 499.670886 168.084672 
L 492.607595 168.07501 
L 485.544304 168.08318 
L 478.481013 168.096258 
L 471.417722 168.124615 
L 464.35443 168.161174 
L 457.291139 168.2078 
L 450.227848 168.260326 
L 443.164557 168.315436 
L 436.101266 168.378817 
L 429.037975 168.453211 
L 421.974684 168.551405 
L 414.911392 168.660662 
L 407.848101 168.774505 
L 400.78481 168.920777 
L 393.721519 169.061667 
L 386.658228 169.224811 
L 379.594937 169.380473 
L 372.531646 169.551988 
L 365.468354 169.714784 
L 358.405063 169.886575 
L 351.341772 170.06704 
L 344.278481 170.257877 
L 337.21519 170.465997 
L 330.151899 170.668107 
L 323.088608 170.874646 
L 316.025316 171.097285 
L 308.962025 171.320685 
L 301.898734 171.543189 
L 294.835443 171.771287 
L 287.772152 172.04692 
L 280.708861 172.340952 
L 273.64557 172.637391 
L 266.582278 172.946384 
L 259.518987 173.265955 
L 252.455696 173.587445 
L 245.392405 173.92004 
L 238.329114 174.254763 
L 231.265823 174.596583 
L 224.202532 174.936797 
L 217.139241 175.27855 
L 210.075949 175.64068 
L 203.012658 176.017773 
L 195.949367 176.393531 
L 188.886076 176.786376 
L 181.822785 177.171013 
L 174.759494 177.546194 
L 167.696203 177.918211 
L 160.632911 178.272828 
L 153.56962 178.599939 
L 146.506329 178.923889 
L 139.443038 179.243905 
L 132.379747 179.562829 
L 125.316456 179.869707 
L 118.253165 180.179809 
L 111.189873 180.476301 
L 104.126582 180.764423 
L 97.063291 181.039328 
L 90 181.304937 
z
" clip-path="url(#p0ad3b9ad4c)" style="fill: #4682b4"/>
   </g>
   <g id="PolyCollection_4">
    <path d="M 90 178.354564 
L 90 181.304937 
L 97.063291 181.039328 
L 104.126582 180.764423 
L 111.189873 180.476301 
L 118.253165 180.179809 
L 125.316456 179.869707 
L 132.379747 179.562829 
L 139.443038 179.243905 
L 146.506329 178.923889 
L 153.56962 178.599939 
L 160.632911 178.272828 
L 167.696203 177.918211 
L 174.759494 177.546194 
L 181.822785 177.171013 
L 188.886076 176.786376 
L 195.949367 176.393531 
L 203.012658 176.017773 
L 210.075949 175.64068 
L 217.139241 175.27855 
L 224.202532 174.936797 
L 231.265823 174.596583 
L 238.329114 174.254763 
L 245.392405 173.92004 
L 252.455696 173.587445 
L 259.518987 173.265955 
L 266.582278 172.946384 
L 273.64557 172.637391 
L 280.708861 172.340952 
L 287.772152 172.04692 
L 294.835443 171.771287 
L 301.898734 171.543189 
L 308.962025 171.320685 
L 316.025316 171.097285 
L 323.088608 170.874646 
L 330.151899 170.668107 
L 337.21519 170.465997 
L 344.278481 170.257877 
L 351.341772 170.06704 
L 358.405063 169.886575 
L 365.468354 169.714784 
L 372.531646 169.551988 
L 379.594937 169.380473 
L 386.658228 169.224811 
L 393.721519 169.061667 
L 400.78481 168.920777 
L 407.848101 168.774505 
L 414.911392 168.660662 
L 421.974684 168.551405 
L 429.037975 168.453211 
L 436.101266 168.378817 
L 443.164557 168.315436 
L 450.227848 168.260326 
L 457.291139 168.2078 
L 464.35443 168.161174 
L 471.417722 168.124615 
L 478.481013 168.096258 
L 485.544304 168.08318 
L 492.607595 168.07501 
L 499.670886 168.084672 
L 506.734177 168.097401 
L 513.797468 168.141231 
L 520.860759 168.165661 
L 527.924051 168.197281 
L 534.987342 168.234105 
L 542.050633 168.280674 
L 549.113924 168.322795 
L 556.177215 168.367784 
L 563.240506 168.428966 
L 570.303797 168.496254 
L 577.367089 168.567201 
L 584.43038 168.638522 
L 591.493671 168.729463 
L 598.556962 168.819716 
L 605.620253 168.918633 
L 612.683544 169.010592 
L 619.746835 169.112273 
L 626.810127 169.229804 
L 633.873418 169.345039 
L 640.936709 169.459656 
L 648 169.590654 
L 648 142.169416 
L 648 142.169416 
L 640.936709 142.130425 
L 633.873418 142.129207 
L 626.810127 142.135207 
L 619.746835 142.15916 
L 612.683544 142.209601 
L 605.620253 142.270271 
L 598.556962 142.344964 
L 591.493671 142.443858 
L 584.43038 142.541721 
L 577.367089 142.67634 
L 570.303797 142.833756 
L 563.240506 143.007873 
L 556.177215 143.213175 
L 549.113924 143.443494 
L 542.050633 143.704211 
L 534.987342 143.971298 
L 527.924051 144.255506 
L 520.860759 144.563916 
L 513.797468 144.884699 
L 506.734177 145.191155 
L 499.670886 145.54457 
L 492.607595 145.923904 
L 485.544304 146.337158 
L 478.481013 146.767371 
L 471.417722 147.232171 
L 464.35443 147.714419 
L 457.291139 148.207958 
L 450.227848 148.710736 
L 443.164557 149.222821 
L 436.101266 149.733288 
L 429.037975 150.27689 
L 421.974684 150.843075 
L 414.911392 151.434893 
L 407.848101 152.041211 
L 400.78481 152.67645 
L 393.721519 153.304454 
L 386.658228 153.951026 
L 379.594937 154.584622 
L 372.531646 155.222158 
L 365.468354 155.830192 
L 358.405063 156.449423 
L 351.341772 157.066131 
L 344.278481 157.695132 
L 337.21519 158.337123 
L 330.151899 158.959834 
L 323.088608 159.584261 
L 316.025316 160.212156 
L 308.962025 160.839638 
L 301.898734 161.450956 
L 294.835443 162.048943 
L 287.772152 162.688886 
L 280.708861 163.337599 
L 273.64557 163.988692 
L 266.582278 164.639886 
L 259.518987 165.302054 
L 252.455696 165.946492 
L 245.392405 166.597392 
L 238.329114 167.239407 
L 231.265823 167.871882 
L 224.202532 168.486856 
L 217.139241 169.095378 
L 210.075949 169.712905 
L 203.012658 170.340955 
L 195.949367 170.956749 
L 188.886076 171.580632 
L 181.822785 172.184969 
L 174.759494 172.771919 
L 167.696203 173.343744 
L 160.632911 173.887911 
L 153.56962 174.389617 
L 146.506329 174.87937 
L 139.443038 175.361411 
L 132.379747 175.837798 
L 125.316456 176.294921 
L 118.253165 176.74658 
L 111.189873 177.176589 
L 104.126582 177.590801 
L 97.063291 177.982228 
L 90 178.354564 
z
" clip-path="url(#p0ad3b9ad4c)" style="fill: #ffa500"/>
   </g>
   <g id="PolyCollection_5">
    <path d="M 90 173.943074 
L 90 178.354564 
L 97.063291 177.982228 
L 104.126582 177.590801 
L 111.189873 177.176589 
L 118.253165 176.74658 
L 125.316456 176.294921 
L 132.379747 175.837798 
L 139.443038 175.361411 
L 146.506329 174.87937 
L 153.56962 174.389617 
L 160.632911 173.887911 
L 167.696203 173.343744 
L 174.759494 172.771919 
L 181.822785 172.184969 
L 188.886076 171.580632 
L 195.949367 170.956749 
L 203.012658 170.340955 
L 210.075949 169.712905 
L 217.139241 169.095378 
L 224.202532 168.486856 
L 231.265823 167.871882 
L 238.329114 167.239407 
L 245.392405 166.597392 
L 252.455696 165.946492 
L 259.518987 165.302054 
L 266.582278 164.639886 
L 273.64557 163.988692 
L 280.708861 163.337599 
L 287.772152 162.688886 
L 294.835443 162.048943 
L 301.898734 161.450956 
L 308.962025 160.839638 
L 316.025316 160.212156 
L 323.088608 159.584261 
L 330.151899 158.959834 
L 337.21519 158.337123 
L 344.278481 157.695132 
L 351.341772 157.066131 
L 358.405063 156.449423 
L 365.468354 155.830192 
L 372.531646 155.222158 
L 379.594937 154.584622 
L 386.658228 153.951026 
L 393.721519 153.304454 
L 400.78481 152.67645 
L 407.848101 152.041211 
L 414.911392 151.434893 
L 421.974684 150.843075 
L 429.037975 150.27689 
L 436.101266 149.733288 
L 443.164557 149.222821 
L 450.227848 148.710736 
L 457.291139 148.207958 
L 464.35443 147.714419 
L 471.417722 147.232171 
L 478.481013 146.767371 
L 485.544304 146.337158 
L 492.607595 145.923904 
L 499.670886 145.54457 
L 506.734177 145.191155 
L 513.797468 144.884699 
L 520.860759 144.563916 
L 527.924051 144.255506 
L 534.987342 143.971298 
L 542.050633 143.704211 
L 549.113924 143.443494 
L 556.177215 143.213175 
L 563.240506 143.007873 
L 570.303797 142.833756 
L 577.367089 142.67634 
L 584.43038 142.541721 
L 591.493671 142.443858 
L 598.556962 142.344964 
L 605.620253 142.270271 
L 612.683544 142.209601 
L 619.746835 142.15916 
L 626.810127 142.135207 
L 633.873418 142.129207 
L 640.936709 142.130425 
L 648 142.169416 
L 648 133.147841 
L 648 133.147841 
L 640.936709 133.046575 
L 633.873418 132.982785 
L 626.810127 132.93108 
L 619.746835 132.899001 
L 612.683544 132.895779 
L 605.620253 132.90239 
L 598.556962 132.929263 
L 591.493671 132.986919 
L 584.43038 133.042793 
L 577.367089 133.139135 
L 570.303797 133.273534 
L 563.240506 133.415371 
L 556.177215 133.596566 
L 549.113924 133.79956 
L 542.050633 134.032669 
L 534.987342 134.281608 
L 527.924051 134.544133 
L 520.860759 134.830509 
L 513.797468 135.139141 
L 506.734177 135.425154 
L 499.670886 135.767436 
L 492.607595 136.139769 
L 485.544304 136.546748 
L 478.481013 136.9754 
L 471.417722 137.445398 
L 464.35443 137.933421 
L 457.291139 138.442722 
L 450.227848 138.962001 
L 443.164557 139.499916 
L 436.101266 140.039019 
L 429.037975 140.623632 
L 421.974684 141.234864 
L 414.911392 141.873813 
L 407.848101 142.543027 
L 400.78481 143.243499 
L 393.721519 143.935579 
L 386.658228 144.651016 
L 379.594937 145.35787 
L 372.531646 146.066037 
L 365.468354 146.742734 
L 358.405063 147.434109 
L 351.341772 148.131894 
L 344.278481 148.842489 
L 337.21519 149.56851 
L 330.151899 150.286102 
L 323.088608 151.004131 
L 316.025316 151.726774 
L 308.962025 152.456976 
L 301.898734 153.169837 
L 294.835443 153.866045 
L 287.772152 154.614893 
L 280.708861 155.368609 
L 273.64557 156.130827 
L 266.582278 156.886764 
L 259.518987 157.664213 
L 252.455696 158.42315 
L 245.392405 159.193919 
L 238.329114 159.962337 
L 231.265823 160.72302 
L 224.202532 161.469533 
L 217.139241 162.215711 
L 210.075949 162.978327 
L 203.012658 163.75264 
L 195.949367 164.516519 
L 188.886076 165.289321 
L 181.822785 166.041819 
L 174.759494 166.776754 
L 167.696203 167.495434 
L 160.632911 168.178644 
L 153.56962 168.818327 
L 146.506329 169.439073 
L 139.443038 170.056381 
L 132.379747 170.665875 
L 125.316456 171.258553 
L 118.253165 171.845024 
L 111.189873 172.403668 
L 104.126582 172.942106 
L 97.063291 173.456033 
L 90 173.943074 
z
" clip-path="url(#p0ad3b9ad4c)" style="fill: #87ceeb"/>
   </g>
   <g id="PolyCollection_6">
    <path d="M 90 170.252201 
L 90 173.943074 
L 97.063291 173.456033 
L 104.126582 172.942106 
L 111.189873 172.403668 
L 118.253165 171.845024 
L 125.316456 171.258553 
L 132.379747 170.665875 
L 139.443038 170.056381 
L 146.506329 169.439073 
L 153.56962 168.818327 
L 160.632911 168.178644 
L 167.696203 167.495434 
L 174.759494 166.776754 
L 181.822785 166.041819 
L 188.886076 165.289321 
L 195.949367 164.516519 
L 203.012658 163.75264 
L 210.075949 162.978327 
L 217.139241 162.215711 
L 224.202532 161.469533 
L 231.265823 160.72302 
L 238.329114 159.962337 
L 245.392405 159.193919 
L 252.455696 158.42315 
L 259.518987 157.664213 
L 266.582278 156.886764 
L 273.64557 156.130827 
L 280.708861 155.368609 
L 287.772152 154.614893 
L 294.835443 153.866045 
L 301.898734 153.169837 
L 308.962025 152.456976 
L 316.025316 151.726774 
L 323.088608 151.004131 
L 330.151899 150.286102 
L 337.21519 149.56851 
L 344.278481 148.842489 
L 351.341772 148.131894 
L 358.405063 147.434109 
L 365.468354 146.742734 
L 372.531646 146.066037 
L 379.594937 145.35787 
L 386.658228 144.651016 
L 393.721519 143.935579 
L 400.78481 143.243499 
L 407.848101 142.543027 
L 414.911392 141.873813 
L 421.974684 141.234864 
L 429.037975 140.623632 
L 436.101266 140.039019 
L 443.164557 139.499916 
L 450.227848 138.962001 
L 457.291139 138.442722 
L 464.35443 137.933421 
L 471.417722 137.445398 
L 478.481013 136.9754 
L 485.544304 136.546748 
L 492.607595 136.139769 
L 499.670886 135.767436 
L 506.734177 135.425154 
L 513.797468 135.139141 
L 520.860759 134.830509 
L 527.924051 134.544133 
L 534.987342 134.281608 
L 542.050633 134.032669 
L 549.113924 133.79956 
L 556.177215 133.596566 
L 563.240506 133.415371 
L 570.303797 133.273534 
L 577.367089 133.139135 
L 584.43038 133.042793 
L 591.493671 132.986919 
L 598.556962 132.929263 
L 605.620253 132.90239 
L 612.683544 132.895779 
L 619.746835 132.899001 
L 626.810127 132.93108 
L 633.873418 132.982785 
L 640.936709 133.046575 
L 648 133.147841 
L 648 126.171715 
L 648 126.171715 
L 640.936709 126.077522 
L 633.873418 126.015512 
L 626.810127 125.972075 
L 619.746835 125.948931 
L 612.683544 125.950798 
L 605.620253 125.968717 
L 598.556962 126.005041 
L 591.493671 126.072652 
L 584.43038 126.141329 
L 577.367089 126.24623 
L 570.303797 126.393962 
L 563.240506 126.551902 
L 556.177215 126.744215 
L 549.113924 126.961148 
L 542.050633 127.210465 
L 534.987342 127.480988 
L 527.924051 127.760991 
L 520.860759 128.065294 
L 513.797468 128.39628 
L 506.734177 128.701508 
L 499.670886 129.069423 
L 492.607595 129.472064 
L 485.544304 129.913253 
L 478.481013 130.379188 
L 471.417722 130.884603 
L 464.35443 131.416847 
L 457.291139 131.97384 
L 450.227848 132.531625 
L 443.164557 133.111239 
L 436.101266 133.699372 
L 429.037975 134.335834 
L 421.974684 134.995344 
L 414.911392 135.688134 
L 407.848101 136.408047 
L 400.78481 137.163693 
L 393.721519 137.911144 
L 386.658228 138.685238 
L 379.594937 139.447256 
L 372.531646 140.210768 
L 365.468354 140.938704 
L 358.405063 141.680777 
L 351.341772 142.440624 
L 344.278481 143.206258 
L 337.21519 143.988059 
L 330.151899 144.766659 
L 323.088608 145.545905 
L 316.025316 146.330452 
L 308.962025 147.115081 
L 301.898734 147.888076 
L 294.835443 148.641362 
L 287.772152 149.455334 
L 280.708861 150.272469 
L 273.64557 151.09769 
L 266.582278 151.920677 
L 259.518987 152.76024 
L 252.455696 153.584617 
L 245.392405 154.416208 
L 238.329114 155.242881 
L 231.265823 156.062774 
L 224.202532 156.867435 
L 217.139241 157.67361 
L 210.075949 158.496604 
L 203.012658 159.32885 
L 195.949367 160.154167 
L 188.886076 160.986687 
L 181.822785 161.801279 
L 174.759494 162.589449 
L 167.696203 163.362447 
L 160.632911 164.096288 
L 153.56962 164.778077 
L 146.506329 165.444462 
L 139.443038 166.104141 
L 132.379747 166.753753 
L 125.316456 167.390563 
L 118.253165 168.017691 
L 111.189873 168.616163 
L 104.126582 169.192172 
L 97.063291 169.732704 
L 90 170.252201 
z
" clip-path="url(#p0ad3b9ad4c)" style="fill: #00bfff"/>
   </g>
   <g id="PolyCollection_7">
    <path d="M 90 165.75757 
L 90 170.252201 
L 97.063291 169.732704 
L 104.126582 169.192172 
L 111.189873 168.616163 
L 118.253165 168.017691 
L 125.316456 167.390563 
L 132.379747 166.753753 
L 139.443038 166.104141 
L 146.506329 165.444462 
L 153.56962 164.778077 
L 160.632911 164.096288 
L 167.696203 163.362447 
L 174.759494 162.589449 
L 181.822785 161.801279 
L 188.886076 160.986687 
L 195.949367 160.154167 
L 203.012658 159.32885 
L 210.075949 158.496604 
L 217.139241 157.67361 
L 224.202532 156.867435 
L 231.265823 156.062774 
L 238.329114 155.242881 
L 245.392405 154.416208 
L 252.455696 153.584617 
L 259.518987 152.76024 
L 266.582278 151.920677 
L 273.64557 151.09769 
L 280.708861 150.272469 
L 287.772152 149.455334 
L 294.835443 148.641362 
L 301.898734 147.888076 
L 308.962025 147.115081 
L 316.025316 146.330452 
L 323.088608 145.545905 
L 330.151899 144.766659 
L 337.21519 143.988059 
L 344.278481 143.206258 
L 351.341772 142.440624 
L 358.405063 141.680777 
L 365.468354 140.938704 
L 372.531646 140.210768 
L 379.594937 139.447256 
L 386.658228 138.685238 
L 393.721519 137.911144 
L 400.78481 137.163693 
L 407.848101 136.408047 
L 414.911392 135.688134 
L 421.974684 134.995344 
L 429.037975 134.335834 
L 436.101266 133.699372 
L 443.164557 133.111239 
L 450.227848 132.531625 
L 457.291139 131.97384 
L 464.35443 131.416847 
L 471.417722 130.884603 
L 478.481013 130.379188 
L 485.544304 129.913253 
L 492.607595 129.472064 
L 499.670886 129.069423 
L 506.734177 128.701508 
L 513.797468 128.39628 
L 520.860759 128.065294 
L 527.924051 127.760991 
L 534.987342 127.480988 
L 542.050633 127.210465 
L 549.113924 126.961148 
L 556.177215 126.744215 
L 563.240506 126.551902 
L 570.303797 126.393962 
L 577.367089 126.24623 
L 584.43038 126.141329 
L 591.493671 126.072652 
L 598.556962 126.005041 
L 605.620253 125.968717 
L 612.683544 125.950798 
L 619.746835 125.948931 
L 626.810127 125.972075 
L 633.873418 126.015512 
L 640.936709 126.077522 
L 648 126.171715 
L 648 110.298068 
L 648 110.298068 
L 640.936709 110.317937 
L 633.873418 110.368172 
L 626.810127 110.44728 
L 619.746835 110.541776 
L 612.683544 110.664619 
L 605.620253 110.797507 
L 598.556962 110.952808 
L 591.493671 111.142281 
L 584.43038 111.336179 
L 577.367089 111.563013 
L 570.303797 111.840854 
L 563.240506 112.130495 
L 556.177215 112.455854 
L 549.113924 112.802052 
L 542.050633 113.183864 
L 534.987342 113.588245 
L 527.924051 114.010765 
L 520.860759 114.443008 
L 513.797468 114.909928 
L 506.734177 115.353995 
L 499.670886 115.856626 
L 492.607595 116.410552 
L 485.544304 117.004137 
L 478.481013 117.629181 
L 471.417722 118.301241 
L 464.35443 119.003659 
L 457.291139 119.72913 
L 450.227848 120.452471 
L 443.164557 121.202042 
L 436.101266 121.963359 
L 429.037975 122.762174 
L 421.974684 123.588665 
L 414.911392 124.457537 
L 407.848101 125.355985 
L 400.78481 126.289705 
L 393.721519 127.20607 
L 386.658228 128.163044 
L 379.594937 129.101878 
L 372.531646 130.029617 
L 365.468354 130.927789 
L 358.405063 131.838859 
L 351.341772 132.772616 
L 344.278481 133.705508 
L 337.21519 134.663098 
L 330.151899 135.61295 
L 323.088608 136.560179 
L 316.025316 137.50251 
L 308.962025 138.452272 
L 301.898734 139.383191 
L 294.835443 140.280512 
L 287.772152 141.272414 
L 280.708861 142.265735 
L 273.64557 143.259927 
L 266.582278 144.250282 
L 259.518987 145.254146 
L 252.455696 146.239094 
L 245.392405 147.228334 
L 238.329114 148.208576 
L 231.265823 149.181786 
L 224.202532 150.137169 
L 217.139241 151.090375 
L 210.075949 152.067269 
L 203.012658 153.049843 
L 195.949367 154.024567 
L 188.886076 155.003591 
L 181.822785 155.960563 
L 174.759494 156.886729 
L 167.696203 157.785647 
L 160.632911 158.645644 
L 153.56962 159.442716 
L 146.506329 160.219003 
L 139.443038 160.98863 
L 132.379747 161.741426 
L 125.316456 162.480751 
L 118.253165 163.202825 
L 111.189873 163.890923 
L 104.126582 164.550404 
L 97.063291 165.168639 
L 90 165.75757 
z
" clip-path="url(#p0ad3b9ad4c)" style="fill: #add8e6"/>
   </g>
   <g id="PolyCollection_8">
    <path d="M 90 161.817331 
L 90 165.75757 
L 97.063291 165.168639 
L 104.126582 164.550404 
L 111.189873 163.890923 
L 118.253165 163.202825 
L 125.316456 162.480751 
L 132.379747 161.741426 
L 139.443038 160.98863 
L 146.506329 160.219003 
L 153.56962 159.442716 
L 160.632911 158.645644 
L 167.696203 157.785647 
L 174.759494 156.886729 
L 181.822785 155.960563 
L 188.886076 155.003591 
L 195.949367 154.024567 
L 203.012658 153.049843 
L 210.075949 152.067269 
L 217.139241 151.090375 
L 224.202532 150.137169 
L 231.265823 149.181786 
L 238.329114 148.208576 
L 245.392405 147.228334 
L 252.455696 146.239094 
L 259.518987 145.254146 
L 266.582278 144.250282 
L 273.64557 143.259927 
L 280.708861 142.265735 
L 287.772152 141.272414 
L 294.835443 140.280512 
L 301.898734 139.383191 
L 308.962025 138.452272 
L 316.025316 137.50251 
L 323.088608 136.560179 
L 330.151899 135.61295 
L 337.21519 134.663098 
L 344.278481 133.705508 
L 351.341772 132.772616 
L 358.405063 131.838859 
L 365.468354 130.927789 
L 372.531646 130.029617 
L 379.594937 129.101878 
L 386.658228 128.163044 
L 393.721519 127.20607 
L 400.78481 126.289705 
L 407.848101 125.355985 
L 414.911392 124.457537 
L 421.974684 123.588665 
L 429.037975 122.762174 
L 436.101266 121.963359 
L 443.164557 121.202042 
L 450.227848 120.452471 
L 457.291139 119.72913 
L 464.35443 119.003659 
L 471.417722 118.301241 
L 478.481013 117.629181 
L 485.544304 117.004137 
L 492.607595 116.410552 
L 499.670886 115.856626 
L 506.734177 115.353995 
L 513.797468 114.909928 
L 520.860759 114.443008 
L 527.924051 114.010765 
L 534.987342 113.588245 
L 542.050633 113.183864 
L 549.113924 112.802052 
L 556.177215 112.455854 
L 563.240506 112.130495 
L 570.303797 111.840854 
L 577.367089 111.563013 
L 584.43038 111.336179 
L 591.493671 111.142281 
L 598.556962 110.952808 
L 605.620253 110.797507 
L 612.683544 110.664619 
L 619.746835 110.541776 
L 626.810127 110.44728 
L 633.873418 110.368172 
L 640.936709 110.317937 
L 648 110.298068 
L 648 91.344919 
L 648 91.344919 
L 640.936709 91.338714 
L 633.873418 91.385195 
L 626.810127 91.454168 
L 619.746835 91.549447 
L 612.683544 91.692445 
L 605.620253 91.83268 
L 598.556962 92.010001 
L 591.493671 92.234025 
L 584.43038 92.473299 
L 577.367089 92.749701 
L 570.303797 93.08531 
L 563.240506 93.436704 
L 556.177215 93.827524 
L 549.113924 94.252266 
L 542.050633 94.715962 
L 534.987342 95.205912 
L 527.924051 95.738026 
L 520.860759 96.281314 
L 513.797468 96.864484 
L 506.734177 97.447166 
L 499.670886 98.086018 
L 492.607595 98.795143 
L 485.544304 99.546577 
L 478.481013 100.349785 
L 471.417722 101.200286 
L 464.35443 102.08787 
L 457.291139 103.022509 
L 450.227848 103.944721 
L 443.164557 104.910554 
L 436.101266 105.891196 
L 429.037975 106.922027 
L 421.974684 107.985717 
L 414.911392 109.108787 
L 407.848101 110.276428 
L 400.78481 111.484095 
L 393.721519 112.681499 
L 386.658228 113.919097 
L 379.594937 115.147308 
L 372.531646 116.357976 
L 365.468354 117.544166 
L 358.405063 118.737222 
L 351.341772 119.95937 
L 344.278481 121.179062 
L 337.21519 122.438794 
L 330.151899 123.687217 
L 323.088608 124.937651 
L 316.025316 126.175444 
L 308.962025 127.428532 
L 301.898734 128.663511 
L 294.835443 129.865465 
L 287.772152 131.15109 
L 280.708861 132.451252 
L 273.64557 133.745713 
L 266.582278 135.030884 
L 259.518987 136.335296 
L 252.455696 137.613813 
L 245.392405 138.888141 
L 238.329114 140.151879 
L 231.265823 141.400108 
L 224.202532 142.62474 
L 217.139241 143.844568 
L 210.075949 145.082946 
L 203.012658 146.33129 
L 195.949367 147.56038 
L 188.886076 148.785877 
L 181.822785 149.978147 
L 174.759494 151.129532 
L 167.696203 152.24325 
L 160.632911 153.302991 
L 153.56962 154.283078 
L 146.506329 155.236893 
L 139.443038 156.167617 
L 132.379747 157.075792 
L 125.316456 157.962755 
L 118.253165 158.824613 
L 111.189873 159.636246 
L 104.126582 160.410457 
L 97.063291 161.137127 
L 90 161.817331 
z
" clip-path="url(#p0ad3b9ad4c)" style="fill: #b0e0e6"/>
   </g>
   <g id="PolyCollection_9">
    <path d="M 90 143.603365 
L 90 161.817331 
L 97.063291 161.137127 
L 104.126582 160.410457 
L 111.189873 159.636246 
L 118.253165 158.824613 
L 125.316456 157.962755 
L 132.379747 157.075792 
L 139.443038 156.167617 
L 146.506329 155.236893 
L 153.56962 154.283078 
L 160.632911 153.302991 
L 167.696203 152.24325 
L 174.759494 151.129532 
L 181.822785 149.978147 
L 188.886076 148.785877 
L 195.949367 147.56038 
L 203.012658 146.33129 
L 210.075949 145.082946 
L 217.139241 143.844568 
L 224.202532 142.62474 
L 231.265823 141.400108 
L 238.329114 140.151879 
L 245.392405 138.888141 
L 252.455696 137.613813 
L 259.518987 136.335296 
L 266.582278 135.030884 
L 273.64557 133.745713 
L 280.708861 132.451252 
L 287.772152 131.15109 
L 294.835443 129.865465 
L 301.898734 128.663511 
L 308.962025 127.428532 
L 316.025316 126.175444 
L 323.088608 124.937651 
L 330.151899 123.687217 
L 337.21519 122.438794 
L 344.278481 121.179062 
L 351.341772 119.95937 
L 358.405063 118.737222 
L 365.468354 117.544166 
L 372.531646 116.357976 
L 379.594937 115.147308 
L 386.658228 113.919097 
L 393.721519 112.681499 
L 400.78481 111.484095 
L 407.848101 110.276428 
L 414.911392 109.108787 
L 421.974684 107.985717 
L 429.037975 106.922027 
L 436.101266 105.891196 
L 443.164557 104.910554 
L 450.227848 103.944721 
L 457.291139 103.022509 
L 464.35443 102.08787 
L 471.417722 101.200286 
L 478.481013 100.349785 
L 485.544304 99.546577 
L 492.607595 98.795143 
L 499.670886 98.086018 
L 506.734177 97.447166 
L 513.797468 96.864484 
L 520.860759 96.281314 
L 527.924051 95.738026 
L 534.987342 95.205912 
L 542.050633 94.715962 
L 549.113924 94.252266 
L 556.177215 93.827524 
L 563.240506 93.436704 
L 570.303797 93.08531 
L 577.367089 92.749701 
L 584.43038 92.473299 
L 591.493671 92.234025 
L 598.556962 92.010001 
L 605.620253 91.83268 
L 612.683544 91.692445 
L 619.746835 91.549447 
L 626.810127 91.454168 
L 633.873418 91.385195 
L 640.936709 91.338714 
L 648 91.344919 
L 648 78.493855 
L 648 78.493855 
L 640.936709 78.218534 
L 633.873418 77.970769 
L 626.810127 77.76886 
L 619.746835 77.546906 
L 612.683544 77.395974 
L 605.620253 77.239744 
L 598.556962 77.098282 
L 591.493671 77.005402 
L 584.43038 76.948719 
L 577.367089 76.928756 
L 570.303797 76.943132 
L 563.240506 76.95277 
L 556.177215 76.997021 
L 549.113924 77.10109 
L 542.050633 77.183897 
L 534.987342 77.327338 
L 527.924051 77.49014 
L 520.860759 77.687403 
L 513.797468 77.924879 
L 506.734177 78.161598 
L 499.670886 78.431936 
L 492.607595 78.795351 
L 485.544304 79.201805 
L 478.481013 79.636331 
L 471.417722 80.141621 
L 464.35443 80.661544 
L 457.291139 81.227961 
L 450.227848 81.782243 
L 443.164557 82.380147 
L 436.101266 82.992898 
L 429.037975 83.679355 
L 421.974684 84.352666 
L 414.911392 85.17772 
L 407.848101 86.04766 
L 400.78481 86.93457 
L 393.721519 87.834312 
L 386.658228 88.751199 
L 379.594937 89.682208 
L 372.531646 90.641344 
L 365.468354 91.484058 
L 358.405063 92.402969 
L 351.341772 93.35078 
L 344.278481 94.319667 
L 337.21519 95.374397 
L 330.151899 96.395058 
L 323.088608 97.440735 
L 316.025316 98.473637 
L 308.962025 99.567901 
L 301.898734 100.667367 
L 294.835443 101.733523 
L 287.772152 102.883446 
L 280.708861 104.094169 
L 273.64557 105.322002 
L 266.582278 106.586611 
L 259.518987 107.916801 
L 252.455696 109.243838 
L 245.392405 110.612953 
L 238.329114 111.971221 
L 231.265823 113.360042 
L 224.202532 114.748397 
L 217.139241 116.154912 
L 210.075949 117.649026 
L 203.012658 119.222263 
L 195.949367 120.776174 
L 188.886076 122.39559 
L 181.822785 124.027697 
L 174.759494 125.618823 
L 167.696203 127.195119 
L 160.632911 128.740353 
L 153.56962 130.251923 
L 146.506329 131.737106 
L 139.443038 133.268225 
L 132.379747 134.845827 
L 125.316456 136.356103 
L 118.253165 137.887442 
L 111.189873 139.41455 
L 104.126582 140.858099 
L 97.063291 142.253962 
L 90 143.603365 
z
" clip-path="url(#p0ad3b9ad4c)" style="fill: #008000"/>
   </g>
   <g id="PolyCollection_10">
    <path d="M 90 139.848903 
L 90 143.603365 
L 97.063291 142.253962 
L 104.126582 140.858099 
L 111.189873 139.41455 
L 118.253165 137.887442 
L 125.316456 136.356103 
L 132.379747 134.845827 
L 139.443038 133.268225 
L 146.506329 131.737106 
L 153.56962 130.251923 
L 160.632911 128.740353 
L 167.696203 127.195119 
L 174.759494 125.618823 
L 181.822785 124.027697 
L 188.886076 122.39559 
L 195.949367 120.776174 
L 203.012658 119.222263 
L 210.075949 117.649026 
L 217.139241 116.154912 
L 224.202532 114.748397 
L 231.265823 113.360042 
L 238.329114 111.971221 
L 245.392405 110.612953 
L 252.455696 109.243838 
L 259.518987 107.916801 
L 266.582278 106.586611 
L 273.64557 105.322002 
L 280.708861 104.094169 
L 287.772152 102.883446 
L 294.835443 101.733523 
L 301.898734 100.667367 
L 308.962025 99.567901 
L 316.025316 98.473637 
L 323.088608 97.440735 
L 330.151899 96.395058 
L 337.21519 95.374397 
L 344.278481 94.319667 
L 351.341772 93.35078 
L 358.405063 92.402969 
L 365.468354 91.484058 
L 372.531646 90.641344 
L 379.594937 89.682208 
L 386.658228 88.751199 
L 393.721519 87.834312 
L 400.78481 86.93457 
L 407.848101 86.04766 
L 414.911392 85.17772 
L 421.974684 84.352666 
L 429.037975 83.679355 
L 436.101266 82.992898 
L 443.164557 82.380147 
L 450.227848 81.782243 
L 457.291139 81.227961 
L 464.35443 80.661544 
L 471.417722 80.141621 
L 478.481013 79.636331 
L 485.544304 79.201805 
L 492.607595 78.795351 
L 499.670886 78.431936 
L 506.734177 78.161598 
L 513.797468 77.924879 
L 520.860759 77.687403 
L 527.924051 77.49014 
L 534.987342 77.327338 
L 542.050633 77.183897 
L 549.113924 77.10109 
L 556.177215 76.997021 
L 563.240506 76.95277 
L 570.303797 76.943132 
L 577.367089 76.928756 
L 584.43038 76.948719 
L 591.493671 77.005402 
L 598.556962 77.098282 
L 605.620253 77.239744 
L 612.683544 77.395974 
L 619.746835 77.546906 
L 626.810127 77.76886 
L 633.873418 77.970769 
L 640.936709 78.218534 
L 648 78.493855 
L 648 57.34909 
L 648 57.34909 
L 640.936709 56.981635 
L 633.873418 56.66477 
L 626.810127 56.39376 
L 619.746835 56.148773 
L 612.683544 55.905706 
L 605.620253 55.726444 
L 598.556962 55.584981 
L 591.493671 55.469068 
L 584.43038 55.412385 
L 577.367089 55.415456 
L 570.303797 55.452865 
L 563.240506 55.485537 
L 556.177215 55.575854 
L 549.113924 55.749024 
L 542.050633 55.854864 
L 534.987342 56.090439 
L 527.924051 56.322342 
L 520.860759 56.611739 
L 513.797468 56.987416 
L 506.734177 57.339302 
L 499.670886 57.724809 
L 492.607595 58.249458 
L 485.544304 58.84018 
L 478.481013 59.458974 
L 471.417722 60.171565 
L 464.35443 60.875757 
L 457.291139 61.672509 
L 450.227848 62.434093 
L 443.164557 63.262331 
L 436.101266 64.128451 
L 429.037975 65.068277 
L 421.974684 65.994956 
L 414.911392 67.165513 
L 407.848101 68.311855 
L 400.78481 69.567302 
L 393.721519 70.771086 
L 386.658228 72.049599 
L 379.594937 73.270831 
L 372.531646 74.614626 
L 365.468354 75.818966 
L 358.405063 77.076469 
L 351.341772 78.385907 
L 344.278481 79.718724 
L 337.21519 81.137383 
L 330.151899 82.521973 
L 323.088608 83.977647 
L 316.025316 85.397512 
L 308.962025 86.834975 
L 301.898734 88.367471 
L 294.835443 89.790647 
L 287.772152 91.350566 
L 280.708861 92.904488 
L 273.64557 94.523891 
L 266.582278 96.15934 
L 259.518987 97.869583 
L 252.455696 99.56746 
L 245.392405 101.286684 
L 238.329114 103.008881 
L 231.265823 104.745509 
L 224.202532 106.474759 
L 217.139241 108.212956 
L 210.075949 110.04336 
L 203.012658 111.941369 
L 195.949367 113.813143 
L 188.886076 115.741209 
L 181.822785 117.663538 
L 174.759494 119.537976 
L 167.696203 121.386067 
L 160.632911 123.175456 
L 153.56962 124.921968 
L 146.506329 126.625969 
L 139.443038 128.36439 
L 132.379747 130.14008 
L 125.316456 131.836928 
L 118.253165 133.545625 
L 111.189873 135.238574 
L 104.126582 136.836448 
L 97.063291 138.370511 
L 90 139.848903 
z
" clip-path="url(#p0ad3b9ad4c)" style="fill: #00ced1"/>
   </g>
   <g id="PolyCollection_11">
    <path d="M 90 139.243352 
L 90 139.848903 
L 97.063291 138.370511 
L 104.126582 136.836448 
L 111.189873 135.238574 
L 118.253165 133.545625 
L 125.316456 131.836928 
L 132.379747 130.14008 
L 139.443038 128.36439 
L 146.506329 126.625969 
L 153.56962 124.921968 
L 160.632911 123.175456 
L 167.696203 121.386067 
L 174.759494 119.537976 
L 181.822785 117.663538 
L 188.886076 115.741209 
L 195.949367 113.813143 
L 203.012658 111.941369 
L 210.075949 110.04336 
L 217.139241 108.212956 
L 224.202532 106.474759 
L 231.265823 104.745509 
L 238.329114 103.008881 
L 245.392405 101.286684 
L 252.455696 99.56746 
L 259.518987 97.869583 
L 266.582278 96.15934 
L 273.64557 94.523891 
L 280.708861 92.904488 
L 287.772152 91.350566 
L 294.835443 89.790647 
L 301.898734 88.367471 
L 308.962025 86.834975 
L 316.025316 85.397512 
L 323.088608 83.977647 
L 330.151899 82.521973 
L 337.21519 81.137383 
L 344.278481 79.718724 
L 351.341772 78.385907 
L 358.405063 77.076469 
L 365.468354 75.818966 
L 372.531646 74.614626 
L 379.594937 73.270831 
L 386.658228 72.049599 
L 393.721519 70.771086 
L 400.78481 69.567302 
L 407.848101 68.311855 
L 414.911392 67.165513 
L 421.974684 65.994956 
L 429.037975 65.068277 
L 436.101266 64.128451 
L 443.164557 63.262331 
L 450.227848 62.434093 
L 457.291139 61.672509 
L 464.35443 60.875757 
L 471.417722 60.171565 
L 478.481013 59.458974 
L 485.544304 58.84018 
L 492.607595 58.249458 
L 499.670886 57.724809 
L 506.734177 57.339302 
L 513.797468 56.987416 
L 520.860759 56.611739 
L 527.924051 56.322342 
L 534.987342 56.090439 
L 542.050633 55.854864 
L 549.113924 55.749024 
L 556.177215 55.575854 
L 563.240506 55.485537 
L 570.303797 55.452865 
L 577.367089 55.415456 
L 584.43038 55.412385 
L 591.493671 55.469068 
L 598.556962 55.584981 
L 605.620253 55.726444 
L 612.683544 55.905706 
L 619.746835 56.148773 
L 626.810127 56.39376 
L 633.873418 56.66477 
L 640.936709 56.981635 
L 648 57.34909 
L 648 53.972377 
L 648 53.972377 
L 640.936709 53.646383 
L 633.873418 53.366371 
L 626.810127 53.136822 
L 619.746835 52.933295 
L 612.683544 52.731688 
L 605.620253 52.589279 
L 598.556962 52.489277 
L 591.493671 52.414824 
L 584.43038 52.397298 
L 577.367089 52.441829 
L 570.303797 52.518396 
L 563.240506 52.592528 
L 556.177215 52.722002 
L 549.113924 52.934328 
L 542.050633 53.083932 
L 534.987342 53.358665 
L 527.924051 53.629724 
L 520.860759 53.960582 
L 513.797468 54.377719 
L 506.734177 54.768762 
L 499.670886 55.195729 
L 492.607595 55.757232 
L 485.544304 56.394021 
L 478.481013 57.056578 
L 471.417722 57.81063 
L 464.35443 58.560889 
L 457.291139 59.401405 
L 450.227848 60.209055 
L 443.164557 61.078754 
L 436.101266 61.988638 
L 429.037975 62.972227 
L 421.974684 63.94267 
L 414.911392 65.156991 
L 407.848101 66.344793 
L 400.78481 67.6417 
L 393.721519 68.889248 
L 386.658228 70.206918 
L 379.594937 71.471913 
L 372.531646 72.854865 
L 365.468354 74.096059 
L 358.405063 75.390416 
L 351.341772 76.741314 
L 344.278481 78.108681 
L 337.21519 79.566497 
L 330.151899 80.985638 
L 323.088608 82.475862 
L 316.025316 83.932581 
L 308.962025 85.406898 
L 301.898734 86.969337 
L 294.835443 88.427063 
L 287.772152 90.023835 
L 280.708861 91.61346 
L 273.64557 93.268795 
L 266.582278 94.938564 
L 259.518987 96.683127 
L 252.455696 98.41279 
L 245.392405 100.165412 
L 238.329114 101.918244 
L 231.265823 103.685046 
L 224.202532 105.446083 
L 217.139241 107.212611 
L 210.075949 109.072037 
L 203.012658 110.998838 
L 195.949367 112.898022 
L 188.886076 114.853267 
L 181.822785 116.801854 
L 174.759494 118.701168 
L 167.696203 120.573214 
L 160.632911 122.385176 
L 153.56962 124.15357 
L 146.506329 125.878302 
L 139.443038 127.636761 
L 132.379747 129.43203 
L 125.316456 131.147996 
L 118.253165 132.875119 
L 111.189873 134.585804 
L 104.126582 136.200262 
L 97.063291 137.749989 
L 90 139.243352 
z
" clip-path="url(#p0ad3b9ad4c)" style="fill: #00ffff"/>
   </g>
   <g id="PolyCollection_12">
    <path d="M 90 131.287577 
L 90 139.243352 
L 97.063291 137.749989 
L 104.126582 136.200262 
L 111.189873 134.585804 
L 118.253165 132.875119 
L 125.316456 131.147996 
L 132.379747 129.43203 
L 139.443038 127.636761 
L 146.506329 125.878302 
L 153.56962 124.15357 
L 160.632911 122.385176 
L 167.696203 120.573214 
L 174.759494 118.701168 
L 181.822785 116.801854 
L 188.886076 114.853267 
L 195.949367 112.898022 
L 203.012658 110.998838 
L 210.075949 109.072037 
L 217.139241 107.212611 
L 224.202532 105.446083 
L 231.265823 103.685046 
L 238.329114 101.918244 
L 245.392405 100.165412 
L 252.455696 98.41279 
L 259.518987 96.683127 
L 266.582278 94.938564 
L 273.64557 93.268795 
L 280.708861 91.61346 
L 287.772152 90.023835 
L 294.835443 88.427063 
L 301.898734 86.969337 
L 308.962025 85.406898 
L 316.025316 83.932581 
L 323.088608 82.475862 
L 330.151899 80.985638 
L 337.21519 79.566497 
L 344.278481 78.108681 
L 351.341772 76.741314 
L 358.405063 75.390416 
L 365.468354 74.096059 
L 372.531646 72.854865 
L 379.594937 71.471913 
L 386.658228 70.206918 
L 393.721519 68.889248 
L 400.78481 67.6417 
L 407.848101 66.344793 
L 414.911392 65.156991 
L 421.974684 63.94267 
L 429.037975 62.972227 
L 436.101266 61.988638 
L 443.164557 61.078754 
L 450.227848 60.209055 
L 457.291139 59.401405 
L 464.35443 58.560889 
L 471.417722 57.81063 
L 478.481013 57.056578 
L 485.544304 56.394021 
L 492.607595 55.757232 
L 499.670886 55.195729 
L 506.734177 54.768762 
L 513.797468 54.377719 
L 520.860759 53.960582 
L 527.924051 53.629724 
L 534.987342 53.358665 
L 542.050633 53.083932 
L 549.113924 52.934328 
L 556.177215 52.722002 
L 563.240506 52.592528 
L 570.303797 52.518396 
L 577.367089 52.441829 
L 584.43038 52.397298 
L 591.493671 52.414824 
L 598.556962 52.489277 
L 605.620253 52.589279 
L 612.683544 52.731688 
L 619.746835 52.933295 
L 626.810127 53.136822 
L 633.873418 53.366371 
L 640.936709 53.646383 
L 648 53.972377 
L 648 34.532093 
L 648 34.532093 
L 640.936709 34.321266 
L 633.873418 34.133388 
L 626.810127 34.04204 
L 619.746835 33.95368 
L 612.683544 33.867241 
L 605.620253 33.84 
L 598.556962 33.855165 
L 591.493671 33.89588 
L 584.43038 33.993521 
L 577.367089 34.15322 
L 570.303797 34.344954 
L 563.240506 34.557287 
L 556.177215 34.801929 
L 549.113924 35.17549 
L 542.050633 35.417228 
L 534.987342 35.830162 
L 527.924051 36.216389 
L 520.860759 36.662414 
L 513.797468 37.194718 
L 506.734177 37.746997 
L 499.670886 38.289131 
L 492.607595 38.988835 
L 485.544304 39.740791 
L 478.481013 40.564583 
L 471.417722 41.47987 
L 464.35443 42.368329 
L 457.291139 43.37008 
L 450.227848 44.338965 
L 443.164557 45.369899 
L 436.101266 46.39495 
L 429.037975 47.51674 
L 421.974684 48.648418 
L 414.911392 50.023973 
L 407.848101 51.349977 
L 400.78481 52.831151 
L 393.721519 54.239934 
L 386.658228 55.695805 
L 379.594937 57.122035 
L 372.531646 58.620154 
L 365.468354 60.045616 
L 358.405063 61.501208 
L 351.341772 62.990307 
L 344.278481 64.518909 
L 337.21519 66.13796 
L 330.151899 67.695301 
L 323.088608 69.34676 
L 316.025316 70.964713 
L 308.962025 72.554198 
L 301.898734 74.257142 
L 294.835443 75.855372 
L 287.772152 77.620289 
L 280.708861 79.401091 
L 273.64557 81.201538 
L 266.582278 83.041755 
L 259.518987 84.954462 
L 252.455696 86.849966 
L 245.392405 88.759217 
L 238.329114 90.668677 
L 231.265823 92.580589 
L 224.202532 94.505164 
L 217.139241 96.437534 
L 210.075949 98.458195 
L 203.012658 100.55314 
L 195.949367 102.620469 
L 188.886076 104.748465 
L 181.822785 106.865196 
L 174.759494 108.932655 
L 167.696203 110.968239 
L 160.632911 112.934526 
L 153.56962 114.859548 
L 146.506329 116.738604 
L 139.443038 118.649085 
L 132.379747 120.598678 
L 125.316456 122.471272 
L 118.253165 124.355023 
L 111.189873 126.213122 
L 104.126582 127.972691 
L 97.063291 129.662922 
L 90 131.287577 
z
" clip-path="url(#p0ad3b9ad4c)" style="fill: #ff0000"/>
   </g>
   <g id="matplotlib.axis_1">
    <g id="xtick_1">
     <g id="line2d_1">
      <defs>
       <path id="me2204b1fd0" d="M 0 0 
L 0 3.5 
" style="stroke: #000000; stroke-width: 0.8"/>
      </defs>
      <g>
       <use xlink:href="#me2204b1fd0" x="153.56962" y="192.24" style="stroke: #000000; stroke-width: 0.8"/>
      </g>
     </g>
     <g id="text_1">
      <!-- 2030 -->
      <g transform="translate(140.84462 206.838437) scale(0.1 -0.1)">
       <defs>
        <path id="DejaVuSans-32" d="M 1228 531 
L 3431 531 
L 3431 0 
L 469 0 
L 469 531 
Q 828 903 1448 1529 
Q 2069 2156 2228 2338 
Q 2531 2678 2651 2914 
Q 2772 3150 2772 3378 
Q 2772 3750 2511 3984 
Q 2250 4219 1831 4219 
Q 1534 4219 1204 4116 
Q 875 4013 500 3803 
L 500 4441 
Q 881 4594 1212 4672 
Q 1544 4750 1819 4750 
Q 2544 4750 2975 4387 
Q 3406 4025 3406 3419 
Q 3406 3131 3298 2873 
Q 3191 2616 2906 2266 
Q 2828 2175 2409 1742 
Q 1991 1309 1228 531 
z
" transform="scale(0.015625)"/>
        <path id="DejaVuSans-30" d="M 2034 4250 
Q 1547 4250 1301 3770 
Q 1056 3291 1056 2328 
Q 1056 1369 1301 889 
Q 1547 409 2034 409 
Q 2525 409 2770 889 
Q 3016 1369 3016 2328 
Q 3016 3291 2770 3770 
Q 2525 4250 2034 4250 
z
M 2034 4750 
Q 2819 4750 3233 4129 
Q 3647 3509 3647 2328 
Q 3647 1150 3233 529 
Q 2819 -91 2034 -91 
Q 1250 -91 836 529 
Q 422 1150 422 2328 
Q 422 3509 836 4129 
Q 1250 4750 2034 4750 
z
" transform="scale(0.015625)"/>
        <path id="DejaVuSans-33" d="M 2597 2516 
Q 3050 2419 3304 2112 
Q 3559 1806 3559 1356 
Q 3559 666 3084 287 
Q 2609 -91 1734 -91 
Q 1441 -91 1130 -33 
Q 819 25 488 141 
L 488 750 
Q 750 597 1062 519 
Q 1375 441 1716 441 
Q 2309 441 2620 675 
Q 2931 909 2931 1356 
Q 2931 1769 2642 2001 
Q 2353 2234 1838 2234 
L 1294 2234 
L 1294 2753 
L 1863 2753 
Q 2328 2753 2575 2939 
Q 2822 3125 2822 3475 
Q 2822 3834 2567 4026 
Q 2313 4219 1838 4219 
Q 1578 4219 1281 4162 
Q 984 4106 628 3988 
L 628 4550 
Q 988 4650 1302 4700 
Q 1616 4750 1894 4750 
Q 2613 4750 3031 4423 
Q 3450 4097 3450 3541 
Q 3450 3153 3228 2886 
Q 3006 2619 2597 2516 
z
" transform="scale(0.015625)"/>
       </defs>
       <use xlink:href="#DejaVuSans-32"/>
       <use xlink:href="#DejaVuSans-30" x="63.623047"/>
       <use xlink:href="#DejaVuSans-33" x="127.246094"/>
       <use xlink:href="#DejaVuSans-30" x="190.869141"/>
      </g>
     </g>
    </g>
    <g id="xtick_2">
     <g id="line2d_2">
      <g>
       <use xlink:href="#me2204b1fd0" x="224.202532" y="192.24" style="stroke: #000000; stroke-width: 0.8"/>
      </g>
     </g>
     <g id="text_2">
      <!-- 2040 -->
      <g transform="translate(211.477532 206.838437) scale(0.1 -0.1)">
       <defs>
        <path id="DejaVuSans-34" d="M 2419 4116 
L 825 1625 
L 2419 1625 
L 2419 4116 
z
M 2253 4666 
L 3047 4666 
L 3047 1625 
L 3713 1625 
L 3713 1100 
L 3047 1100 
L 3047 0 
L 2419 0 
L 2419 1100 
L 313 1100 
L 313 1709 
L 2253 4666 
z
" transform="scale(0.015625)"/>
       </defs>
       <use xlink:href="#DejaVuSans-32"/>
       <use xlink:href="#DejaVuSans-30" x="63.623047"/>
       <use xlink:href="#DejaVuSans-34" x="127.246094"/>
       <use xlink:href="#DejaVuSans-30" x="190.869141"/>
      </g>
     </g>
    </g>
    <g id="xtick_3">
     <g id="line2d_3">
      <g>
       <use xlink:href="#me2204b1fd0" x="294.835443" y="192.24" style="stroke: #000000; stroke-width: 0.8"/>
      </g>
     </g>
     <g id="text_3">
      <!-- 2050 -->
      <g transform="translate(282.110443 206.838437) scale(0.1 -0.1)">
       <defs>
        <path id="DejaVuSans-35" d="M 691 4666 
L 3169 4666 
L 3169 4134 
L 1269 4134 
L 1269 2991 
Q 1406 3038 1543 3061 
Q 1681 3084 1819 3084 
Q 2600 3084 3056 2656 
Q 3513 2228 3513 1497 
Q 3513 744 3044 326 
Q 2575 -91 1722 -91 
Q 1428 -91 1123 -41 
Q 819 9 494 109 
L 494 744 
Q 775 591 1075 516 
Q 1375 441 1709 441 
Q 2250 441 2565 725 
Q 2881 1009 2881 1497 
Q 2881 1984 2565 2268 
Q 2250 2553 1709 2553 
Q 1456 2553 1204 2497 
Q 953 2441 691 2322 
L 691 4666 
z
" transform="scale(0.015625)"/>
       </defs>
       <use xlink:href="#DejaVuSans-32"/>
       <use xlink:href="#DejaVuSans-30" x="63.623047"/>
       <use xlink:href="#DejaVuSans-35" x="127.246094"/>
       <use xlink:href="#DejaVuSans-30" x="190.869141"/>
      </g>
     </g>
    </g>
    <g id="xtick_4">
     <g id="line2d_4">
      <g>
       <use xlink:href="#me2204b1fd0" x="365.468354" y="192.24" style="stroke: #000000; stroke-width: 0.8"/>
      </g>
     </g>
     <g id="text_4">
      <!-- 2060 -->
      <g transform="translate(352.743354 206.838437) scale(0.1 -0.1)">
       <defs>
        <path id="DejaVuSans-36" d="M 2113 2584 
Q 1688 2584 1439 2293 
Q 1191 2003 1191 1497 
Q 1191 994 1439 701 
Q 1688 409 2113 409 
Q 2538 409 2786 701 
Q 3034 994 3034 1497 
Q 3034 2003 2786 2293 
Q 2538 2584 2113 2584 
z
M 3366 4563 
L 3366 3988 
Q 3128 4100 2886 4159 
Q 2644 4219 2406 4219 
Q 1781 4219 1451 3797 
Q 1122 3375 1075 2522 
Q 1259 2794 1537 2939 
Q 1816 3084 2150 3084 
Q 2853 3084 3261 2657 
Q 3669 2231 3669 1497 
Q 3669 778 3244 343 
Q 2819 -91 2113 -91 
Q 1303 -91 875 529 
Q 447 1150 447 2328 
Q 447 3434 972 4092 
Q 1497 4750 2381 4750 
Q 2619 4750 2861 4703 
Q 3103 4656 3366 4563 
z
" transform="scale(0.015625)"/>
       </defs>
       <use xlink:href="#DejaVuSans-32"/>
       <use xlink:href="#DejaVuSans-30" x="63.623047"/>
       <use xlink:href="#DejaVuSans-36" x="127.246094"/>
       <use xlink:href="#DejaVuSans-30" x="190.869141"/>
      </g>
     </g>
    </g>
    <g id="xtick_5">
     <g id="line2d_5">
      <g>
       <use xlink:href="#me2204b1fd0" x="436.101266" y="192.24" style="stroke: #000000; stroke-width: 0.8"/>
      </g>
     </g>
     <g id="text_5">
      <!-- 2070 -->
      <g transform="translate(423.376266 206.838437) scale(0.1 -0.1)">
       <defs>
        <path id="DejaVuSans-37" d="M 525 4666 
L 3525 4666 
L 3525 4397 
L 1831 0 
L 1172 0 
L 2766 4134 
L 525 4134 
L 525 4666 
z
" transform="scale(0.015625)"/>
       </defs>
       <use xlink:href="#DejaVuSans-32"/>
       <use xlink:href="#DejaVuSans-30" x="63.623047"/>
       <use xlink:href="#DejaVuSans-37" x="127.246094"/>
       <use xlink:href="#DejaVuSans-30" x="190.869141"/>
      </g>
     </g>
    </g>
    <g id="xtick_6">
     <g id="line2d_6">
      <g>
       <use xlink:href="#me2204b1fd0" x="506.734177" y="192.24" style="stroke: #000000; stroke-width: 0.8"/>
      </g>
     </g>
     <g id="text_6">
      <!-- 2080 -->
      <g transform="translate(494.009177 206.838437) scale(0.1 -0.1)">
       <defs>
        <path id="DejaVuSans-38" d="M 2034 2216 
Q 1584 2216 1326 1975 
Q 1069 1734 1069 1313 
Q 1069 891 1326 650 
Q 1584 409 2034 409 
Q 2484 409 2743 651 
Q 3003 894 3003 1313 
Q 3003 1734 2745 1975 
Q 2488 2216 2034 2216 
z
M 1403 2484 
Q 997 2584 770 2862 
Q 544 3141 544 3541 
Q 544 4100 942 4425 
Q 1341 4750 2034 4750 
Q 2731 4750 3128 4425 
Q 3525 4100 3525 3541 
Q 3525 3141 3298 2862 
Q 3072 2584 2669 2484 
Q 3125 2378 3379 2068 
Q 3634 1759 3634 1313 
Q 3634 634 3220 271 
Q 2806 -91 2034 -91 
Q 1263 -91 848 271 
Q 434 634 434 1313 
Q 434 1759 690 2068 
Q 947 2378 1403 2484 
z
M 1172 3481 
Q 1172 3119 1398 2916 
Q 1625 2713 2034 2713 
Q 2441 2713 2670 2916 
Q 2900 3119 2900 3481 
Q 2900 3844 2670 4047 
Q 2441 4250 2034 4250 
Q 1625 4250 1398 4047 
Q 1172 3844 1172 3481 
z
" transform="scale(0.015625)"/>
       </defs>
       <use xlink:href="#DejaVuSans-32"/>
       <use xlink:href="#DejaVuSans-30" x="63.623047"/>
       <use xlink:href="#DejaVuSans-38" x="127.246094"/>
       <use xlink:href="#DejaVuSans-30" x="190.869141"/>
      </g>
     </g>
    </g>
    <g id="xtick_7">
     <g id="line2d_7">
      <g>
       <use xlink:href="#me2204b1fd0" x="577.367089" y="192.24" style="stroke: #000000; stroke-width: 0.8"/>
      </g>
     </g>
     <g id="text_7">
      <!-- 2090 -->
      <g transform="translate(564.642089 206.838437) scale(0.1 -0.1)">
       <defs>
        <path id="DejaVuSans-39" d="M 703 97 
L 703 672 
Q 941 559 1184 500 
Q 1428 441 1663 441 
Q 2288 441 2617 861 
Q 2947 1281 2994 2138 
Q 2813 1869 2534 1725 
Q 2256 1581 1919 1581 
Q 1219 1581 811 2004 
Q 403 2428 403 3163 
Q 403 3881 828 4315 
Q 1253 4750 1959 4750 
Q 2769 4750 3195 4129 
Q 3622 3509 3622 2328 
Q 3622 1225 3098 567 
Q 2575 -91 1691 -91 
Q 1453 -91 1209 -44 
Q 966 3 703 97 
z
M 1959 2075 
Q 2384 2075 2632 2365 
Q 2881 2656 2881 3163 
Q 2881 3666 2632 3958 
Q 2384 4250 1959 4250 
Q 1534 4250 1286 3958 
Q 1038 3666 1038 3163 
Q 1038 2656 1286 2365 
Q 1534 2075 1959 2075 
z
" transform="scale(0.015625)"/>
       </defs>
       <use xlink:href="#DejaVuSans-32"/>
       <use xlink:href="#DejaVuSans-30" x="63.623047"/>
       <use xlink:href="#DejaVuSans-39" x="127.246094"/>
       <use xlink:href="#DejaVuSans-30" x="190.869141"/>
      </g>
     </g>
    </g>
    <g id="xtick_8">
     <g id="line2d_8">
      <g>
       <use xlink:href="#me2204b1fd0" x="648" y="192.24" style="stroke: #000000; stroke-width: 0.8"/>
      </g>
     </g>
     <g id="text_8">
      <!-- 2100 -->
      <g transform="translate(635.275 206.838437) scale(0.1 -0.1)">
       <defs>
        <path id="DejaVuSans-31" d="M 794 531 
L 1825 531 
L 1825 4091 
L 703 3866 
L 703 4441 
L 1819 4666 
L 2450 4666 
L 2450 531 
L 3481 531 
L 3481 0 
L 794 0 
L 794 531 
z
" transform="scale(0.015625)"/>
       </defs>
       <use xlink:href="#DejaVuSans-32"/>
       <use xlink:href="#DejaVuSans-31" x="63.623047"/>
       <use xlink:href="#DejaVuSans-30" x="127.246094"/>
       <use xlink:href="#DejaVuSans-30" x="190.869141"/>
      </g>
     </g>
    </g>
    <g id="text_9">
     <!-- Year -->
     <g transform="translate(358.4125 220.516562) scale(0.1 -0.1)">
      <defs>
       <path id="DejaVuSans-59" d="M -13 4666 
L 666 4666 
L 1959 2747 
L 3244 4666 
L 3922 4666 
L 2272 2222 
L 2272 0 
L 1638 0 
L 1638 2222 
L -13 4666 
z
" transform="scale(0.015625)"/>
       <path id="DejaVuSans-65" d="M 3597 1894 
L 3597 1613 
L 953 1613 
Q 991 1019 1311 708 
Q 1631 397 2203 397 
Q 2534 397 2845 478 
Q 3156 559 3463 722 
L 3463 178 
Q 3153 47 2828 -22 
Q 2503 -91 2169 -91 
Q 1331 -91 842 396 
Q 353 884 353 1716 
Q 353 2575 817 3079 
Q 1281 3584 2069 3584 
Q 2775 3584 3186 3129 
Q 3597 2675 3597 1894 
z
M 3022 2063 
Q 3016 2534 2758 2815 
Q 2500 3097 2075 3097 
Q 1594 3097 1305 2825 
Q 1016 2553 972 2059 
L 3022 2063 
z
" transform="scale(0.015625)"/>
       <path id="DejaVuSans-61" d="M 2194 1759 
Q 1497 1759 1228 1600 
Q 959 1441 959 1056 
Q 959 750 1161 570 
Q 1363 391 1709 391 
Q 2188 391 2477 730 
Q 2766 1069 2766 1631 
L 2766 1759 
L 2194 1759 
z
M 3341 1997 
L 3341 0 
L 2766 0 
L 2766 531 
Q 2569 213 2275 61 
Q 1981 -91 1556 -91 
Q 1019 -91 701 211 
Q 384 513 384 1019 
Q 384 1609 779 1909 
Q 1175 2209 1959 2209 
L 2766 2209 
L 2766 2266 
Q 2766 2663 2505 2880 
Q 2244 3097 1772 3097 
Q 1472 3097 1187 3025 
Q 903 2953 641 2809 
L 641 3341 
Q 956 3463 1253 3523 
Q 1550 3584 1831 3584 
Q 2591 3584 2966 3190 
Q 3341 2797 3341 1997 
z
" transform="scale(0.015625)"/>
       <path id="DejaVuSans-72" d="M 2631 2963 
Q 2534 3019 2420 3045 
Q 2306 3072 2169 3072 
Q 1681 3072 1420 2755 
Q 1159 2438 1159 1844 
L 1159 0 
L 581 0 
L 581 3500 
L 1159 3500 
L 1159 2956 
Q 1341 3275 1631 3429 
Q 1922 3584 2338 3584 
Q 2397 3584 2469 3576 
Q 2541 3569 2628 3553 
L 2631 2963 
z
" transform="scale(0.015625)"/>
      </defs>
      <use xlink:href="#DejaVuSans-59"/>
      <use xlink:href="#DejaVuSans-65" x="47.833984"/>
      <use xlink:href="#DejaVuSans-61" x="109.357422"/>
      <use xlink:href="#DejaVuSans-72" x="170.636719"/>
     </g>
    </g>
   </g>
   <g id="matplotlib.axis_2">
    <g id="ytick_1">
     <g id="line2d_9">
      <defs>
       <path id="me46227f2dc" d="M 0 0 
L -3.5 0 
" style="stroke: #000000; stroke-width: 0.8"/>
      </defs>
      <g>
       <use xlink:href="#me46227f2dc" x="90" y="192.24" style="stroke: #000000; stroke-width: 0.8"/>
      </g>
     </g>
     <g id="text_10">
      <!-- 0 -->
      <g transform="translate(76.6375 196.039219) scale(0.1 -0.1)">
       <use xlink:href="#DejaVuSans-30"/>
      </g>
     </g>
    </g>
    <g id="ytick_2">
     <g id="line2d_10">
      <g>
       <use xlink:href="#me46227f2dc" x="90" y="169.206487" style="stroke: #000000; stroke-width: 0.8"/>
      </g>
     </g>
     <g id="text_11">
      <!-- 20000 -->
      <g transform="translate(51.1875 173.005706) scale(0.1 -0.1)">
       <use xlink:href="#DejaVuSans-32"/>
       <use xlink:href="#DejaVuSans-30" x="63.623047"/>
       <use xlink:href="#DejaVuSans-30" x="127.246094"/>
       <use xlink:href="#DejaVuSans-30" x="190.869141"/>
       <use xlink:href="#DejaVuSans-30" x="254.492188"/>
      </g>
     </g>
    </g>
    <g id="ytick_3">
     <g id="line2d_11">
      <g>
       <use xlink:href="#me46227f2dc" x="90" y="146.172975" style="stroke: #000000; stroke-width: 0.8"/>
      </g>
     </g>
     <g id="text_12">
      <!-- 40000 -->
      <g transform="translate(51.1875 149.972194) scale(0.1 -0.1)">
       <use xlink:href="#DejaVuSans-34"/>
       <use xlink:href="#DejaVuSans-30" x="63.623047"/>
       <use xlink:href="#DejaVuSans-30" x="127.246094"/>
       <use xlink:href="#DejaVuSans-30" x="190.869141"/>
       <use xlink:href="#DejaVuSans-30" x="254.492188"/>
      </g>
     </g>
    </g>
    <g id="ytick_4">
     <g id="line2d_12">
      <g>
       <use xlink:href="#me46227f2dc" x="90" y="123.139462" style="stroke: #000000; stroke-width: 0.8"/>
      </g>
     </g>
     <g id="text_13">
      <!-- 60000 -->
      <g transform="translate(51.1875 126.938681) scale(0.1 -0.1)">
       <use xlink:href="#DejaVuSans-36"/>
       <use xlink:href="#DejaVuSans-30" x="63.623047"/>
       <use xlink:href="#DejaVuSans-30" x="127.246094"/>
       <use xlink:href="#DejaVuSans-30" x="190.869141"/>
       <use xlink:href="#DejaVuSans-30" x="254.492188"/>
      </g>
     </g>
    </g>
    <g id="ytick_5">
     <g id="line2d_13">
      <g>
       <use xlink:href="#me46227f2dc" x="90" y="100.10595" style="stroke: #000000; stroke-width: 0.8"/>
      </g>
     </g>
     <g id="text_14">
      <!-- 80000 -->
      <g transform="translate(51.1875 103.905168) scale(0.1 -0.1)">
       <use xlink:href="#DejaVuSans-38"/>
       <use xlink:href="#DejaVuSans-30" x="63.623047"/>
       <use xlink:href="#DejaVuSans-30" x="127.246094"/>
       <use xlink:href="#DejaVuSans-30" x="190.869141"/>
       <use xlink:href="#DejaVuSans-30" x="254.492188"/>
      </g>
     </g>
    </g>
    <g id="ytick_6">
     <g id="line2d_14">
      <g>
       <use xlink:href="#me46227f2dc" x="90" y="77.072437" style="stroke: #000000; stroke-width: 0.8"/>
      </g>
     </g>
     <g id="text_15">
      <!-- 100000 -->
      <g transform="translate(44.825 80.871656) scale(0.1 -0.1)">
       <use xlink:href="#DejaVuSans-31"/>
       <use xlink:href="#DejaVuSans-30" x="63.623047"/>
       <use xlink:href="#DejaVuSans-30" x="127.246094"/>
       <use xlink:href="#DejaVuSans-30" x="190.869141"/>
       <use xlink:href="#DejaVuSans-30" x="254.492188"/>
       <use xlink:href="#DejaVuSans-30" x="318.115234"/>
      </g>
     </g>
    </g>
    <g id="ytick_7">
     <g id="line2d_15">
      <g>
       <use xlink:href="#me46227f2dc" x="90" y="54.038924" style="stroke: #000000; stroke-width: 0.8"/>
      </g>
     </g>
     <g id="text_16">
      <!-- 120000 -->
      <g transform="translate(44.825 57.838143) scale(0.1 -0.1)">
       <use xlink:href="#DejaVuSans-31"/>
       <use xlink:href="#DejaVuSans-32" x="63.623047"/>
       <use xlink:href="#DejaVuSans-30" x="127.246094"/>
       <use xlink:href="#DejaVuSans-30" x="190.869141"/>
       <use xlink:href="#DejaVuSans-30" x="254.492188"/>
       <use xlink:href="#DejaVuSans-30" x="318.115234"/>
      </g>
     </g>
    </g>
    <g id="ytick_8">
     <g id="line2d_16">
      <g>
       <use xlink:href="#me46227f2dc" x="90" y="31.005412" style="stroke: #000000; stroke-width: 0.8"/>
      </g>
     </g>
     <g id="text_17">
      <!-- 140000 -->
      <g transform="translate(44.825 34.804631) scale(0.1 -0.1)">
       <use xlink:href="#DejaVuSans-31"/>
       <use xlink:href="#DejaVuSans-34" x="63.623047"/>
       <use xlink:href="#DejaVuSans-30" x="127.246094"/>
       <use xlink:href="#DejaVuSans-30" x="190.869141"/>
       <use xlink:href="#DejaVuSans-30" x="254.492188"/>
       <use xlink:href="#DejaVuSans-30" x="318.115234"/>
      </g>
     </g>
    </g>
    <g id="text_18">
     <!-- MtCO2 -->
     <g transform="translate(38.745312 125.962812) rotate(-90) scale(0.1 -0.1)">
      <defs>
       <path id="DejaVuSans-4d" d="M 628 4666 
L 1569 4666 
L 2759 1491 
L 3956 4666 
L 4897 4666 
L 4897 0 
L 4281 0 
L 4281 4097 
L 3078 897 
L 2444 897 
L 1241 4097 
L 1241 0 
L 628 0 
L 628 4666 
z
" transform="scale(0.015625)"/>
       <path id="DejaVuSans-74" d="M 1172 4494 
L 1172 3500 
L 2356 3500 
L 2356 3053 
L 1172 3053 
L 1172 1153 
Q 1172 725 1289 603 
Q 1406 481 1766 481 
L 2356 481 
L 2356 0 
L 1766 0 
Q 1100 0 847 248 
Q 594 497 594 1153 
L 594 3053 
L 172 3053 
L 172 3500 
L 594 3500 
L 594 4494 
L 1172 4494 
z
" transform="scale(0.015625)"/>
       <path id="DejaVuSans-43" d="M 4122 4306 
L 4122 3641 
Q 3803 3938 3442 4084 
Q 3081 4231 2675 4231 
Q 1875 4231 1450 3742 
Q 1025 3253 1025 2328 
Q 1025 1406 1450 917 
Q 1875 428 2675 428 
Q 3081 428 3442 575 
Q 3803 722 4122 1019 
L 4122 359 
Q 3791 134 3420 21 
Q 3050 -91 2638 -91 
Q 1578 -91 968 557 
Q 359 1206 359 2328 
Q 359 3453 968 4101 
Q 1578 4750 2638 4750 
Q 3056 4750 3426 4639 
Q 3797 4528 4122 4306 
z
" transform="scale(0.015625)"/>
       <path id="DejaVuSans-4f" d="M 2522 4238 
Q 1834 4238 1429 3725 
Q 1025 3213 1025 2328 
Q 1025 1447 1429 934 
Q 1834 422 2522 422 
Q 3209 422 3611 934 
Q 4013 1447 4013 2328 
Q 4013 3213 3611 3725 
Q 3209 4238 2522 4238 
z
M 2522 4750 
Q 3503 4750 4090 4092 
Q 4678 3434 4678 2328 
Q 4678 1225 4090 567 
Q 3503 -91 2522 -91 
Q 1538 -91 948 565 
Q 359 1222 359 2328 
Q 359 3434 948 4092 
Q 1538 4750 2522 4750 
z
" transform="scale(0.015625)"/>
      </defs>
      <use xlink:href="#DejaVuSans-4d"/>
      <use xlink:href="#DejaVuSans-74" x="86.279297"/>
      <use xlink:href="#DejaVuSans-43" x="125.488281"/>
      <use xlink:href="#DejaVuSans-4f" x="195.3125"/>
      <use xlink:href="#DejaVuSans-32" x="274.023438"/>
     </g>
    </g>
   </g>
   <g id="patch_3">
    <path d="M 90 192.24 
L 90 25.92 
" style="fill: none; stroke: #000000; stroke-width: 0.8; stroke-linejoin: miter; stroke-linecap: square"/>
   </g>
   <g id="patch_4">
    <path d="M 648 192.24 
L 648 25.92 
" style="fill: none; stroke: #000000; stroke-width: 0.8; stroke-linejoin: miter; stroke-linecap: square"/>
   </g>
   <g id="patch_5">
    <path d="M 90 192.24 
L 648 192.24 
" style="fill: none; stroke: #000000; stroke-width: 0.8; stroke-linejoin: miter; stroke-linecap: square"/>
   </g>
   <g id="patch_6">
    <path d="M 90 25.92 
L 648 25.92 
" style="fill: none; stroke: #000000; stroke-width: 0.8; stroke-linejoin: miter; stroke-linecap: square"/>
   </g>
   <g id="text_19">
    <!-- Relative contribution of shown regions to global emissions in SSP5 BL scenario -->
    <g transform="translate(132.846563 19.92) scale(0.12 -0.12)">
     <defs>
      <path id="DejaVuSans-52" d="M 2841 2188 
Q 3044 2119 3236 1894 
Q 3428 1669 3622 1275 
L 4263 0 
L 3584 0 
L 2988 1197 
Q 2756 1666 2539 1819 
Q 2322 1972 1947 1972 
L 1259 1972 
L 1259 0 
L 628 0 
L 628 4666 
L 2053 4666 
Q 2853 4666 3247 4331 
Q 3641 3997 3641 3322 
Q 3641 2881 3436 2590 
Q 3231 2300 2841 2188 
z
M 1259 4147 
L 1259 2491 
L 2053 2491 
Q 2509 2491 2742 2702 
Q 2975 2913 2975 3322 
Q 2975 3731 2742 3939 
Q 2509 4147 2053 4147 
L 1259 4147 
z
" transform="scale(0.015625)"/>
      <path id="DejaVuSans-6c" d="M 603 4863 
L 1178 4863 
L 1178 0 
L 603 0 
L 603 4863 
z
" transform="scale(0.015625)"/>
      <path id="DejaVuSans-69" d="M 603 3500 
L 1178 3500 
L 1178 0 
L 603 0 
L 603 3500 
z
M 603 4863 
L 1178 4863 
L 1178 4134 
L 603 4134 
L 603 4863 
z
" transform="scale(0.015625)"/>
      <path id="DejaVuSans-76" d="M 191 3500 
L 800 3500 
L 1894 563 
L 2988 3500 
L 3597 3500 
L 2284 0 
L 1503 0 
L 191 3500 
z
" transform="scale(0.015625)"/>
      <path id="DejaVuSans-20" transform="scale(0.015625)"/>
      <path id="DejaVuSans-63" d="M 3122 3366 
L 3122 2828 
Q 2878 2963 2633 3030 
Q 2388 3097 2138 3097 
Q 1578 3097 1268 2742 
Q 959 2388 959 1747 
Q 959 1106 1268 751 
Q 1578 397 2138 397 
Q 2388 397 2633 464 
Q 2878 531 3122 666 
L 3122 134 
Q 2881 22 2623 -34 
Q 2366 -91 2075 -91 
Q 1284 -91 818 406 
Q 353 903 353 1747 
Q 353 2603 823 3093 
Q 1294 3584 2113 3584 
Q 2378 3584 2631 3529 
Q 2884 3475 3122 3366 
z
" transform="scale(0.015625)"/>
      <path id="DejaVuSans-6f" d="M 1959 3097 
Q 1497 3097 1228 2736 
Q 959 2375 959 1747 
Q 959 1119 1226 758 
Q 1494 397 1959 397 
Q 2419 397 2687 759 
Q 2956 1122 2956 1747 
Q 2956 2369 2687 2733 
Q 2419 3097 1959 3097 
z
M 1959 3584 
Q 2709 3584 3137 3096 
Q 3566 2609 3566 1747 
Q 3566 888 3137 398 
Q 2709 -91 1959 -91 
Q 1206 -91 779 398 
Q 353 888 353 1747 
Q 353 2609 779 3096 
Q 1206 3584 1959 3584 
z
" transform="scale(0.015625)"/>
      <path id="DejaVuSans-6e" d="M 3513 2113 
L 3513 0 
L 2938 0 
L 2938 2094 
Q 2938 2591 2744 2837 
Q 2550 3084 2163 3084 
Q 1697 3084 1428 2787 
Q 1159 2491 1159 1978 
L 1159 0 
L 581 0 
L 581 3500 
L 1159 3500 
L 1159 2956 
Q 1366 3272 1645 3428 
Q 1925 3584 2291 3584 
Q 2894 3584 3203 3211 
Q 3513 2838 3513 2113 
z
" transform="scale(0.015625)"/>
      <path id="DejaVuSans-62" d="M 3116 1747 
Q 3116 2381 2855 2742 
Q 2594 3103 2138 3103 
Q 1681 3103 1420 2742 
Q 1159 2381 1159 1747 
Q 1159 1113 1420 752 
Q 1681 391 2138 391 
Q 2594 391 2855 752 
Q 3116 1113 3116 1747 
z
M 1159 2969 
Q 1341 3281 1617 3432 
Q 1894 3584 2278 3584 
Q 2916 3584 3314 3078 
Q 3713 2572 3713 1747 
Q 3713 922 3314 415 
Q 2916 -91 2278 -91 
Q 1894 -91 1617 61 
Q 1341 213 1159 525 
L 1159 0 
L 581 0 
L 581 4863 
L 1159 4863 
L 1159 2969 
z
" transform="scale(0.015625)"/>
      <path id="DejaVuSans-75" d="M 544 1381 
L 544 3500 
L 1119 3500 
L 1119 1403 
Q 1119 906 1312 657 
Q 1506 409 1894 409 
Q 2359 409 2629 706 
Q 2900 1003 2900 1516 
L 2900 3500 
L 3475 3500 
L 3475 0 
L 2900 0 
L 2900 538 
Q 2691 219 2414 64 
Q 2138 -91 1772 -91 
Q 1169 -91 856 284 
Q 544 659 544 1381 
z
M 1991 3584 
L 1991 3584 
z
" transform="scale(0.015625)"/>
      <path id="DejaVuSans-66" d="M 2375 4863 
L 2375 4384 
L 1825 4384 
Q 1516 4384 1395 4259 
Q 1275 4134 1275 3809 
L 1275 3500 
L 2222 3500 
L 2222 3053 
L 1275 3053 
L 1275 0 
L 697 0 
L 697 3053 
L 147 3053 
L 147 3500 
L 697 3500 
L 697 3744 
Q 697 4328 969 4595 
Q 1241 4863 1831 4863 
L 2375 4863 
z
" transform="scale(0.015625)"/>
      <path id="DejaVuSans-73" d="M 2834 3397 
L 2834 2853 
Q 2591 2978 2328 3040 
Q 2066 3103 1784 3103 
Q 1356 3103 1142 2972 
Q 928 2841 928 2578 
Q 928 2378 1081 2264 
Q 1234 2150 1697 2047 
L 1894 2003 
Q 2506 1872 2764 1633 
Q 3022 1394 3022 966 
Q 3022 478 2636 193 
Q 2250 -91 1575 -91 
Q 1294 -91 989 -36 
Q 684 19 347 128 
L 347 722 
Q 666 556 975 473 
Q 1284 391 1588 391 
Q 1994 391 2212 530 
Q 2431 669 2431 922 
Q 2431 1156 2273 1281 
Q 2116 1406 1581 1522 
L 1381 1569 
Q 847 1681 609 1914 
Q 372 2147 372 2553 
Q 372 3047 722 3315 
Q 1072 3584 1716 3584 
Q 2034 3584 2315 3537 
Q 2597 3491 2834 3397 
z
" transform="scale(0.015625)"/>
      <path id="DejaVuSans-68" d="M 3513 2113 
L 3513 0 
L 2938 0 
L 2938 2094 
Q 2938 2591 2744 2837 
Q 2550 3084 2163 3084 
Q 1697 3084 1428 2787 
Q 1159 2491 1159 1978 
L 1159 0 
L 581 0 
L 581 4863 
L 1159 4863 
L 1159 2956 
Q 1366 3272 1645 3428 
Q 1925 3584 2291 3584 
Q 2894 3584 3203 3211 
Q 3513 2838 3513 2113 
z
" transform="scale(0.015625)"/>
      <path id="DejaVuSans-77" d="M 269 3500 
L 844 3500 
L 1563 769 
L 2278 3500 
L 2956 3500 
L 3675 769 
L 4391 3500 
L 4966 3500 
L 4050 0 
L 3372 0 
L 2619 2869 
L 1863 0 
L 1184 0 
L 269 3500 
z
" transform="scale(0.015625)"/>
      <path id="DejaVuSans-67" d="M 2906 1791 
Q 2906 2416 2648 2759 
Q 2391 3103 1925 3103 
Q 1463 3103 1205 2759 
Q 947 2416 947 1791 
Q 947 1169 1205 825 
Q 1463 481 1925 481 
Q 2391 481 2648 825 
Q 2906 1169 2906 1791 
z
M 3481 434 
Q 3481 -459 3084 -895 
Q 2688 -1331 1869 -1331 
Q 1566 -1331 1297 -1286 
Q 1028 -1241 775 -1147 
L 775 -588 
Q 1028 -725 1275 -790 
Q 1522 -856 1778 -856 
Q 2344 -856 2625 -561 
Q 2906 -266 2906 331 
L 2906 616 
Q 2728 306 2450 153 
Q 2172 0 1784 0 
Q 1141 0 747 490 
Q 353 981 353 1791 
Q 353 2603 747 3093 
Q 1141 3584 1784 3584 
Q 2172 3584 2450 3431 
Q 2728 3278 2906 2969 
L 2906 3500 
L 3481 3500 
L 3481 434 
z
" transform="scale(0.015625)"/>
      <path id="DejaVuSans-6d" d="M 3328 2828 
Q 3544 3216 3844 3400 
Q 4144 3584 4550 3584 
Q 5097 3584 5394 3201 
Q 5691 2819 5691 2113 
L 5691 0 
L 5113 0 
L 5113 2094 
Q 5113 2597 4934 2840 
Q 4756 3084 4391 3084 
Q 3944 3084 3684 2787 
Q 3425 2491 3425 1978 
L 3425 0 
L 2847 0 
L 2847 2094 
Q 2847 2600 2669 2842 
Q 2491 3084 2119 3084 
Q 1678 3084 1418 2786 
Q 1159 2488 1159 1978 
L 1159 0 
L 581 0 
L 581 3500 
L 1159 3500 
L 1159 2956 
Q 1356 3278 1631 3431 
Q 1906 3584 2284 3584 
Q 2666 3584 2933 3390 
Q 3200 3197 3328 2828 
z
" transform="scale(0.015625)"/>
      <path id="DejaVuSans-53" d="M 3425 4513 
L 3425 3897 
Q 3066 4069 2747 4153 
Q 2428 4238 2131 4238 
Q 1616 4238 1336 4038 
Q 1056 3838 1056 3469 
Q 1056 3159 1242 3001 
Q 1428 2844 1947 2747 
L 2328 2669 
Q 3034 2534 3370 2195 
Q 3706 1856 3706 1288 
Q 3706 609 3251 259 
Q 2797 -91 1919 -91 
Q 1588 -91 1214 -16 
Q 841 59 441 206 
L 441 856 
Q 825 641 1194 531 
Q 1563 422 1919 422 
Q 2459 422 2753 634 
Q 3047 847 3047 1241 
Q 3047 1584 2836 1778 
Q 2625 1972 2144 2069 
L 1759 2144 
Q 1053 2284 737 2584 
Q 422 2884 422 3419 
Q 422 4038 858 4394 
Q 1294 4750 2059 4750 
Q 2388 4750 2728 4690 
Q 3069 4631 3425 4513 
z
" transform="scale(0.015625)"/>
      <path id="DejaVuSans-50" d="M 1259 4147 
L 1259 2394 
L 2053 2394 
Q 2494 2394 2734 2622 
Q 2975 2850 2975 3272 
Q 2975 3691 2734 3919 
Q 2494 4147 2053 4147 
L 1259 4147 
z
M 628 4666 
L 2053 4666 
Q 2838 4666 3239 4311 
Q 3641 3956 3641 3272 
Q 3641 2581 3239 2228 
Q 2838 1875 2053 1875 
L 1259 1875 
L 1259 0 
L 628 0 
L 628 4666 
z
" transform="scale(0.015625)"/>
      <path id="DejaVuSans-42" d="M 1259 2228 
L 1259 519 
L 2272 519 
Q 2781 519 3026 730 
Q 3272 941 3272 1375 
Q 3272 1813 3026 2020 
Q 2781 2228 2272 2228 
L 1259 2228 
z
M 1259 4147 
L 1259 2741 
L 2194 2741 
Q 2656 2741 2882 2914 
Q 3109 3088 3109 3444 
Q 3109 3797 2882 3972 
Q 2656 4147 2194 4147 
L 1259 4147 
z
M 628 4666 
L 2241 4666 
Q 2963 4666 3353 4366 
Q 3744 4066 3744 3513 
Q 3744 3084 3544 2831 
Q 3344 2578 2956 2516 
Q 3422 2416 3680 2098 
Q 3938 1781 3938 1306 
Q 3938 681 3513 340 
Q 3088 0 2303 0 
L 628 0 
L 628 4666 
z
" transform="scale(0.015625)"/>
      <path id="DejaVuSans-4c" d="M 628 4666 
L 1259 4666 
L 1259 531 
L 3531 531 
L 3531 0 
L 628 0 
L 628 4666 
z
" transform="scale(0.015625)"/>
     </defs>
     <use xlink:href="#DejaVuSans-52"/>
     <use xlink:href="#DejaVuSans-65" x="64.982422"/>
     <use xlink:href="#DejaVuSans-6c" x="126.505859"/>
     <use xlink:href="#DejaVuSans-61" x="154.289062"/>
     <use xlink:href="#DejaVuSans-74" x="215.568359"/>
     <use xlink:href="#DejaVuSans-69" x="254.777344"/>
     <use xlink:href="#DejaVuSans-76" x="282.560547"/>
     <use xlink:href="#DejaVuSans-65" x="341.740234"/>
     <use xlink:href="#DejaVuSans-20" x="403.263672"/>
     <use xlink:href="#DejaVuSans-63" x="435.050781"/>
     <use xlink:href="#DejaVuSans-6f" x="490.03125"/>
     <use xlink:href="#DejaVuSans-6e" x="551.212891"/>
     <use xlink:href="#DejaVuSans-74" x="614.591797"/>
     <use xlink:href="#DejaVuSans-72" x="653.800781"/>
     <use xlink:href="#DejaVuSans-69" x="694.914062"/>
     <use xlink:href="#DejaVuSans-62" x="722.697266"/>
     <use xlink:href="#DejaVuSans-75" x="786.173828"/>
     <use xlink:href="#DejaVuSans-74" x="849.552734"/>
     <use xlink:href="#DejaVuSans-69" x="888.761719"/>
     <use xlink:href="#DejaVuSans-6f" x="916.544922"/>
     <use xlink:href="#DejaVuSans-6e" x="977.726562"/>
     <use xlink:href="#DejaVuSans-20" x="1041.105469"/>
     <use xlink:href="#DejaVuSans-6f" x="1072.892578"/>
     <use xlink:href="#DejaVuSans-66" x="1134.074219"/>
     <use xlink:href="#DejaVuSans-20" x="1169.279297"/>
     <use xlink:href="#DejaVuSans-73" x="1201.066406"/>
     <use xlink:href="#DejaVuSans-68" x="1253.166016"/>
     <use xlink:href="#DejaVuSans-6f" x="1316.544922"/>
     <use xlink:href="#DejaVuSans-77" x="1377.726562"/>
     <use xlink:href="#DejaVuSans-6e" x="1459.513672"/>
     <use xlink:href="#DejaVuSans-20" x="1522.892578"/>
     <use xlink:href="#DejaVuSans-72" x="1554.679688"/>
     <use xlink:href="#DejaVuSans-65" x="1593.542969"/>
     <use xlink:href="#DejaVuSans-67" x="1655.066406"/>
     <use xlink:href="#DejaVuSans-69" x="1718.542969"/>
     <use xlink:href="#DejaVuSans-6f" x="1746.326172"/>
     <use xlink:href="#DejaVuSans-6e" x="1807.507812"/>
     <use xlink:href="#DejaVuSans-73" x="1870.886719"/>
     <use xlink:href="#DejaVuSans-20" x="1922.986328"/>
     <use xlink:href="#DejaVuSans-74" x="1954.773438"/>
     <use xlink:href="#DejaVuSans-6f" x="1993.982422"/>
     <use xlink:href="#DejaVuSans-20" x="2055.164062"/>
     <use xlink:href="#DejaVuSans-67" x="2086.951172"/>
     <use xlink:href="#DejaVuSans-6c" x="2150.427734"/>
     <use xlink:href="#DejaVuSans-6f" x="2178.210938"/>
     <use xlink:href="#DejaVuSans-62" x="2239.392578"/>
     <use xlink:href="#DejaVuSans-61" x="2302.869141"/>
     <use xlink:href="#DejaVuSans-6c" x="2364.148438"/>
     <use xlink:href="#DejaVuSans-20" x="2391.931641"/>
     <use xlink:href="#DejaVuSans-65" x="2423.71875"/>
     <use xlink:href="#DejaVuSans-6d" x="2485.242188"/>
     <use xlink:href="#DejaVuSans-69" x="2582.654297"/>
     <use xlink:href="#DejaVuSans-73" x="2610.4375"/>
     <use xlink:href="#DejaVuSans-73" x="2662.537109"/>
     <use xlink:href="#DejaVuSans-69" x="2714.636719"/>
     <use xlink:href="#DejaVuSans-6f" x="2742.419922"/>
     <use xlink:href="#DejaVuSans-6e" x="2803.601562"/>
     <use xlink:href="#DejaVuSans-73" x="2866.980469"/>
     <use xlink:href="#DejaVuSans-20" x="2919.080078"/>
     <use xlink:href="#DejaVuSans-69" x="2950.867188"/>
     <use xlink:href="#DejaVuSans-6e" x="2978.650391"/>
     <use xlink:href="#DejaVuSans-20" x="3042.029297"/>
     <use xlink:href="#DejaVuSans-53" x="3073.816406"/>
     <use xlink:href="#DejaVuSans-53" x="3137.292969"/>
     <use xlink:href="#DejaVuSans-50" x="3200.769531"/>
     <use xlink:href="#DejaVuSans-35" x="3261.072266"/>
     <use xlink:href="#DejaVuSans-20" x="3324.695312"/>
     <use xlink:href="#DejaVuSans-42" x="3356.482422"/>
     <use xlink:href="#DejaVuSans-4c" x="3425.085938"/>
     <use xlink:href="#DejaVuSans-20" x="3480.798828"/>
     <use xlink:href="#DejaVuSans-73" x="3512.585938"/>
     <use xlink:href="#DejaVuSans-63" x="3564.685547"/>
     <use xlink:href="#DejaVuSans-65" x="3619.666016"/>
     <use xlink:href="#DejaVuSans-6e" x="3681.189453"/>
     <use xlink:href="#DejaVuSans-61" x="3744.568359"/>
     <use xlink:href="#DejaVuSans-72" x="3805.847656"/>
     <use xlink:href="#DejaVuSans-69" x="3846.960938"/>
     <use xlink:href="#DejaVuSans-6f" x="3874.744141"/>
    </g>
   </g>
   <g id="legend_1">
    <g id="patch_7">
     <path d="M 542.6375 210.0575 
L 641 210.0575 
Q 643 210.0575 643 208.0575 
L 643 32.92 
Q 643 30.92 641 30.92 
L 542.6375 30.92 
Q 540.6375 30.92 540.6375 32.92 
L 540.6375 208.0575 
Q 540.6375 210.0575 542.6375 210.0575 
z
" style="fill: #ffffff; opacity: 0.8; stroke: #cccccc; stroke-linejoin: miter"/>
    </g>
    <g id="patch_8">
     <path d="M 544.6375 42.518437 
L 564.6375 42.518437 
L 564.6375 35.518437 
L 544.6375 35.518437 
z
" style="fill: #708090"/>
    </g>
    <g id="text_20">
     <!-- RussiaCAsia -->
     <g transform="translate(572.6375 42.518437) scale(0.1 -0.1)">
      <defs>
       <path id="DejaVuSans-41" d="M 2188 4044 
L 1331 1722 
L 3047 1722 
L 2188 4044 
z
M 1831 4666 
L 2547 4666 
L 4325 0 
L 3669 0 
L 3244 1197 
L 1141 1197 
L 716 0 
L 50 0 
L 1831 4666 
z
" transform="scale(0.015625)"/>
      </defs>
      <use xlink:href="#DejaVuSans-52"/>
      <use xlink:href="#DejaVuSans-75" x="64.982422"/>
      <use xlink:href="#DejaVuSans-73" x="128.361328"/>
      <use xlink:href="#DejaVuSans-73" x="180.460938"/>
      <use xlink:href="#DejaVuSans-69" x="232.560547"/>
      <use xlink:href="#DejaVuSans-61" x="260.34375"/>
      <use xlink:href="#DejaVuSans-43" x="321.623047"/>
      <use xlink:href="#DejaVuSans-41" x="391.447266"/>
      <use xlink:href="#DejaVuSans-73" x="459.855469"/>
      <use xlink:href="#DejaVuSans-69" x="511.955078"/>
      <use xlink:href="#DejaVuSans-61" x="539.738281"/>
     </g>
    </g>
    <g id="patch_9">
     <path d="M 544.6375 57.196562 
L 564.6375 57.196562 
L 564.6375 50.196562 
L 544.6375 50.196562 
z
" style="fill: #1e90ff"/>
    </g>
    <g id="text_21">
     <!-- ROW -->
     <g transform="translate(572.6375 57.196562) scale(0.1 -0.1)">
      <defs>
       <path id="DejaVuSans-57" d="M 213 4666 
L 850 4666 
L 1831 722 
L 2809 4666 
L 3519 4666 
L 4500 722 
L 5478 4666 
L 6119 4666 
L 4947 0 
L 4153 0 
L 3169 4050 
L 2175 0 
L 1381 0 
L 213 4666 
z
" transform="scale(0.015625)"/>
      </defs>
      <use xlink:href="#DejaVuSans-52"/>
      <use xlink:href="#DejaVuSans-4f" x="69.482422"/>
      <use xlink:href="#DejaVuSans-57" x="148.193359"/>
     </g>
    </g>
    <g id="patch_10">
     <path d="M 544.6375 71.874687 
L 564.6375 71.874687 
L 564.6375 64.874687 
L 544.6375 64.874687 
z
" style="fill: #4682b4"/>
    </g>
    <g id="text_22">
     <!-- MENA -->
     <g transform="translate(572.6375 71.874687) scale(0.1 -0.1)">
      <defs>
       <path id="DejaVuSans-45" d="M 628 4666 
L 3578 4666 
L 3578 4134 
L 1259 4134 
L 1259 2753 
L 3481 2753 
L 3481 2222 
L 1259 2222 
L 1259 531 
L 3634 531 
L 3634 0 
L 628 0 
L 628 4666 
z
" transform="scale(0.015625)"/>
       <path id="DejaVuSans-4e" d="M 628 4666 
L 1478 4666 
L 3547 763 
L 3547 4666 
L 4159 4666 
L 4159 0 
L 3309 0 
L 1241 3903 
L 1241 0 
L 628 0 
L 628 4666 
z
" transform="scale(0.015625)"/>
      </defs>
      <use xlink:href="#DejaVuSans-4d"/>
      <use xlink:href="#DejaVuSans-45" x="86.279297"/>
      <use xlink:href="#DejaVuSans-4e" x="149.462891"/>
      <use xlink:href="#DejaVuSans-41" x="224.267578"/>
     </g>
    </g>
    <g id="patch_11">
     <path d="M 544.6375 86.552812 
L 564.6375 86.552812 
L 564.6375 79.552812 
L 544.6375 79.552812 
z
" style="fill: #ffa500"/>
    </g>
    <g id="text_23">
     <!-- SubSahAfrica -->
     <g transform="translate(572.6375 86.552812) scale(0.1 -0.1)">
      <use xlink:href="#DejaVuSans-53"/>
      <use xlink:href="#DejaVuSans-75" x="63.476562"/>
      <use xlink:href="#DejaVuSans-62" x="126.855469"/>
      <use xlink:href="#DejaVuSans-53" x="190.332031"/>
      <use xlink:href="#DejaVuSans-61" x="253.808594"/>
      <use xlink:href="#DejaVuSans-68" x="315.087891"/>
      <use xlink:href="#DejaVuSans-41" x="378.466797"/>
      <use xlink:href="#DejaVuSans-66" x="443.25"/>
      <use xlink:href="#DejaVuSans-72" x="478.455078"/>
      <use xlink:href="#DejaVuSans-69" x="519.568359"/>
      <use xlink:href="#DejaVuSans-63" x="547.351562"/>
      <use xlink:href="#DejaVuSans-61" x="602.332031"/>
     </g>
    </g>
    <g id="patch_12">
     <path d="M 544.6375 101.230937 
L 564.6375 101.230937 
L 564.6375 94.230937 
L 544.6375 94.230937 
z
" style="fill: #87ceeb"/>
    </g>
    <g id="text_24">
     <!-- LatinAmerica -->
     <g transform="translate(572.6375 101.230937) scale(0.1 -0.1)">
      <use xlink:href="#DejaVuSans-4c"/>
      <use xlink:href="#DejaVuSans-61" x="55.712891"/>
      <use xlink:href="#DejaVuSans-74" x="116.992188"/>
      <use xlink:href="#DejaVuSans-69" x="156.201172"/>
      <use xlink:href="#DejaVuSans-6e" x="183.984375"/>
      <use xlink:href="#DejaVuSans-41" x="247.363281"/>
      <use xlink:href="#DejaVuSans-6d" x="315.771484"/>
      <use xlink:href="#DejaVuSans-65" x="413.183594"/>
      <use xlink:href="#DejaVuSans-72" x="474.707031"/>
      <use xlink:href="#DejaVuSans-69" x="515.820312"/>
      <use xlink:href="#DejaVuSans-63" x="543.603516"/>
      <use xlink:href="#DejaVuSans-61" x="598.583984"/>
     </g>
    </g>
    <g id="patch_13">
     <path d="M 544.6375 115.909062 
L 564.6375 115.909062 
L 564.6375 108.909062 
L 544.6375 108.909062 
z
" style="fill: #00bfff"/>
    </g>
    <g id="text_25">
     <!-- OECDAsia -->
     <g transform="translate(572.6375 115.909062) scale(0.1 -0.1)">
      <defs>
       <path id="DejaVuSans-44" d="M 1259 4147 
L 1259 519 
L 2022 519 
Q 2988 519 3436 956 
Q 3884 1394 3884 2338 
Q 3884 3275 3436 3711 
Q 2988 4147 2022 4147 
L 1259 4147 
z
M 628 4666 
L 1925 4666 
Q 3281 4666 3915 4102 
Q 4550 3538 4550 2338 
Q 4550 1131 3912 565 
Q 3275 0 1925 0 
L 628 0 
L 628 4666 
z
" transform="scale(0.015625)"/>
      </defs>
      <use xlink:href="#DejaVuSans-4f"/>
      <use xlink:href="#DejaVuSans-45" x="78.710938"/>
      <use xlink:href="#DejaVuSans-43" x="141.894531"/>
      <use xlink:href="#DejaVuSans-44" x="211.71875"/>
      <use xlink:href="#DejaVuSans-41" x="286.970703"/>
      <use xlink:href="#DejaVuSans-73" x="355.378906"/>
      <use xlink:href="#DejaVuSans-69" x="407.478516"/>
      <use xlink:href="#DejaVuSans-61" x="435.261719"/>
     </g>
    </g>
    <g id="patch_14">
     <path d="M 544.6375 130.587187 
L 564.6375 130.587187 
L 564.6375 123.587187 
L 544.6375 123.587187 
z
" style="fill: #add8e6"/>
    </g>
    <g id="text_26">
     <!-- EU27 -->
     <g transform="translate(572.6375 130.587187) scale(0.1 -0.1)">
      <defs>
       <path id="DejaVuSans-55" d="M 556 4666 
L 1191 4666 
L 1191 1831 
Q 1191 1081 1462 751 
Q 1734 422 2344 422 
Q 2950 422 3222 751 
Q 3494 1081 3494 1831 
L 3494 4666 
L 4128 4666 
L 4128 1753 
Q 4128 841 3676 375 
Q 3225 -91 2344 -91 
Q 1459 -91 1007 375 
Q 556 841 556 1753 
L 556 4666 
z
" transform="scale(0.015625)"/>
      </defs>
      <use xlink:href="#DejaVuSans-45"/>
      <use xlink:href="#DejaVuSans-55" x="63.183594"/>
      <use xlink:href="#DejaVuSans-32" x="136.376953"/>
      <use xlink:href="#DejaVuSans-37" x="200"/>
     </g>
    </g>
    <g id="patch_15">
     <path d="M 544.6375 145.265312 
L 564.6375 145.265312 
L 564.6375 138.265312 
L 544.6375 138.265312 
z
" style="fill: #b0e0e6"/>
    </g>
    <g id="text_27">
     <!-- EmergAsia -->
     <g transform="translate(572.6375 145.265312) scale(0.1 -0.1)">
      <use xlink:href="#DejaVuSans-45"/>
      <use xlink:href="#DejaVuSans-6d" x="63.183594"/>
      <use xlink:href="#DejaVuSans-65" x="160.595703"/>
      <use xlink:href="#DejaVuSans-72" x="222.119141"/>
      <use xlink:href="#DejaVuSans-67" x="261.482422"/>
      <use xlink:href="#DejaVuSans-41" x="324.958984"/>
      <use xlink:href="#DejaVuSans-73" x="393.367188"/>
      <use xlink:href="#DejaVuSans-69" x="445.466797"/>
      <use xlink:href="#DejaVuSans-61" x="473.25"/>
     </g>
    </g>
    <g id="patch_16">
     <path d="M 544.6375 159.943437 
L 564.6375 159.943437 
L 564.6375 152.943437 
L 544.6375 152.943437 
z
" style="fill: #008000"/>
    </g>
    <g id="text_28">
     <!-- China -->
     <g transform="translate(572.6375 159.943437) scale(0.1 -0.1)">
      <use xlink:href="#DejaVuSans-43"/>
      <use xlink:href="#DejaVuSans-68" x="69.824219"/>
      <use xlink:href="#DejaVuSans-69" x="133.203125"/>
      <use xlink:href="#DejaVuSans-6e" x="160.986328"/>
      <use xlink:href="#DejaVuSans-61" x="224.365234"/>
     </g>
    </g>
    <g id="patch_17">
     <path d="M 544.6375 174.621562 
L 564.6375 174.621562 
L 564.6375 167.621562 
L 544.6375 167.621562 
z
" style="fill: #00ced1"/>
    </g>
    <g id="text_29">
     <!-- India -->
     <g transform="translate(572.6375 174.621562) scale(0.1 -0.1)">
      <defs>
       <path id="DejaVuSans-49" d="M 628 4666 
L 1259 4666 
L 1259 0 
L 628 0 
L 628 4666 
z
" transform="scale(0.015625)"/>
       <path id="DejaVuSans-64" d="M 2906 2969 
L 2906 4863 
L 3481 4863 
L 3481 0 
L 2906 0 
L 2906 525 
Q 2725 213 2448 61 
Q 2172 -91 1784 -91 
Q 1150 -91 751 415 
Q 353 922 353 1747 
Q 353 2572 751 3078 
Q 1150 3584 1784 3584 
Q 2172 3584 2448 3432 
Q 2725 3281 2906 2969 
z
M 947 1747 
Q 947 1113 1208 752 
Q 1469 391 1925 391 
Q 2381 391 2643 752 
Q 2906 1113 2906 1747 
Q 2906 2381 2643 2742 
Q 2381 3103 1925 3103 
Q 1469 3103 1208 2742 
Q 947 2381 947 1747 
z
" transform="scale(0.015625)"/>
      </defs>
      <use xlink:href="#DejaVuSans-49"/>
      <use xlink:href="#DejaVuSans-6e" x="29.492188"/>
      <use xlink:href="#DejaVuSans-64" x="92.871094"/>
      <use xlink:href="#DejaVuSans-69" x="156.347656"/>
      <use xlink:href="#DejaVuSans-61" x="184.130859"/>
     </g>
    </g>
    <g id="patch_18">
     <path d="M 544.6375 189.299687 
L 564.6375 189.299687 
L 564.6375 182.299687 
L 544.6375 182.299687 
z
" style="fill: #00ffff"/>
    </g>
    <g id="text_30">
     <!-- UK -->
     <g transform="translate(572.6375 189.299687) scale(0.1 -0.1)">
      <defs>
       <path id="DejaVuSans-4b" d="M 628 4666 
L 1259 4666 
L 1259 2694 
L 3353 4666 
L 4166 4666 
L 1850 2491 
L 4331 0 
L 3500 0 
L 1259 2247 
L 1259 0 
L 628 0 
L 628 4666 
z
" transform="scale(0.015625)"/>
      </defs>
      <use xlink:href="#DejaVuSans-55"/>
      <use xlink:href="#DejaVuSans-4b" x="73.193359"/>
     </g>
    </g>
    <g id="patch_19">
     <path d="M 544.6375 203.977812 
L 564.6375 203.977812 
L 564.6375 196.977812 
L 544.6375 196.977812 
z
" style="fill: #ff0000"/>
    </g>
    <g id="text_31">
     <!-- UnitedStates -->
     <g transform="translate(572.6375 203.977812) scale(0.1 -0.1)">
      <use xlink:href="#DejaVuSans-55"/>
      <use xlink:href="#DejaVuSans-6e" x="73.193359"/>
      <use xlink:href="#DejaVuSans-69" x="136.572266"/>
      <use xlink:href="#DejaVuSans-74" x="164.355469"/>
      <use xlink:href="#DejaVuSans-65" x="203.564453"/>
      <use xlink:href="#DejaVuSans-64" x="265.087891"/>
      <use xlink:href="#DejaVuSans-53" x="328.564453"/>
      <use xlink:href="#DejaVuSans-74" x="392.041016"/>
      <use xlink:href="#DejaVuSans-61" x="431.25"/>
      <use xlink:href="#DejaVuSans-74" x="492.529297"/>
      <use xlink:href="#DejaVuSans-65" x="531.738281"/>
      <use xlink:href="#DejaVuSans-73" x="593.261719"/>
     </g>
    </g>
   </g>
  </g>
 </g>
 <defs>
  <clipPath id="p0ad3b9ad4c">
   <rect x="90" y="25.92" width="558" height="166.32"/>
  </clipPath>
 </defs>
</svg>
